<svg width="1080" height="1080" viewBox="0 0 1080 1080" fill="none" xmlns="http://www.w3.org/2000/svg">
<g filter="url(#filter0_f_522_167)">
<path d="M458.939 695.899C457.94 698.217 456.938 700.542 455.909 702.929L455.889 702.976L455.865 703.022C450.719 713.03 445.2 721.215 434.524 726.4L434.319 726.5L434.095 726.534C419.766 728.714 406.218 727.182 392.702 722.418C390.56 724.96 390.874 727.275 390.624 731.768C390.693 736.903 391.514 740.862 393.104 744.482C394.699 748.11 397.1 751.478 400.448 755.402C408.972 763.425 417.824 765.516 429.497 766.106C443.949 765.543 452.598 759.525 462.584 749.224C475.351 733.76 481.39 715.725 482.638 695.899H458.939Z" stroke="#00A6CC" stroke-width="3"/>
<path d="M531.096 695.899C531.179 697.394 531.264 698.898 531.35 700.435V700.437C531.769 707.801 532.203 715.163 532.647 722.525C532.836 725.695 533.018 728.865 533.194 732.035C533.848 744.119 534.179 750.244 535.012 756.299C535.845 762.353 537.179 768.327 539.809 780.113L542.735 780.117C544.877 770.638 545.803 761.167 546.607 751.612L546.606 751.611C546.749 749.976 546.892 748.341 547.039 746.657V746.656C547.491 741.459 547.934 736.261 548.377 731.064C548.683 727.528 548.99 723.992 549.297 720.456C550.006 712.271 550.708 704.085 551.407 695.899H575.045C575.592 698.995 575.666 699.412 576.356 703.315L576.358 703.325C581.887 733.424 589.097 759.11 607.404 784.324C603.727 791.841 599.102 796.912 592.797 802.771L592.784 802.783L592.771 802.796C591.259 804.269 589.746 805.742 588.188 807.26C570.705 823.777 562.134 831.864 555.885 835.848C552.826 837.798 550.388 838.718 547.764 839.159C545.135 839.6 542.279 839.57 538.281 839.508C513.389 829.848 491.562 807.415 472.951 788.184C475.698 780.984 478.964 774.7 483.148 768.141L483.159 768.125L483.169 768.109C496.983 745.209 502.218 721.47 507.464 695.899H531.096Z" stroke="#00A6CC" stroke-width="3"/>
<path d="M338.824 673.825C391.166 655.555 441.202 654.725 478.338 658.527C495.123 660.245 509.282 662.912 519.843 665.345C479.347 650.055 438.381 647.455 405.996 649.096C387.177 650.05 371.279 652.436 360.091 654.581C354.498 655.653 350.084 656.665 347.073 657.408C345.567 657.779 344.412 658.083 343.636 658.294C343.499 658.331 343.374 658.367 343.26 658.398L338.824 673.825Z" stroke="#00A6CC" stroke-width="3"/>
<path d="M524.902 661.635C517.653 656.344 507.649 649.953 494.938 643.892C465.726 629.962 422.189 617.758 364.837 624.648L354.38 641.457C354.501 641.421 354.624 641.383 354.75 641.347C357.53 640.535 361.598 639.45 366.773 638.345C377.124 636.134 391.915 633.841 409.708 633.503C441.316 632.902 482.413 638.471 524.902 661.635Z" stroke="#00A6CC" stroke-width="3"/>
<path d="M524.17 651.627C520.036 646.843 514.926 641.639 508.713 636.435C486.839 618.109 451.236 599.706 396.309 599.568L383.518 612.353C383.845 612.334 384.19 612.311 384.553 612.292C387.801 612.123 392.485 611.961 398.248 611.984C409.769 612.031 425.616 612.82 442.917 615.793C470.012 620.449 500.866 630.5 524.17 651.627Z" stroke="#00A6CC" stroke-width="3"/>
<path d="M741.288 673.825C688.948 655.555 638.98 654.726 601.91 658.529C585.225 660.241 571.144 662.893 560.621 665.319C601.075 650.056 641.949 647.46 674.253 649.099C693.037 650.053 708.901 652.436 720.062 654.581C725.643 655.653 730.046 656.665 733.05 657.408C734.552 657.779 735.704 658.083 736.478 658.294C736.614 658.331 736.739 658.367 736.852 658.398L741.288 673.825Z" stroke="#00A6CC" stroke-width="3"/>
<path d="M555.282 661.742C562.519 656.431 572.542 649.994 585.312 643.891C614.454 629.962 657.923 617.758 715.275 624.648L725.729 641.453C725.613 641.419 725.495 641.383 725.375 641.348C722.602 640.536 718.545 639.45 713.381 638.345C703.056 636.134 688.299 633.841 670.541 633.503C638.944 632.901 597.829 638.488 555.282 661.742Z" stroke="#00A6CC" stroke-width="3"/>
<path d="M555.887 651.917C560.047 647.053 565.218 641.744 571.537 636.434C593.342 618.11 628.876 599.706 683.803 599.568L696.594 612.352C696.271 612.333 695.93 612.311 695.571 612.292C692.331 612.123 687.657 611.961 681.907 611.984C670.412 612.031 654.597 612.82 637.33 615.793C610.165 620.471 579.208 630.592 555.887 651.917Z" stroke="#00A6CC" stroke-width="3"/>
<path d="M538.692 339.142C538.167 339.779 537.697 340.547 537.34 341.268C537.108 341.736 536.905 342.22 536.759 342.677C536.62 343.109 536.499 343.616 536.503 344.103V344.104C536.52 346.348 536.427 348.45 536.331 350.593C536.235 352.727 536.136 354.903 536.146 357.235V357.242C536.153 358.005 536.15 359.238 536.146 360.491C536.145 361.114 536.143 361.741 536.143 362.314L536.146 363.811C536.146 372.475 535.425 378.727 534.682 386.646L534.681 386.657C534.238 391.799 534.299 396.917 534.437 401.977C534.575 407.058 534.791 412.054 534.676 417.072C534.64 418.482 534.622 419.187 534.604 419.899C534.585 420.612 534.567 421.332 534.53 422.771C534.376 428.913 534.229 435.056 534.083 441.197C533.977 445.484 533.87 449.773 533.763 454.061C533.511 464.146 533.264 474.232 533.021 484.317C532.743 495.812 532.459 507.307 532.174 518.802C531.588 542.416 531.009 566.03 530.438 589.645C529.093 611.838 526.842 625.268 524.27 633.104C522.982 637.029 521.649 639.433 520.406 640.831C519.33 642.042 518.359 642.459 517.514 642.529C517.429 642.471 517.318 642.392 517.183 642.288C516.756 641.959 516.178 641.472 515.485 640.862C514.104 639.646 512.349 638.02 510.572 636.374C508.806 634.737 507.017 633.08 505.596 631.833C504.887 631.211 504.248 630.671 503.736 630.28C503.484 630.087 503.233 629.907 503.005 629.77C502.891 629.701 502.755 629.626 502.606 629.563C502.505 629.521 502.294 629.436 502.023 629.412C502.013 629.408 502.001 629.404 501.986 629.397C501.882 629.35 501.729 629.264 501.521 629.13C501.103 628.859 500.614 628.488 500.061 628.068C499.534 627.669 498.943 627.222 498.405 626.877C498.135 626.703 497.841 626.531 497.546 626.398C497.274 626.276 496.873 626.127 496.422 626.122H496.414C495.97 626.119 495.743 626.119 495.626 626.119C495.578 626.119 495.519 626.119 495.469 626.121C495.459 626.122 495.442 626.123 495.421 626.125C495.419 626.125 495.416 626.125 495.414 626.125C495.378 626.125 495.327 626.124 495.258 626.124C495.241 626.071 495.224 626.013 495.207 625.948C495.023 625.27 494.873 624.209 494.763 622.801C494.545 620.01 494.511 616.184 494.546 612.093C494.581 608 494.684 603.73 494.737 600.003C494.79 596.33 494.794 593.134 494.612 591.345C494.051 585.823 493.878 582 493.38 576.609L493.379 576.594L493.377 576.577L493.168 574.837C488.573 538.333 471.14 503.885 455.866 471.319C452.823 464.54 450.213 457.603 447.608 450.582L447.604 450.574C445.972 446.251 444.195 442.048 442.374 437.837C430.978 408.923 428.008 376.51 439.533 347.329C446.049 332.671 452.604 318.374 463.478 306.869L463.479 306.867C465.251 304.986 467.003 303.047 468.649 301.009L468.648 301.008C474.678 293.572 481.27 287.937 489.027 282.207L489.034 282.203L489.04 282.198C491.489 280.35 493.937 278.499 496.385 276.648C496.992 276.192 497.599 275.736 498.211 275.276C498.824 274.816 499.441 274.352 500.067 273.881L500.069 273.88C512.149 264.776 531.085 249.224 538.692 242.436V339.142ZM496.877 626.972C496.894 627.008 496.913 627.046 496.929 627.088C496.913 627.046 496.895 627.008 496.877 626.972ZM496.813 626.85C496.818 626.857 496.822 626.866 496.826 626.874C496.815 626.855 496.804 626.837 496.793 626.819C496.799 626.829 496.807 626.839 496.813 626.85ZM496.723 626.718C496.729 626.726 496.737 626.735 496.743 626.744C496.736 626.735 496.729 626.726 496.723 626.718ZM494.318 626.737C494.336 626.713 494.354 626.691 494.372 626.669C494.354 626.691 494.336 626.713 494.318 626.737ZM496.609 626.587C496.63 626.609 496.655 626.633 496.679 626.661C496.656 626.633 496.631 626.61 496.609 626.587ZM494.479 626.551C494.482 626.548 494.485 626.545 494.488 626.542C494.485 626.545 494.482 626.548 494.479 626.551ZM496.534 626.51C496.536 626.511 496.537 626.514 496.539 626.516C496.534 626.511 496.529 626.506 496.523 626.501C496.527 626.504 496.531 626.507 496.534 626.51ZM496.38 626.388C496.385 626.391 496.389 626.396 496.396 626.4C496.381 626.39 496.37 626.381 496.359 626.374C496.366 626.379 496.373 626.383 496.38 626.388Z" stroke="#00A6CC" stroke-width="3"/>
<path d="M541.693 339.142C542.219 339.779 542.689 340.547 543.046 341.268C543.278 341.736 543.481 342.22 543.627 342.677C543.765 343.109 543.887 343.616 543.883 344.103V344.104C543.866 346.348 543.958 348.45 544.055 350.593C544.151 352.727 544.25 354.903 544.239 357.235V357.242C544.233 358.005 544.236 359.238 544.239 360.491C544.241 361.114 544.243 361.741 544.243 362.314L544.239 363.811C544.24 372.475 544.961 378.727 545.704 386.646L545.705 386.657C546.147 391.799 546.087 396.917 545.949 401.977C545.811 407.058 545.595 412.054 545.71 417.072C545.746 418.482 545.764 419.187 545.782 419.899C545.801 420.612 545.819 421.332 545.855 422.771C546.01 428.913 546.156 435.056 546.303 441.197C546.409 445.484 546.516 449.773 546.623 454.061C546.875 464.146 547.122 474.232 547.365 484.317C547.643 495.812 547.927 507.307 548.212 518.802C548.797 542.416 549.376 566.03 549.948 589.645C551.293 611.838 553.544 625.268 556.116 633.104C557.404 637.029 558.736 639.433 559.979 640.831C561.056 642.042 562.026 642.459 562.872 642.529C562.957 642.471 563.068 642.392 563.203 642.288C563.63 641.959 564.207 641.472 564.9 640.862C566.282 639.646 568.036 638.02 569.813 636.374C571.58 634.737 573.369 633.08 574.79 631.833C575.498 631.211 576.138 630.671 576.649 630.28C576.902 630.087 577.152 629.907 577.381 629.77C577.494 629.701 577.631 629.626 577.779 629.563C577.88 629.521 578.092 629.436 578.362 629.412C578.372 629.408 578.385 629.404 578.399 629.397C578.504 629.35 578.657 629.264 578.864 629.13C579.282 628.859 579.772 628.488 580.325 628.068C580.852 627.669 581.442 627.222 581.98 626.877C582.251 626.703 582.544 626.531 582.84 626.398C583.112 626.276 583.513 626.127 583.964 626.122H583.972C584.415 626.119 584.643 626.119 584.76 626.119C584.808 626.119 584.867 626.119 584.917 626.121C584.927 626.122 584.943 626.123 584.965 626.125C584.967 626.125 584.969 626.125 584.972 626.125C585.008 626.125 585.059 626.124 585.128 626.124C585.144 626.071 585.161 626.013 585.179 625.948C585.362 625.27 585.513 624.209 585.623 622.801C585.841 620.01 585.875 616.184 585.84 612.093C585.805 608 585.701 603.73 585.648 600.003C585.596 596.33 585.592 593.134 585.773 591.345C586.335 585.823 586.508 582 587.006 576.609L587.007 576.594L587.009 576.577L587.218 574.837C591.813 538.333 609.246 503.885 624.52 471.319C627.562 464.54 630.172 457.603 632.777 450.582L632.781 450.574C634.414 446.251 636.191 442.048 638.012 437.837C649.408 408.923 652.378 376.51 640.853 347.329C634.337 332.671 627.781 318.374 616.908 306.869L616.906 306.867C615.135 304.986 613.383 303.047 611.736 301.009L611.737 301.008C605.707 293.572 599.116 287.937 591.358 282.207L591.352 282.203L591.346 282.198C588.897 280.35 586.449 278.499 584.001 276.648C583.394 276.192 582.786 275.736 582.175 275.276C581.562 274.816 580.945 274.352 580.318 273.881L580.316 273.88C568.237 264.776 549.301 249.224 541.693 242.436V339.142ZM583.509 626.972C583.491 627.008 583.473 627.046 583.457 627.088C583.473 627.046 583.491 627.008 583.509 626.972ZM583.572 626.85C583.568 626.857 583.564 626.866 583.56 626.874C583.571 626.855 583.582 626.837 583.593 626.819C583.586 626.829 583.579 626.839 583.572 626.85ZM583.663 626.718C583.656 626.726 583.649 626.735 583.643 626.744C583.649 626.735 583.657 626.726 583.663 626.718ZM586.067 626.737C586.05 626.713 586.032 626.691 586.014 626.669C586.032 626.691 586.05 626.713 586.067 626.737ZM583.776 626.587C583.755 626.609 583.731 626.633 583.707 626.661C583.73 626.633 583.754 626.61 583.776 626.587ZM585.907 626.551C585.904 626.548 585.901 626.545 585.897 626.542C585.901 626.545 585.904 626.548 585.907 626.551ZM583.852 626.51C583.85 626.511 583.849 626.514 583.847 626.516C583.852 626.511 583.857 626.506 583.862 626.501C583.859 626.504 583.855 626.507 583.852 626.51ZM584.006 626.388C584.001 626.391 583.996 626.396 583.99 626.4C584.004 626.39 584.016 626.381 584.026 626.374C584.02 626.379 584.013 626.383 584.006 626.388Z" stroke="#00A6CC" stroke-width="3"/>
<path d="M307.538 422.547C343.712 408.784 378.055 416.341 408.867 438.905C425.742 452.205 438.778 467.537 449.647 486.079L449.66 486.102L449.674 486.124L452.518 490.61C469.554 518.201 485.017 557.875 483.795 592.154C483.019 597.961 482.5 602.632 482.076 606.365C481.648 610.137 481.323 612.899 480.932 614.942C480.533 617.022 480.108 618.105 479.637 618.699C479.288 619.139 478.83 619.414 477.903 619.53C477.867 619.51 477.823 619.484 477.771 619.45C477.49 619.269 477.11 618.977 476.639 618.578C475.701 617.785 474.557 616.705 473.367 615.582C472.198 614.479 470.984 613.334 469.963 612.476C469.455 612.048 468.954 611.657 468.504 611.371C468.28 611.229 468.031 611.088 467.774 610.984C467.548 610.891 467.167 610.763 466.724 610.801C466.544 610.816 466.205 610.789 465.667 610.687C465.151 610.589 464.573 610.446 463.939 610.29C463.326 610.139 462.66 609.975 462.042 609.859C461.445 609.748 460.767 609.656 460.155 609.706L459.599 609.752L459.208 610.151C459.195 610.164 459.067 610.28 458.615 610.328C458.171 610.376 457.56 610.342 456.784 610.207C455.234 609.937 453.323 609.321 451.332 608.588C449.311 607.843 447.43 607.065 445.713 606.412C444.886 606.098 444.112 605.82 443.456 605.626C442.945 605.475 442.326 605.318 441.767 605.318L441.531 605.328C440.61 605.41 439.959 605.433 439.503 605.412C439.484 605.411 439.464 605.408 439.446 605.407C439.8 604.149 440.74 601.533 439.245 598.287C438.676 596.715 438.107 595.142 437.521 593.522L437.516 593.509L436.816 591.649C429.525 572.444 420.101 553.757 401.014 543.091L400.946 543.054L400.876 543.024L400.277 542.771C387.72 537.564 375.172 538.832 362.701 543.11L362.646 543.13L362.592 543.153C357.14 545.518 353.082 548.31 349.789 551.924C346.509 555.524 344.051 559.87 341.705 565.241L341.683 565.293L341.664 565.345C337.428 577.405 337.408 588.471 338.119 600.731C316.169 601.919 297.622 598.314 280.6 583.313C261.275 564.03 250.945 542.548 250.628 515.289H250.629C250.627 513.612 250.624 511.934 250.622 510.205V510.171L250.501 505.156C250.455 493.208 252.899 483.762 257.655 472.753H257.656L257.661 472.74C258.421 470.935 258.424 470.929 259.194 469.1C267.961 449.03 286.368 431.205 306.574 422.934L307.538 422.547Z" stroke="#00A6CC" stroke-width="3"/>
<path d="M772.848 422.547C736.673 408.784 702.331 416.341 671.519 438.905C654.643 452.205 641.608 467.537 630.738 486.079L630.726 486.102L630.712 486.124L627.868 490.61C610.832 518.201 595.368 557.875 596.591 592.154C597.367 597.961 597.886 602.632 598.31 606.365C598.738 610.137 599.063 612.899 599.454 614.942C599.852 617.022 600.278 618.105 600.749 618.699C601.098 619.139 601.556 619.414 602.482 619.53C602.518 619.51 602.563 619.484 602.615 619.45C602.896 619.269 603.276 618.977 603.747 618.578C604.685 617.785 605.829 616.705 607.019 615.582C608.187 614.479 609.401 613.334 610.423 612.476C610.931 612.048 611.432 611.657 611.882 611.371C612.106 611.229 612.355 611.088 612.611 610.984C612.838 610.891 613.218 610.763 613.662 610.801C613.841 610.816 614.18 610.789 614.719 610.687C615.234 610.589 615.813 610.446 616.446 610.29C617.06 610.139 617.726 609.975 618.344 609.859C618.941 609.748 619.618 609.656 620.23 609.706L620.787 609.752L621.178 610.151C621.191 610.164 621.319 610.28 621.771 610.328C622.215 610.376 622.826 610.342 623.602 610.207C625.151 609.937 627.063 609.321 629.054 608.588C631.075 607.843 632.955 607.065 634.673 606.412C635.5 606.098 636.274 605.82 636.93 605.626C637.441 605.475 638.06 605.318 638.619 605.318L638.854 605.328C639.775 605.41 640.427 605.433 640.883 605.412C640.902 605.411 640.921 605.408 640.939 605.407C640.586 604.149 639.646 601.533 641.141 598.287C641.71 596.715 642.279 595.142 642.865 593.522L642.87 593.509L643.569 591.649C650.861 572.444 660.285 553.757 679.372 543.091L679.439 543.054L679.51 543.024L680.108 542.771C692.665 537.564 705.213 538.832 717.685 543.11L717.74 543.13L717.794 543.153C723.246 545.518 727.303 548.31 730.597 551.924C733.877 555.524 736.335 559.87 738.681 565.241L738.703 565.293L738.722 565.345C742.958 577.405 742.978 588.471 742.267 600.731C764.217 601.919 782.764 598.314 799.786 583.313C819.111 564.03 829.441 542.548 829.758 515.289H829.757C829.759 513.612 829.761 511.934 829.764 510.205V510.171L829.885 505.156C829.93 493.208 827.486 483.762 822.73 472.753H822.729L822.725 472.74C821.964 470.935 821.962 470.929 821.191 469.1C812.424 449.03 794.018 431.205 773.812 422.934L772.848 422.547Z" stroke="#00A6CC" stroke-width="3"/>
<path d="M620.215 697.319C621.214 699.637 622.216 701.962 623.245 704.349L623.266 704.396L623.289 704.442C628.435 714.449 633.954 722.634 644.63 727.82L644.835 727.919L645.06 727.954C659.388 730.134 672.936 728.601 686.452 723.837C688.594 726.38 688.281 728.694 688.53 733.188C688.462 738.323 687.64 742.282 686.05 745.902C684.456 749.53 682.055 752.898 678.706 756.822C670.182 764.845 661.33 766.936 649.657 767.526C635.205 766.963 626.556 760.944 616.57 750.644C603.803 735.18 597.764 717.145 596.517 697.319H620.215Z" stroke="#00A6CC" stroke-width="3"/>
<path d="M538.692 339.142C538.167 339.779 537.697 340.547 537.34 341.268C537.108 341.736 536.905 342.22 536.759 342.677C536.62 343.109 536.499 343.616 536.503 344.103V344.104C536.52 346.348 536.427 348.45 536.331 350.593C536.235 352.727 536.136 354.903 536.146 357.235V357.242C536.153 358.005 536.15 359.238 536.146 360.491C536.145 361.114 536.143 361.741 536.143 362.314L536.146 363.811C536.146 372.475 535.425 378.727 534.682 386.646L534.681 386.657C534.238 391.799 534.299 396.917 534.437 401.977C534.575 407.058 534.791 412.054 534.676 417.072C534.64 418.482 534.622 419.187 534.604 419.899C534.585 420.612 534.567 421.332 534.53 422.771C534.376 428.913 534.229 435.056 534.083 441.197C533.977 445.484 533.87 449.773 533.763 454.061C533.511 464.146 533.264 474.232 533.021 484.317C532.743 495.812 532.459 507.307 532.174 518.802C531.588 542.416 531.009 566.03 530.438 589.645C529.093 611.838 526.842 625.268 524.27 633.104C522.982 637.029 521.649 639.433 520.406 640.831C519.33 642.042 518.359 642.459 517.514 642.529C517.429 642.471 517.318 642.392 517.183 642.288C516.756 641.959 516.178 641.472 515.485 640.862C514.104 639.646 512.349 638.02 510.572 636.374C508.806 634.737 507.017 633.08 505.596 631.833C504.887 631.211 504.248 630.671 503.736 630.28C503.484 630.087 503.233 629.907 503.005 629.77C502.891 629.701 502.755 629.626 502.606 629.563C502.505 629.521 502.294 629.436 502.023 629.412C502.013 629.408 502.001 629.404 501.986 629.397C501.882 629.35 501.729 629.264 501.521 629.13C501.103 628.859 500.614 628.488 500.061 628.068C499.534 627.669 498.943 627.222 498.405 626.877C498.135 626.703 497.841 626.531 497.546 626.398C497.274 626.276 496.873 626.127 496.422 626.122H496.414C495.97 626.119 495.743 626.119 495.626 626.119C495.578 626.119 495.519 626.119 495.469 626.121C495.459 626.122 495.442 626.123 495.421 626.125C495.419 626.125 495.416 626.125 495.414 626.125C495.378 626.125 495.327 626.124 495.258 626.124C495.241 626.071 495.224 626.013 495.207 625.948C495.023 625.27 494.873 624.209 494.763 622.801C494.545 620.01 494.511 616.184 494.546 612.093C494.581 608 494.684 603.73 494.737 600.003C494.79 596.33 494.794 593.134 494.612 591.345C494.051 585.823 493.878 582 493.38 576.609L493.379 576.594L493.377 576.577L493.168 574.837C488.573 538.333 471.14 503.885 455.866 471.319C452.823 464.54 450.213 457.603 447.608 450.582L447.604 450.574C445.972 446.251 444.195 442.048 442.374 437.837C430.978 408.923 428.008 376.51 439.533 347.329C446.049 332.671 452.604 318.374 463.478 306.869L463.479 306.867C465.251 304.986 467.003 303.047 468.649 301.009L468.648 301.008C474.678 293.572 481.27 287.937 489.027 282.207L489.034 282.203L489.04 282.198C491.489 280.35 493.937 278.499 496.385 276.648C496.992 276.192 497.599 275.736 498.211 275.276C498.824 274.816 499.441 274.352 500.067 273.881L500.069 273.88C512.149 264.776 531.085 249.224 538.692 242.436V339.142ZM541.692 242.436C549.299 249.224 568.236 264.776 580.315 273.88L580.317 273.881C580.944 274.352 581.561 274.816 582.174 275.276C582.785 275.736 583.393 276.192 584 276.648V276.649C586.448 278.5 588.897 280.35 591.346 282.198L591.352 282.203L591.357 282.207C599.115 287.937 605.706 293.572 611.736 301.008V301.009C613.383 303.047 615.135 304.985 616.906 306.867L616.908 306.869C627.781 318.374 634.335 332.672 640.851 347.329C652.377 376.511 649.406 408.923 638.01 437.837C636.189 442.048 634.413 446.251 632.78 450.574L632.777 450.582C630.175 457.595 627.568 464.524 624.529 471.297C609.01 504.386 591.26 539.419 587.009 576.577L587.007 576.594L587.005 576.609C586.507 582 586.334 585.823 585.772 591.345C585.591 593.134 585.595 596.33 585.647 600.003C585.7 603.73 585.805 608 585.84 612.093C585.875 616.184 585.841 620.01 585.623 622.801C585.513 624.209 585.362 625.27 585.179 625.948C585.161 626.013 585.143 626.071 585.126 626.124C585.057 626.124 585.007 626.125 584.971 626.125C584.969 626.125 584.967 626.125 584.965 626.125C584.943 626.123 584.926 626.122 584.916 626.121C584.866 626.119 584.808 626.119 584.76 626.119C584.643 626.119 584.416 626.119 583.972 626.122H583.963C583.512 626.127 583.112 626.276 582.84 626.398C582.544 626.531 582.25 626.703 581.979 626.877C581.441 627.222 580.852 627.669 580.325 628.068C579.772 628.488 579.282 628.859 578.864 629.13C578.657 629.264 578.504 629.35 578.399 629.397C578.384 629.404 578.371 629.408 578.36 629.412C578.09 629.436 577.879 629.521 577.778 629.563C577.63 629.626 577.494 629.701 577.381 629.77C577.152 629.907 576.901 630.087 576.648 630.28C576.137 630.671 575.498 631.212 574.79 631.833C573.369 633.08 571.579 634.737 569.812 636.374C568.036 638.02 566.281 639.646 564.899 640.862C564.207 641.472 563.63 641.959 563.203 642.288C563.067 642.393 562.955 642.471 562.87 642.529C562.025 642.459 561.054 642.041 559.979 640.831C558.735 639.433 557.404 637.029 556.116 633.104C553.543 625.265 551.291 611.827 549.946 589.619C549.375 566.013 548.796 542.407 548.211 518.802C547.926 507.307 547.642 495.812 547.364 484.317C547.121 474.232 546.875 464.146 546.623 454.061C546.516 449.773 546.408 445.484 546.302 441.197L545.855 422.771L545.782 419.899L545.71 417.072C545.595 412.054 545.81 407.058 545.948 401.977C546.086 396.917 546.147 391.799 545.705 386.657L545.703 386.646C544.96 378.727 544.24 372.475 544.239 363.811C544.246 363.003 544.243 361.736 544.239 360.491C544.236 359.238 544.233 358.005 544.239 357.242V357.235C544.25 354.903 544.15 352.727 544.054 350.593C543.957 348.45 543.865 346.348 543.882 344.104L543.881 344.103C543.885 343.616 543.764 343.109 543.626 342.677C543.48 342.22 543.277 341.736 543.045 341.268C542.688 340.547 542.218 339.778 541.692 339.141V242.436ZM496.877 626.972C496.894 627.008 496.913 627.046 496.929 627.088C496.913 627.046 496.895 627.008 496.877 626.972ZM583.458 627.082C583.473 627.043 583.49 627.006 583.507 626.972C583.49 627.006 583.473 627.043 583.458 627.082ZM583.555 626.881C583.561 626.87 583.565 626.859 583.571 626.85C583.578 626.838 583.586 626.827 583.593 626.816C583.58 626.836 583.568 626.858 583.555 626.881ZM496.813 626.85C496.818 626.857 496.822 626.866 496.826 626.874C496.815 626.855 496.804 626.837 496.793 626.819C496.799 626.829 496.807 626.839 496.813 626.85ZM583.638 626.749C583.647 626.735 583.657 626.723 583.667 626.71C583.658 626.722 583.648 626.735 583.638 626.749ZM496.723 626.718C496.729 626.726 496.737 626.735 496.743 626.744C496.736 626.735 496.729 626.726 496.723 626.718ZM494.318 626.737C494.336 626.713 494.354 626.691 494.372 626.669C494.354 626.691 494.336 626.713 494.318 626.737ZM586.017 626.674C586.032 626.693 586.047 626.712 586.062 626.732C586.047 626.712 586.032 626.693 586.017 626.674ZM583.705 626.662C583.728 626.635 583.75 626.612 583.771 626.591C583.75 626.613 583.727 626.636 583.705 626.662ZM496.609 626.587C496.63 626.609 496.655 626.633 496.679 626.661C496.656 626.633 496.631 626.61 496.609 626.587ZM494.479 626.551C494.482 626.548 494.485 626.545 494.488 626.542C494.485 626.545 494.482 626.548 494.479 626.551ZM496.534 626.51C496.536 626.511 496.537 626.514 496.539 626.516C496.534 626.511 496.529 626.506 496.523 626.501C496.527 626.504 496.531 626.507 496.534 626.51ZM583.845 626.515C583.847 626.513 583.849 626.511 583.851 626.51C583.854 626.507 583.857 626.504 583.86 626.501C583.855 626.505 583.85 626.51 583.845 626.515ZM496.38 626.388C496.385 626.391 496.389 626.396 496.396 626.4C496.381 626.39 496.37 626.381 496.359 626.374C496.366 626.379 496.373 626.383 496.38 626.388ZM583.989 626.4C583.995 626.396 584 626.391 584.005 626.388C584.011 626.384 584.017 626.379 584.022 626.375C584.013 626.381 584.002 626.391 583.989 626.4Z" stroke="#00A6CC" stroke-width="3"/>
<path d="M307.538 422.547C343.712 408.784 378.055 416.341 408.867 438.905C425.742 452.205 438.778 467.537 449.647 486.079L449.66 486.102L449.674 486.124L452.518 490.61C469.554 518.201 485.017 557.875 483.795 592.154C483.019 597.961 482.5 602.632 482.076 606.365C481.648 610.137 481.323 612.899 480.932 614.942C480.533 617.022 480.108 618.105 479.637 618.699C479.288 619.139 478.83 619.414 477.903 619.53C477.867 619.51 477.823 619.484 477.771 619.45C477.49 619.269 477.11 618.977 476.639 618.578C475.701 617.785 474.557 616.705 473.367 615.582C472.198 614.479 470.984 613.334 469.963 612.476C469.455 612.048 468.954 611.657 468.504 611.371C468.28 611.229 468.031 611.088 467.774 610.984C467.548 610.891 467.167 610.763 466.724 610.801C466.544 610.816 466.205 610.789 465.667 610.687C465.151 610.589 464.573 610.446 463.939 610.29C463.326 610.139 462.66 609.975 462.042 609.859C461.445 609.748 460.767 609.656 460.155 609.706L459.599 609.752L459.208 610.151C459.195 610.164 459.067 610.28 458.615 610.328C458.171 610.376 457.56 610.342 456.784 610.207C455.234 609.937 453.323 609.321 451.332 608.588C449.311 607.843 447.43 607.065 445.713 606.412C444.886 606.098 444.112 605.82 443.456 605.626C442.945 605.475 442.326 605.318 441.767 605.318L441.531 605.328C440.61 605.41 439.959 605.433 439.503 605.412C439.484 605.411 439.464 605.408 439.446 605.407C439.8 604.149 440.74 601.533 439.245 598.287C438.676 596.715 438.107 595.142 437.521 593.522L437.516 593.509L436.816 591.649C429.525 572.444 420.101 553.757 401.014 543.091L400.946 543.054L400.876 543.024L400.277 542.771C387.72 537.564 375.172 538.832 362.701 543.11L362.646 543.13L362.592 543.153C357.14 545.518 353.082 548.31 349.789 551.924C346.509 555.524 344.051 559.87 341.705 565.241L341.683 565.293L341.664 565.345C337.428 577.405 337.408 588.471 338.119 600.731C316.169 601.919 297.622 598.314 280.6 583.313C261.275 564.03 250.945 542.548 250.628 515.289H250.629C250.627 513.612 250.624 511.934 250.622 510.205V510.171L250.501 505.156C250.455 493.208 252.899 483.762 257.655 472.753H257.656L257.661 472.74C258.421 470.935 258.424 470.929 259.194 469.1C267.961 449.03 286.368 431.205 306.574 422.934L307.538 422.547Z" stroke="#00A6CC" stroke-width="3"/>
<path d="M772.848 422.547C736.673 408.784 702.331 416.341 671.519 438.905C654.643 452.205 641.608 467.537 630.738 486.079L630.726 486.102L630.712 486.124L627.868 490.61C610.832 518.201 595.368 557.875 596.591 592.154C597.367 597.961 597.886 602.632 598.31 606.365C598.738 610.137 599.063 612.899 599.454 614.942C599.852 617.022 600.278 618.105 600.749 618.699C601.098 619.139 601.556 619.414 602.482 619.53C602.518 619.51 602.563 619.484 602.615 619.45C602.896 619.269 603.276 618.977 603.747 618.578C604.685 617.785 605.829 616.705 607.019 615.582C608.187 614.479 609.401 613.334 610.423 612.476C610.931 612.048 611.432 611.657 611.882 611.371C612.106 611.229 612.355 611.088 612.611 610.984C612.838 610.891 613.218 610.763 613.662 610.801C613.841 610.816 614.18 610.789 614.719 610.687C615.234 610.589 615.813 610.446 616.446 610.29C617.06 610.139 617.726 609.975 618.344 609.859C618.941 609.748 619.618 609.656 620.23 609.706L620.787 609.752L621.178 610.151C621.191 610.164 621.319 610.28 621.771 610.328C622.215 610.376 622.826 610.342 623.602 610.207C625.151 609.937 627.063 609.321 629.054 608.588C631.075 607.843 632.955 607.065 634.673 606.412C635.5 606.098 636.274 605.82 636.93 605.626C637.441 605.475 638.06 605.318 638.619 605.318L638.854 605.328C639.775 605.41 640.427 605.433 640.883 605.412C640.902 605.411 640.921 605.408 640.939 605.407C640.586 604.149 639.646 601.533 641.141 598.287C641.71 596.715 642.279 595.142 642.865 593.522L642.87 593.509L643.569 591.649C650.861 572.444 660.285 553.757 679.372 543.091L679.439 543.054L679.51 543.024L680.108 542.771C692.665 537.564 705.213 538.832 717.685 543.11L717.74 543.13L717.794 543.153C723.246 545.518 727.303 548.31 730.597 551.924C733.877 555.524 736.335 559.87 738.681 565.241L738.703 565.293L738.722 565.345C742.958 577.405 742.978 588.471 742.267 600.731C764.217 601.919 782.764 598.314 799.786 583.313C819.111 564.03 829.441 542.548 829.758 515.289H829.757C829.759 513.612 829.761 511.934 829.764 510.205V510.171L829.885 505.156C829.93 493.208 827.486 483.762 822.73 472.753H822.729L822.725 472.74C821.964 470.935 821.962 470.929 821.191 469.1C812.424 449.03 794.018 431.205 773.812 422.934L772.848 422.547Z" stroke="#00A6CC" stroke-width="3"/>
<path d="M338.824 673.825C391.166 655.555 441.202 654.725 478.338 658.527C495.123 660.245 509.282 662.912 519.843 665.345C479.347 650.055 438.381 647.455 405.996 649.096C387.177 650.05 371.279 652.436 360.091 654.581C354.498 655.653 350.084 656.665 347.073 657.408C345.567 657.779 344.412 658.083 343.636 658.294C343.499 658.331 343.374 658.367 343.26 658.398L338.824 673.825Z" stroke="#00A6CC" stroke-width="3"/>
<path d="M524.902 661.635C517.653 656.344 507.649 649.953 494.938 643.892C465.726 629.962 422.189 617.758 364.837 624.648L354.38 641.457C354.501 641.421 354.624 641.383 354.75 641.347C357.53 640.535 361.598 639.45 366.773 638.345C377.124 636.134 391.915 633.841 409.708 633.503C441.316 632.902 482.413 638.471 524.902 661.635Z" stroke="#00A6CC" stroke-width="3"/>
<path d="M524.17 651.627C520.036 646.843 514.926 641.639 508.713 636.435C486.839 618.109 451.236 599.706 396.309 599.568L383.518 612.353C383.845 612.334 384.19 612.311 384.553 612.292C387.801 612.123 392.485 611.961 398.248 611.984C409.769 612.031 425.616 612.82 442.917 615.793C470.012 620.449 500.866 630.5 524.17 651.627Z" stroke="#00A6CC" stroke-width="3"/>
<path d="M741.288 673.825C688.948 655.555 638.98 654.726 601.91 658.529C585.225 660.241 571.144 662.893 560.621 665.319C601.075 650.056 641.949 647.46 674.253 649.099C693.037 650.053 708.901 652.436 720.062 654.581C725.643 655.653 730.046 656.665 733.05 657.408C734.552 657.779 735.704 658.083 736.478 658.294C736.614 658.331 736.739 658.367 736.852 658.398L741.288 673.825Z" stroke="#00A6CC" stroke-width="3"/>
<path d="M555.282 661.742C562.519 656.431 572.542 649.994 585.312 643.891C614.454 629.962 657.923 617.758 715.275 624.648L725.729 641.453C725.613 641.419 725.495 641.383 725.375 641.348C722.602 640.536 718.545 639.45 713.381 638.345C703.056 636.134 688.299 633.841 670.541 633.503C638.944 632.901 597.829 638.488 555.282 661.742Z" stroke="#00A6CC" stroke-width="3"/>
<path d="M555.887 651.917C560.047 647.053 565.218 641.744 571.537 636.434C593.342 618.11 628.876 599.706 683.803 599.568L696.594 612.352C696.271 612.333 695.93 612.311 695.571 612.292C692.331 612.123 687.657 611.961 681.907 611.984C670.412 612.031 654.597 612.82 637.33 615.793C610.165 620.471 579.208 630.592 555.887 651.917Z" stroke="#00A6CC" stroke-width="3"/>
</g>
<path d="M457.952 693.899L457.879 693.905C457.71 693.93 457.562 694.041 457.493 694.201C456.366 696.816 455.239 699.431 454.078 702.125C449.01 711.977 443.755 719.669 433.719 724.567C419.44 726.727 405.956 725.117 392.44 720.202L392.371 720.182C392.208 720.149 392.036 720.199 391.916 720.319C388.399 723.836 388.882 727.159 388.623 731.728C388.622 731.74 388.623 731.751 388.623 731.762C388.692 737.129 389.553 741.371 391.273 745.287C392.991 749.196 395.553 752.754 398.979 756.763C398.991 756.777 399.004 756.789 399.017 756.802C408.065 765.348 417.5 767.509 429.465 768.107C429.479 768.108 429.494 768.108 429.509 768.107C444.744 767.531 453.865 761.099 464.059 750.577C464.068 750.567 464.077 750.558 464.085 750.548C477.54 734.274 483.684 715.24 484.725 694.425C484.731 694.288 484.682 694.154 484.588 694.054C484.494 693.955 484.363 693.899 484.226 693.899H457.952Z" fill="url(#paint0_radial_522_167)" stroke="#009CBF" stroke-linejoin="round"/>
<path d="M532.515 693.899C532.78 693.899 532.999 694.106 533.014 694.371C533.123 696.335 533.234 698.299 533.347 700.323L533.985 711.365L534.645 722.405L534.922 727.165C535.013 728.751 535.103 730.337 535.191 731.924V731.925C535.847 744.041 536.174 750.072 536.993 756.026C537.759 761.592 538.957 767.095 541.264 777.442C543.035 768.851 543.874 760.234 544.614 751.445V751.443C544.757 749.806 544.9 748.17 545.047 746.483C545.499 741.287 545.942 736.09 546.385 730.892L547.304 720.283C548.053 711.642 548.795 702.999 549.532 694.356L549.549 694.262C549.609 694.051 549.803 693.899 550.03 693.899H576.303L576.393 693.907C576.595 693.944 576.759 694.103 576.796 694.312C577.553 698.595 577.553 698.596 578.325 702.964C583.886 733.241 591.111 758.781 609.547 783.869C609.655 784.017 609.675 784.212 609.597 784.378C605.701 792.673 600.765 798.097 594.159 804.236C592.649 805.707 591.139 807.178 589.583 808.693L589.578 808.698C572.176 825.14 563.417 833.418 556.96 837.535C553.709 839.607 551.02 840.64 548.095 841.132C545.19 841.619 542.066 841.568 537.98 841.505C537.922 841.504 537.863 841.492 537.809 841.471C512.025 831.561 489.582 808.247 470.852 788.892C470.718 788.754 470.675 788.55 470.742 788.37C473.612 780.648 477.042 773.995 481.463 767.065C495.287 744.144 500.417 720.348 505.752 694.299L505.776 694.215C505.851 694.027 506.034 693.899 506.241 693.899H532.515Z" fill="url(#paint1_radial_522_167)" stroke="#009CBF" stroke-linejoin="round"/>
<path d="M336.235 676.577C336.372 676.705 336.57 676.746 336.747 676.682C389.724 657.596 440.549 656.668 478.135 660.516C496.927 662.44 512.406 665.557 523.184 668.192C528.573 669.51 532.787 670.708 535.652 671.575C537.084 672.008 538.179 672.359 538.916 672.601C539.283 672.722 539.562 672.817 539.748 672.881C539.841 672.912 539.911 672.936 539.958 672.952C539.981 672.96 539.998 672.966 540.009 672.97C540.015 672.972 540.019 672.974 540.022 672.975C540.023 672.976 540.024 672.976 540.025 672.976C540.026 672.976 540.029 672.967 540.193 672.505L540.026 672.976C540.276 673.065 540.551 672.943 540.654 672.699C540.756 672.455 540.65 672.173 540.413 672.056C493.374 649.015 443.745 645.181 405.894 647.099C386.966 648.059 370.976 650.457 359.715 652.616C354.085 653.696 349.636 654.716 346.594 655.467C345.073 655.842 343.903 656.149 343.113 656.363C342.718 656.47 342.418 656.554 342.216 656.611C342.116 656.64 342.039 656.662 341.988 656.677C341.962 656.684 341.942 656.689 341.929 656.693C341.923 656.695 341.918 656.697 341.915 656.698C341.913 656.698 341.911 656.699 341.911 656.699L342.05 657.179L341.909 656.699C341.745 656.747 341.617 656.877 341.57 657.041L336.096 676.073C336.044 676.253 336.098 676.449 336.235 676.577Z" fill="#133466" stroke="#009CBF" stroke-linejoin="round"/>
<path d="M539.92 672.924C540.132 673.062 540.415 673.02 540.577 672.825C540.739 672.63 540.73 672.345 540.556 672.161L540.193 672.505L540.555 672.16C540.554 672.16 540.554 672.158 540.553 672.157C540.551 672.155 540.547 672.152 540.543 672.147C540.535 672.139 540.524 672.127 540.509 672.111C540.478 672.08 540.434 672.033 540.374 671.973C540.255 671.851 540.076 671.671 539.839 671.438C539.365 670.973 538.657 670.293 537.716 669.435C535.833 667.718 533.017 665.284 529.276 662.41C521.795 656.662 510.613 649.15 495.799 642.086C466.166 627.956 422.009 615.619 363.884 622.747C363.734 622.766 363.6 622.85 363.521 622.979L350.534 643.853C350.422 644.033 350.437 644.265 350.57 644.431C350.704 644.596 350.929 644.659 351.129 644.587L351.132 644.586C351.134 644.585 351.138 644.583 351.144 644.581C351.154 644.577 351.171 644.571 351.193 644.563C351.238 644.548 351.305 644.525 351.394 644.494C351.571 644.433 351.838 644.343 352.189 644.228C352.894 643.997 353.942 643.666 355.311 643.267C358.048 642.468 362.068 641.395 367.191 640.301C377.44 638.112 392.102 635.837 409.746 635.502C445.032 634.831 492.236 641.913 539.92 672.924Z" fill="#D2E6F5" stroke="#009CBF" stroke-linejoin="round"/>
<path d="M539.776 672.781C539.92 672.998 540.205 673.068 540.433 672.943C540.661 672.818 540.755 672.538 540.649 672.301L540.193 672.505L540.649 672.3C540.649 672.299 540.648 672.298 540.647 672.297C540.646 672.294 540.644 672.29 540.642 672.285C540.638 672.275 540.631 672.262 540.623 672.243C540.605 672.206 540.58 672.15 540.546 672.078C540.479 671.934 540.377 671.722 540.241 671.446C539.967 670.895 539.552 670.089 538.986 669.064C537.853 667.015 536.112 664.093 533.675 660.588C528.802 653.579 521.144 644.239 509.998 634.901C487.698 616.219 451.46 597.564 395.691 597.564C395.558 597.564 395.431 597.617 395.337 597.711L379.263 613.777C379.114 613.927 379.075 614.153 379.165 614.344C379.255 614.535 379.455 614.648 379.665 614.628L379.617 614.131C379.661 614.588 379.665 614.625 379.666 614.628C379.666 614.628 379.668 614.628 379.669 614.628C379.673 614.628 379.678 614.627 379.684 614.626C379.698 614.625 379.718 614.624 379.746 614.621C379.8 614.616 379.882 614.608 379.99 614.599C380.206 614.58 380.529 614.553 380.953 614.521C381.8 614.458 383.049 614.373 384.657 614.289C387.872 614.122 392.519 613.961 398.24 613.984C409.682 614.031 425.416 614.814 442.58 617.764C476.928 623.667 516.902 638.225 539.776 672.781Z" fill="white" stroke="#009CBF" stroke-linejoin="round"/>
<path d="M743.877 676.577C743.74 676.705 743.542 676.746 743.365 676.682C690.388 657.596 639.632 656.669 602.114 660.518C583.356 662.443 567.911 665.56 557.158 668.196C551.782 669.514 547.58 670.712 544.723 671.579C543.294 672.012 542.201 672.363 541.467 672.605C541.1 672.726 540.822 672.821 540.637 672.885C540.544 672.916 540.475 672.941 540.429 672.957C540.406 672.965 540.388 672.97 540.377 672.974C540.371 672.976 540.367 672.978 540.364 672.979C540.363 672.98 540.362 672.98 540.361 672.98C540.361 672.98 540.36 672.981 540.195 672.516L540.192 672.51L540.36 672.98C540.111 673.069 539.835 672.947 539.732 672.703C539.63 672.459 539.735 672.177 539.973 672.06C587.011 649.019 636.572 645.184 674.354 647.101C693.248 648.06 709.205 650.458 720.439 652.617C726.057 653.696 730.495 654.716 733.529 655.467C735.047 655.842 736.214 656.15 737.002 656.364C737.396 656.471 737.695 656.554 737.896 656.611C737.997 656.64 738.074 656.662 738.125 656.677C738.15 656.684 738.17 656.689 738.183 656.693C738.189 656.695 738.194 656.697 738.197 656.698C738.199 656.698 738.2 656.699 738.201 656.699L738.062 657.179L738.203 656.7C738.367 656.748 738.495 656.877 738.542 657.041L744.016 676.073C744.068 676.253 744.014 676.449 743.877 676.577Z" fill="#133466" stroke="#009CBF" stroke-linejoin="round"/>
<path d="M540.465 672.924C540.253 673.062 539.971 673.019 539.809 672.825C539.647 672.631 539.655 672.346 539.829 672.162L540.193 672.505C539.829 672.162 539.829 672.161 539.83 672.16C539.83 672.16 539.832 672.159 539.833 672.158C539.835 672.156 539.837 672.153 539.841 672.148C539.849 672.14 539.86 672.128 539.875 672.112C539.906 672.081 539.951 672.034 540.01 671.974C540.129 671.852 540.307 671.672 540.542 671.439C541.014 670.974 541.719 670.294 542.657 669.436C544.532 667.718 547.337 665.284 551.065 662.41C558.521 656.662 569.669 649.15 584.45 642.086C614.014 627.956 658.103 615.619 716.228 622.747C716.378 622.766 716.511 622.85 716.591 622.979L729.578 643.853C729.69 644.033 729.675 644.265 729.542 644.431C729.407 644.596 729.183 644.659 728.983 644.587L728.982 644.586L728.967 644.581C728.957 644.577 728.94 644.571 728.918 644.563C728.874 644.548 728.808 644.525 728.719 644.494C728.542 644.433 728.276 644.343 727.924 644.228C727.222 643.997 726.177 643.666 724.813 643.267C722.084 642.468 718.074 641.395 712.963 640.301C702.741 638.112 688.112 635.837 670.502 635.502C635.285 634.831 588.149 641.913 540.465 672.924Z" fill="#D2E6F5" stroke="#009CBF" stroke-linejoin="round"/>
<path d="M540.609 672.781C540.466 672.998 540.181 673.068 539.953 672.943C539.725 672.819 539.63 672.54 539.735 672.303L540.193 672.505C539.736 672.303 539.736 672.302 539.736 672.301C539.737 672.3 539.737 672.299 539.737 672.298C539.738 672.295 539.741 672.292 539.743 672.287C539.748 672.277 539.753 672.263 539.762 672.244C539.779 672.207 539.804 672.152 539.838 672.08C539.905 671.936 540.006 671.724 540.142 671.448C540.413 670.897 540.824 670.09 541.387 669.065C542.512 667.016 544.243 664.094 546.667 660.589C551.515 653.58 559.138 644.24 570.25 634.902C592.482 616.22 628.652 597.564 684.421 597.564C684.553 597.564 684.681 597.617 684.774 597.711L700.849 613.777C700.998 613.927 701.037 614.153 700.947 614.344C700.857 614.535 700.657 614.648 700.447 614.628L700.495 614.131C700.451 614.587 700.447 614.625 700.446 614.628C700.445 614.628 700.444 614.628 700.442 614.628C700.439 614.628 700.434 614.627 700.428 614.626C700.414 614.625 700.393 614.624 700.366 614.621C700.312 614.616 700.231 614.608 700.123 614.599C699.907 614.58 699.585 614.553 699.162 614.521C698.317 614.458 697.071 614.373 695.467 614.289C692.259 614.122 687.623 613.961 681.915 613.984C670.498 614.031 654.8 614.814 637.67 617.764C603.39 623.667 563.483 638.225 540.609 672.781Z" fill="white" stroke="#009CBF" stroke-linejoin="round"/>
<path d="M495.255 628.041C495.263 628.046 495.269 628.05 495.271 628.051C495.267 628.049 495.259 628.044 495.251 628.038C495.252 628.039 495.254 628.04 495.255 628.041ZM495.216 628.013C495.221 628.017 495.226 628.02 495.23 628.023C495.225 628.019 495.218 628.014 495.21 628.007C495.213 628.01 495.215 628.012 495.216 628.013ZM495.038 627.721C495.039 627.725 495.04 627.729 495.041 627.732C495.039 627.724 495.038 627.714 495.036 627.705C495.037 627.71 495.037 627.716 495.038 627.721ZM496.024 627.667C496.025 627.664 496.026 627.66 496.026 627.656C496.027 627.652 496.025 627.648 496.025 627.644C496.025 627.651 496.025 627.659 496.024 627.667ZM538.146 363.797C538.146 372.583 537.413 378.944 536.673 386.832C536.241 391.853 536.299 396.875 536.437 401.922C536.574 406.962 536.791 412.037 536.675 417.122V417.123C536.639 418.533 536.621 419.239 536.603 419.951C536.584 420.663 536.566 421.383 536.529 422.821L536.083 441.247C535.977 445.534 535.869 449.823 535.762 454.11C535.51 464.195 535.264 474.281 535.021 484.366C534.742 495.861 534.459 507.357 534.174 518.852C533.588 542.469 533.01 566.088 532.438 589.706C532.437 589.712 532.437 589.719 532.437 589.725C531.09 611.982 528.826 625.633 526.17 633.728C524.842 637.773 523.404 640.471 521.901 642.16C520.387 643.863 518.793 644.555 517.201 644.542V644.543H517.199V644.542C517.062 644.541 516.942 644.496 516.865 644.463C516.778 644.425 516.687 644.375 516.597 644.32C516.416 644.21 516.201 644.057 515.962 643.873C515.482 643.503 514.866 642.981 514.164 642.363C512.76 641.127 510.984 639.48 509.214 637.841C507.441 636.198 505.673 634.562 504.276 633.336C503.577 632.722 502.978 632.218 502.521 631.869C502.292 631.694 502.109 631.565 501.972 631.482C501.903 631.441 501.855 631.417 501.826 631.404C501.824 631.403 501.821 631.402 501.819 631.401C501.59 631.388 501.36 631.309 501.155 631.216C500.926 631.111 500.682 630.969 500.435 630.809C499.941 630.489 499.386 630.067 498.852 629.662C498.308 629.25 497.784 628.854 497.325 628.56C497.096 628.413 496.895 628.299 496.726 628.223C496.548 628.143 496.444 628.123 496.398 628.122V628.121C495.956 628.118 495.738 628.119 495.633 628.119C495.612 628.119 495.596 628.119 495.585 628.119C495.576 628.12 495.569 628.122 495.567 628.122C495.555 628.123 495.544 628.123 495.537 628.123C495.512 628.124 495.475 628.125 495.42 628.125C495.304 628.125 495.075 628.125 494.622 628.122C494.199 628.119 493.907 627.842 493.723 627.562C493.536 627.279 493.392 626.9 493.276 626.472C493.042 625.607 492.881 624.394 492.769 622.956C492.544 620.071 492.511 616.169 492.546 612.075C492.581 607.982 492.686 603.667 492.738 599.975C492.791 596.264 492.791 593.197 492.623 591.547C492.069 586.094 491.871 582.014 491.39 576.805L491.183 575.083C486.636 538.963 469.376 504.835 454.045 472.146L454.041 472.139C450.968 465.292 448.337 458.299 445.733 451.281L445.12 449.679C443.673 445.95 442.122 442.29 440.528 438.604C440.526 438.6 440.523 438.595 440.521 438.59C428.983 409.327 425.911 376.357 437.683 346.572L437.69 346.553C444.196 331.918 450.873 317.295 462.023 305.496L463.33 304.092C464.627 302.679 465.891 301.239 467.093 299.752H467.094C473.271 292.134 480.008 286.383 487.839 280.599C490.286 278.751 492.733 276.903 495.179 275.054L495.181 275.053C495.789 274.596 496.397 274.138 497.01 273.678C497.622 273.217 498.24 272.753 498.866 272.282L501.56 270.232C515.487 259.547 535.758 242.727 539.839 238.646C539.982 238.504 540.197 238.461 540.384 238.538C540.571 238.615 540.692 238.798 540.692 239V339.713C540.692 339.845 540.64 339.973 540.546 340.066C540.05 340.562 539.529 341.352 539.132 342.154C538.935 342.552 538.774 342.942 538.664 343.286C538.579 343.551 538.53 343.771 538.512 343.938L538.503 344.088C538.52 346.392 538.425 348.544 538.329 350.683C538.233 352.823 538.136 354.95 538.146 357.225L538.15 358.684C538.15 359.248 538.148 359.872 538.146 360.496C538.143 361.747 538.14 363 538.146 363.793V363.797Z" fill="white" stroke="#009CBF" stroke-linejoin="round"/>
<path d="M585.131 628.041C585.123 628.046 585.116 628.05 585.115 628.051C585.119 628.049 585.127 628.044 585.135 628.038C585.133 628.039 585.132 628.04 585.131 628.041ZM585.17 628.013C585.165 628.017 585.16 628.02 585.155 628.023C585.161 628.019 585.168 628.014 585.176 628.007C585.172 628.01 585.171 628.012 585.17 628.013ZM585.348 627.721C585.347 627.725 585.346 627.729 585.345 627.732C585.347 627.724 585.348 627.714 585.35 627.705C585.349 627.71 585.349 627.716 585.348 627.721ZM584.361 627.667C584.361 627.664 584.36 627.66 584.359 627.656C584.359 627.652 584.361 627.648 584.36 627.644C584.361 627.651 584.361 627.659 584.361 627.667ZM542.239 363.797C542.239 372.583 542.973 378.944 543.713 386.832C544.145 391.853 544.087 396.875 543.949 401.922C543.812 406.962 543.594 412.037 543.711 417.122V417.123C543.747 418.533 543.765 419.239 543.783 419.951C543.801 420.663 543.82 421.383 543.856 422.821L544.303 441.247C544.409 445.534 544.517 449.823 544.624 454.11C544.876 464.195 545.122 474.281 545.365 484.366C545.643 495.861 545.927 507.357 546.212 518.852C546.797 542.469 547.376 566.088 547.948 589.706C547.948 589.712 547.949 589.719 547.949 589.725C549.296 611.982 551.56 625.633 554.216 633.728C555.544 637.773 556.982 640.471 558.484 642.16C559.999 643.863 561.593 644.555 563.185 644.542V644.543H563.187V644.542C563.323 644.541 563.444 644.496 563.521 644.463C563.608 644.425 563.699 644.375 563.789 644.32C563.969 644.21 564.185 644.057 564.424 643.873C564.904 643.503 565.52 642.981 566.222 642.363C567.626 641.127 569.402 639.48 571.172 637.841C572.945 636.198 574.713 634.562 576.109 633.336C576.809 632.722 577.408 632.218 577.864 631.869C578.093 631.694 578.277 631.565 578.414 631.482C578.483 631.441 578.53 631.417 578.56 631.404C578.562 631.403 578.564 631.402 578.566 631.401C578.796 631.388 579.026 631.309 579.23 631.216C579.459 631.111 579.704 630.969 579.951 630.809C580.445 630.489 581 630.067 581.534 629.662C582.077 629.25 582.601 628.854 583.061 628.56C583.29 628.413 583.491 628.299 583.66 628.223C583.838 628.143 583.941 628.123 583.987 628.122V628.121C584.43 628.118 584.647 628.119 584.753 628.119C584.774 628.119 584.79 628.119 584.801 628.119C584.81 628.12 584.816 628.122 584.818 628.122C584.831 628.123 584.842 628.123 584.849 628.123C584.873 628.124 584.911 628.125 584.966 628.125C585.081 628.125 585.311 628.125 585.764 628.122C586.186 628.119 586.479 627.842 586.663 627.562C586.85 627.279 586.993 626.9 587.109 626.472C587.343 625.607 587.505 624.394 587.617 622.956C587.842 620.071 587.875 616.169 587.84 612.075C587.805 607.982 587.7 603.667 587.647 599.975C587.595 596.264 587.595 593.197 587.763 591.547C588.317 586.094 588.515 582.014 588.996 576.805L589.203 575.083C593.75 538.963 611.009 504.835 626.341 472.146L626.345 472.139C629.418 465.292 632.048 458.299 634.652 451.281L635.266 449.679C636.713 445.95 638.263 442.29 639.857 438.604C639.86 438.6 639.862 438.595 639.864 438.59C651.403 409.327 654.475 376.357 642.703 346.572L642.695 346.553C636.19 331.918 629.513 317.295 618.362 305.496L617.056 304.092C615.758 302.679 614.494 301.239 613.293 299.752H613.292C607.115 292.134 600.377 286.383 592.547 280.599C590.1 278.751 587.653 276.903 585.207 275.054L585.205 275.053C584.597 274.596 583.989 274.138 583.376 273.678C582.763 273.217 582.146 272.753 581.52 272.282L578.826 270.232C564.899 259.547 544.628 242.727 540.547 238.646C540.404 238.504 540.189 238.461 540.002 238.538C539.815 238.615 539.693 238.798 539.693 239V339.713C539.693 339.845 539.746 339.973 539.84 340.066C540.335 340.562 540.856 341.352 541.254 342.154C541.451 342.552 541.611 342.942 541.722 343.286C541.806 343.551 541.856 343.771 541.874 343.938L541.883 344.088C541.866 346.392 541.961 348.544 542.057 350.683C542.153 352.823 542.249 354.95 542.239 357.225L542.235 358.684C542.236 359.248 542.238 359.872 542.239 360.496C542.243 361.747 542.246 363 542.239 363.793V363.797Z" fill="white" stroke="#009CBF" stroke-linejoin="round"/>
<path d="M306.812 420.684C343.165 406.846 377.705 414.164 408.598 436.242L410.066 437.304L410.08 437.315C427.171 450.779 440.373 466.308 451.363 485.053L454.207 489.539L454.21 489.544C471.37 517.329 487.057 557.441 485.793 592.289C485.792 592.305 485.791 592.321 485.789 592.337C485.01 598.158 484.49 602.837 484.063 606.591C483.638 610.338 483.304 613.183 482.896 615.317C482.49 617.437 481.998 618.94 481.204 619.942C480.379 620.982 479.28 621.423 477.839 621.551L477.84 621.552C477.626 621.572 477.417 621.508 477.249 621.438C477.071 621.363 476.881 621.256 476.687 621.131C476.297 620.88 475.84 620.522 475.347 620.105C474.358 619.268 473.169 618.146 471.994 617.037C470.812 615.922 469.644 614.82 468.676 614.006C468.191 613.598 467.769 613.274 467.43 613.059C467.26 612.951 467.123 612.878 467.019 612.835C466.904 612.788 466.872 612.796 466.894 612.794H466.889C466.426 612.832 465.865 612.76 465.294 612.651C464.715 612.541 464.08 612.385 463.461 612.233C462.836 612.079 462.226 611.929 461.674 611.825C461.198 611.736 460.793 611.69 460.478 611.694C460.033 612.065 459.455 612.249 458.83 612.317C458.126 612.392 457.31 612.329 456.441 612.178C454.703 611.875 452.65 611.205 450.641 610.465C448.641 609.728 446.613 608.894 445.002 608.281C444.186 607.971 443.47 607.715 442.89 607.544C442.285 607.366 441.903 607.303 441.715 607.32H441.713C440.755 607.406 439.999 607.437 439.412 607.41C438.836 607.384 438.366 607.301 438.017 607.117C437.628 606.913 437.409 606.593 437.347 606.2C437.292 605.856 437.362 605.481 437.447 605.138C437.799 603.721 438.67 601.76 437.402 599.066C437.396 599.052 437.39 599.037 437.385 599.023C436.809 597.432 436.233 595.841 435.64 594.202V594.201C428.266 574.404 419.07 555.482 400.059 544.849C387.93 539.629 375.745 540.754 363.376 544.993C358.139 547.266 354.334 549.906 351.268 553.272C348.198 556.64 345.845 560.758 343.545 566.022C339.282 578.167 339.411 589.298 340.204 602.112C340.221 602.388 340.013 602.625 339.737 602.643C316.808 604.096 297.197 600.621 279.246 584.785C279.239 584.779 279.231 584.772 279.224 584.765C259.552 565.151 248.949 543.17 248.629 515.297L248.628 515.292L248.629 515.291C248.627 513.618 248.624 511.944 248.622 510.22L248.501 505.174V505.164C248.456 493.263 250.826 483.769 255.373 473.005L255.819 471.96C256.581 470.153 256.582 470.151 257.359 468.305L257.361 468.299C266.481 447.423 285.733 428.971 306.807 420.686L306.812 420.684Z" fill="white" stroke="#009CBF" stroke-linejoin="round"/>
<path d="M773.574 420.684C737.221 406.846 702.681 414.164 671.788 436.242L670.319 437.304L670.306 437.315C653.215 450.779 640.013 466.308 629.022 485.053L626.179 489.539L626.176 489.544C609.016 517.329 593.329 557.441 594.593 592.289C594.593 592.305 594.595 592.321 594.597 592.337C595.376 598.158 595.896 602.837 596.322 606.591C596.748 610.338 597.082 613.183 597.49 615.317C597.896 617.437 598.388 618.94 599.182 619.942C600.006 620.982 601.106 621.423 602.547 621.551L602.546 621.552C602.76 621.572 602.969 621.508 603.137 621.438C603.315 621.363 603.505 621.256 603.699 621.131C604.089 620.88 604.546 620.522 605.039 620.105C606.028 619.268 607.217 618.146 608.392 617.037C609.574 615.922 610.742 614.82 611.71 614.006C612.195 613.598 612.617 613.274 612.956 613.059C613.126 612.951 613.262 612.878 613.367 612.835C613.481 612.788 613.514 612.796 613.492 612.794H613.497C613.96 612.832 614.521 612.76 615.092 612.651C615.671 612.541 616.306 612.385 616.925 612.233C617.55 612.079 618.159 611.929 618.712 611.825C619.188 611.736 619.592 611.69 619.908 611.694C620.352 612.065 620.93 612.249 621.556 612.317C622.26 612.392 623.076 612.329 623.944 612.178C625.682 611.875 627.736 611.205 629.745 610.465C631.744 609.728 633.773 608.894 635.384 608.281C636.2 607.971 636.916 607.715 637.496 607.544C638.1 607.366 638.483 607.303 638.671 607.32H638.673C639.631 607.406 640.386 607.437 640.974 607.41C641.55 607.384 642.019 607.301 642.369 607.117C642.758 606.913 642.976 606.593 643.039 606.2C643.094 605.856 643.024 605.481 642.938 605.138C642.587 603.721 641.716 601.76 642.983 599.066C642.99 599.052 642.996 599.037 643.001 599.023C643.577 597.432 644.153 595.841 644.746 594.202V594.201C652.12 574.404 661.316 555.482 680.327 544.849C692.456 539.629 704.64 540.754 717.01 544.993C722.247 547.266 726.052 549.906 729.118 553.272C732.187 556.64 734.541 560.758 736.841 566.022C741.104 578.167 740.975 589.298 740.182 602.112C740.165 602.388 740.373 602.625 740.648 602.643C763.578 604.096 783.189 600.621 801.14 584.785C801.147 584.779 801.155 584.772 801.162 584.765C820.833 565.151 831.437 543.17 831.757 515.297L831.758 515.292L831.757 515.291C831.759 513.618 831.762 511.944 831.764 510.22L831.885 505.174V505.164C831.93 493.263 829.56 483.769 825.013 473.005L824.566 471.96C823.805 470.153 823.804 470.151 823.026 468.305L823.024 468.299C813.905 447.423 794.653 428.971 773.579 420.686L773.574 420.684Z" fill="white" stroke="#009CBF" stroke-linejoin="round"/>
<path d="M621.202 695.319L621.275 695.325C621.445 695.35 621.592 695.46 621.661 695.621C622.788 698.235 623.915 700.851 625.076 703.544C630.144 713.397 635.399 721.089 645.436 725.987C659.714 728.147 673.198 726.536 686.714 721.622L686.783 721.602C686.946 721.568 687.118 721.619 687.238 721.739C690.755 725.256 690.273 728.579 690.531 733.148C690.532 733.159 690.531 733.171 690.531 733.182C690.463 738.549 689.601 742.791 687.881 746.707C686.163 750.616 683.601 754.173 680.175 758.183C680.163 758.197 680.151 758.209 680.138 758.221C671.09 766.768 661.654 768.929 649.689 769.527C649.675 769.528 649.66 769.527 649.646 769.527C634.41 768.951 625.289 762.519 615.096 751.997C615.087 751.987 615.078 751.977 615.069 751.967C601.614 735.693 595.471 716.66 594.43 695.844C594.423 695.707 594.472 695.573 594.566 695.474C594.661 695.375 594.792 695.319 594.929 695.319H621.202Z" fill="url(#paint2_radial_522_167)" stroke="#009CBF" stroke-linejoin="round"/>
<path d="M495.255 628.041C495.263 628.046 495.269 628.05 495.271 628.051C495.267 628.049 495.259 628.044 495.251 628.038C495.252 628.039 495.254 628.04 495.255 628.041ZM495.216 628.013C495.221 628.017 495.226 628.02 495.23 628.023C495.225 628.019 495.218 628.014 495.21 628.007C495.213 628.01 495.215 628.012 495.216 628.013ZM585.154 628.023C585.159 628.02 585.164 628.017 585.169 628.013C585.17 628.012 585.171 628.009 585.175 628.006C585.166 628.013 585.16 628.019 585.154 628.023ZM495.038 627.721C495.039 627.725 495.04 627.729 495.041 627.732C495.039 627.724 495.038 627.714 495.036 627.705C495.037 627.71 495.037 627.716 495.038 627.721ZM496.024 627.667C496.025 627.664 496.026 627.66 496.026 627.656C496.027 627.652 496.025 627.648 496.025 627.644C496.025 627.651 496.025 627.659 496.024 627.667ZM585.354 627.64C585.355 627.634 585.355 627.628 585.355 627.622C585.355 627.628 585.355 627.634 585.354 627.64ZM538.146 363.797C538.146 372.583 537.413 378.944 536.673 386.832C536.241 391.853 536.299 396.875 536.437 401.922C536.574 406.962 536.791 412.037 536.675 417.122V417.123C536.639 418.533 536.621 419.239 536.603 419.951C536.584 420.663 536.566 421.383 536.529 422.821L536.083 441.247C535.977 445.534 535.869 449.823 535.762 454.11C535.51 464.195 535.264 474.281 535.021 484.366C534.742 495.861 534.459 507.357 534.174 518.852C533.588 542.469 533.01 566.088 532.438 589.706C532.437 589.712 532.437 589.719 532.437 589.725C531.09 611.982 528.826 625.633 526.17 633.728C524.842 637.773 523.404 640.471 521.901 642.16C520.387 643.863 518.793 644.555 517.201 644.542V644.543H517.199V644.542C517.062 644.541 516.942 644.496 516.865 644.463C516.778 644.425 516.687 644.375 516.597 644.32C516.416 644.21 516.201 644.057 515.962 643.873C515.482 643.503 514.866 642.981 514.164 642.363C512.76 641.127 510.984 639.48 509.214 637.841C507.441 636.198 505.673 634.562 504.276 633.336C503.577 632.722 502.978 632.218 502.521 631.869C502.292 631.694 502.109 631.565 501.972 631.482C501.903 631.441 501.855 631.417 501.826 631.404C501.824 631.403 501.821 631.402 501.819 631.401C501.59 631.388 501.36 631.309 501.155 631.216C500.926 631.111 500.682 630.969 500.435 630.809C499.941 630.489 499.386 630.067 498.852 629.662C498.308 629.25 497.784 628.854 497.325 628.56C497.096 628.413 496.895 628.299 496.726 628.223C496.548 628.143 496.444 628.123 496.398 628.122V628.121C495.956 628.118 495.738 628.119 495.633 628.119C495.612 628.119 495.596 628.119 495.585 628.119C495.576 628.12 495.569 628.122 495.567 628.122C495.555 628.123 495.544 628.123 495.537 628.123C495.512 628.124 495.475 628.125 495.42 628.125C495.304 628.125 495.075 628.125 494.622 628.122C494.199 628.119 493.907 627.842 493.723 627.562C493.536 627.279 493.392 626.9 493.276 626.472C493.042 625.607 492.881 624.394 492.769 622.956C492.544 620.071 492.511 616.169 492.546 612.075C492.581 607.982 492.686 603.667 492.738 599.975C492.791 596.264 492.791 593.197 492.623 591.547C492.069 586.094 491.871 582.014 491.39 576.805L491.183 575.083C486.636 538.963 469.376 504.835 454.045 472.146L454.041 472.139C450.968 465.292 448.337 458.299 445.733 451.281L445.12 449.679C443.673 445.95 442.122 442.29 440.528 438.604C440.526 438.6 440.523 438.595 440.521 438.59C428.983 409.327 425.911 376.357 437.683 346.572L437.69 346.553C444.196 331.918 450.873 317.295 462.023 305.496L463.33 304.092C464.627 302.679 465.891 301.239 467.093 299.752H467.094C473.271 292.134 480.008 286.383 487.839 280.599C490.286 278.751 492.733 276.903 495.179 275.054L495.181 275.053C495.789 274.596 496.397 274.138 497.01 273.678C497.622 273.217 498.24 272.753 498.866 272.282L501.56 270.232C515.487 259.547 535.758 242.727 539.839 238.646C540.034 238.451 540.351 238.451 540.546 238.646C544.898 242.999 567.673 261.846 581.52 272.282H581.519C582.145 272.753 582.763 273.217 583.376 273.678L585.205 275.053L585.206 275.054C587.652 276.903 590.099 278.751 592.546 280.599C600.376 286.383 607.114 292.134 613.291 299.752H613.292C614.894 301.735 616.608 303.633 618.362 305.496H618.361C629.512 317.295 636.189 331.918 642.694 346.553C642.697 346.559 642.701 346.566 642.703 346.572C654.475 376.357 651.402 409.327 639.863 438.59C639.861 438.595 639.86 438.6 639.857 438.604C638.036 442.817 636.27 446.995 634.651 451.281C632.047 458.299 629.417 465.292 626.344 472.139L626.341 472.146C610.768 505.352 593.203 540.04 588.996 576.793C588.514 582.007 588.317 586.09 587.763 591.547C587.595 593.197 587.595 596.264 587.647 599.975C587.7 603.667 587.805 607.982 587.84 612.075C587.875 616.169 587.842 620.071 587.617 622.956C587.505 624.394 587.343 625.607 587.109 626.472C586.993 626.9 586.85 627.279 586.663 627.562C586.479 627.842 586.185 628.119 585.763 628.122C585.309 628.125 585.08 628.125 584.965 628.125C584.91 628.125 584.872 628.124 584.848 628.123C584.841 628.123 584.83 628.123 584.818 628.122C584.817 628.122 584.81 628.12 584.801 628.119C584.79 628.119 584.774 628.119 584.753 628.119C584.647 628.119 584.43 628.118 583.986 628.121C583.94 628.122 583.836 628.143 583.659 628.223C583.49 628.299 583.288 628.413 583.06 628.56C582.6 628.854 582.076 629.25 581.533 629.662C580.999 630.067 580.445 630.489 579.951 630.809C579.704 630.969 579.459 631.111 579.23 631.216C579.025 631.31 578.794 631.388 578.564 631.401C578.583 631.398 578.583 631.394 578.559 631.404C578.529 631.417 578.482 631.441 578.413 631.482C578.276 631.565 578.092 631.694 577.863 631.869C577.407 632.218 576.808 632.722 576.109 633.336C574.713 634.562 572.945 636.198 571.172 637.841C569.402 639.48 567.626 641.127 566.222 642.363C565.52 642.981 564.903 643.503 564.423 643.873C564.184 644.057 563.968 644.21 563.788 644.32C563.698 644.375 563.608 644.425 563.521 644.463C563.444 644.496 563.322 644.541 563.185 644.542V644.543L563.184 644.542C561.592 644.555 559.999 643.863 558.484 642.16C556.982 640.471 555.544 637.773 554.216 633.728C551.559 625.633 549.295 611.982 547.948 589.725C547.948 589.719 547.948 589.712 547.948 589.706C547.376 566.088 546.797 542.469 546.212 518.852C545.927 507.357 545.643 495.861 545.365 484.366C545.122 474.281 544.875 464.195 544.623 454.11L544.303 441.247C544.156 435.105 544.01 428.963 543.855 422.821C543.819 421.383 543.801 420.663 543.782 419.951C543.764 419.239 543.746 418.533 543.71 417.123V417.122C543.593 412.037 543.812 406.962 543.949 401.922C544.087 396.875 544.144 391.853 543.712 386.832C542.972 378.944 542.239 372.583 542.239 363.797V363.793C542.246 363 542.243 361.747 542.239 360.496C542.236 359.249 542.232 358.002 542.239 357.225C542.249 354.95 542.152 352.823 542.056 350.683C541.96 348.544 541.865 346.392 541.882 344.088L541.873 343.938C541.855 343.771 541.806 343.551 541.722 343.286C541.611 342.942 541.45 342.552 541.253 342.154C540.949 341.541 540.574 340.936 540.192 340.464C539.811 340.936 539.435 341.541 539.132 342.154C538.935 342.552 538.774 342.942 538.664 343.286C538.579 343.551 538.53 343.771 538.512 343.938L538.503 344.088C538.52 346.392 538.425 348.544 538.329 350.683C538.233 352.823 538.136 354.95 538.146 357.225L538.15 358.684C538.15 359.248 538.148 359.872 538.146 360.496C538.143 361.747 538.14 363 538.146 363.793V363.797Z" fill="url(#paint3_radial_522_167)" stroke="#009CBF" stroke-linejoin="round"/>
<path d="M306.812 420.684C343.165 406.846 377.705 414.164 408.598 436.242L410.066 437.304L410.08 437.315C427.171 450.779 440.373 466.308 451.363 485.053L454.207 489.539L454.21 489.544C471.37 517.329 487.057 557.441 485.793 592.289C485.792 592.305 485.791 592.321 485.789 592.337C485.01 598.158 484.49 602.837 484.063 606.591C483.638 610.338 483.304 613.183 482.896 615.317C482.49 617.437 481.998 618.94 481.204 619.942C480.379 620.982 479.28 621.423 477.839 621.551L477.84 621.552C477.626 621.572 477.417 621.508 477.249 621.438C477.071 621.363 476.881 621.256 476.687 621.131C476.297 620.88 475.84 620.522 475.347 620.105C474.358 619.268 473.169 618.146 471.994 617.037C470.812 615.922 469.644 614.82 468.676 614.006C468.191 613.598 467.769 613.274 467.43 613.059C467.26 612.951 467.123 612.878 467.019 612.835C466.904 612.788 466.872 612.796 466.894 612.794H466.889C466.426 612.832 465.865 612.76 465.294 612.651C464.715 612.541 464.08 612.385 463.461 612.233C462.836 612.079 462.226 611.929 461.674 611.825C461.198 611.736 460.793 611.69 460.478 611.694C460.033 612.065 459.455 612.249 458.83 612.317C458.126 612.392 457.31 612.329 456.441 612.178C454.703 611.875 452.65 611.205 450.641 610.465C448.641 609.728 446.613 608.894 445.002 608.281C444.186 607.971 443.47 607.715 442.89 607.544C442.285 607.366 441.903 607.303 441.715 607.32H441.713C440.755 607.406 439.999 607.437 439.412 607.41C438.836 607.384 438.366 607.301 438.017 607.117C437.628 606.913 437.409 606.593 437.347 606.2C437.292 605.856 437.362 605.481 437.447 605.138C437.799 603.721 438.67 601.76 437.402 599.066C437.396 599.052 437.39 599.037 437.385 599.023C436.809 597.432 436.233 595.841 435.64 594.202V594.201C428.266 574.404 419.07 555.482 400.059 544.849C387.93 539.629 375.745 540.754 363.376 544.993C358.139 547.266 354.334 549.906 351.268 553.272C348.198 556.64 345.845 560.758 343.545 566.022C339.282 578.167 339.411 589.298 340.204 602.112C340.221 602.388 340.013 602.625 339.737 602.643C316.808 604.096 297.197 600.621 279.246 584.785C279.239 584.779 279.231 584.772 279.224 584.765C259.552 565.151 248.949 543.17 248.629 515.297L248.628 515.292L248.629 515.291C248.627 513.618 248.624 511.944 248.622 510.22L248.501 505.174V505.164C248.456 493.263 250.826 483.769 255.373 473.005L255.819 471.96C256.581 470.153 256.582 470.151 257.359 468.305L257.361 468.299C266.481 447.423 285.733 428.971 306.807 420.686L306.812 420.684Z" fill="url(#paint4_radial_522_167)" stroke="#009CBF" stroke-linejoin="round"/>
<path d="M773.574 420.684C737.221 406.846 702.681 414.164 671.788 436.242L670.319 437.304L670.306 437.315C653.215 450.779 640.013 466.308 629.022 485.053L626.179 489.539L626.176 489.544C609.016 517.329 593.329 557.441 594.593 592.289C594.593 592.305 594.595 592.321 594.597 592.337C595.376 598.158 595.896 602.837 596.322 606.591C596.748 610.338 597.082 613.183 597.49 615.317C597.896 617.437 598.388 618.94 599.182 619.942C600.006 620.982 601.106 621.423 602.547 621.551L602.546 621.552C602.76 621.572 602.969 621.508 603.137 621.438C603.315 621.363 603.505 621.256 603.699 621.131C604.089 620.88 604.546 620.522 605.039 620.105C606.028 619.268 607.217 618.146 608.392 617.037C609.574 615.922 610.742 614.82 611.71 614.006C612.195 613.598 612.617 613.274 612.956 613.059C613.126 612.951 613.262 612.878 613.367 612.835C613.481 612.788 613.514 612.796 613.492 612.794H613.497C613.96 612.832 614.521 612.76 615.092 612.651C615.671 612.541 616.306 612.385 616.925 612.233C617.55 612.079 618.159 611.929 618.712 611.825C619.188 611.736 619.592 611.69 619.908 611.694C620.352 612.065 620.93 612.249 621.556 612.317C622.26 612.392 623.076 612.329 623.944 612.178C625.682 611.875 627.736 611.205 629.745 610.465C631.744 609.728 633.773 608.894 635.384 608.281C636.2 607.971 636.916 607.715 637.496 607.544C638.1 607.366 638.483 607.303 638.671 607.32H638.673C639.631 607.406 640.386 607.437 640.974 607.41C641.55 607.384 642.019 607.301 642.369 607.117C642.758 606.913 642.976 606.593 643.039 606.2C643.094 605.856 643.024 605.481 642.938 605.138C642.587 603.721 641.716 601.76 642.983 599.066C642.99 599.052 642.996 599.037 643.001 599.023C643.577 597.432 644.153 595.841 644.746 594.202V594.201C652.12 574.404 661.316 555.482 680.327 544.849C692.456 539.629 704.64 540.754 717.01 544.993C722.247 547.266 726.052 549.906 729.118 553.272C732.187 556.64 734.541 560.758 736.841 566.022C741.104 578.167 740.975 589.298 740.182 602.112C740.165 602.388 740.373 602.625 740.648 602.643C763.578 604.096 783.189 600.621 801.14 584.785C801.147 584.779 801.155 584.772 801.162 584.765C820.833 565.151 831.437 543.17 831.757 515.297L831.758 515.292L831.757 515.291C831.759 513.618 831.762 511.944 831.764 510.22L831.885 505.174V505.164C831.93 493.263 829.56 483.769 825.013 473.005L824.566 471.96C823.805 470.153 823.804 470.151 823.026 468.305L823.024 468.299C813.905 447.423 794.653 428.971 773.579 420.686L773.574 420.684Z" fill="url(#paint5_radial_522_167)" stroke="#009CBF" stroke-linejoin="round"/>
<path d="M336.235 676.577C336.372 676.705 336.57 676.746 336.747 676.682C389.724 657.596 440.549 656.668 478.135 660.516C496.927 662.44 512.406 665.557 523.184 668.192C528.573 669.51 532.787 670.708 535.652 671.575C537.084 672.008 538.179 672.359 538.916 672.601C539.283 672.722 539.562 672.817 539.748 672.881C539.841 672.912 539.911 672.936 539.958 672.952C539.981 672.96 539.998 672.966 540.009 672.97C540.015 672.972 540.019 672.974 540.022 672.975C540.023 672.976 540.024 672.976 540.025 672.976C540.026 672.976 540.029 672.967 540.193 672.505L540.026 672.976C540.276 673.065 540.551 672.943 540.654 672.699C540.756 672.455 540.65 672.173 540.413 672.056C493.374 649.015 443.745 645.181 405.894 647.099C386.966 648.059 370.976 650.457 359.715 652.616C354.085 653.696 349.636 654.716 346.594 655.467C345.073 655.842 343.903 656.149 343.113 656.363C342.718 656.47 342.418 656.554 342.216 656.611C342.116 656.64 342.039 656.662 341.988 656.677C341.962 656.684 341.942 656.689 341.929 656.693C341.923 656.695 341.918 656.697 341.915 656.698C341.913 656.698 341.911 656.699 341.911 656.699L342.05 657.179L341.909 656.699C341.745 656.747 341.617 656.877 341.57 657.041L336.096 676.073C336.044 676.253 336.098 676.449 336.235 676.577Z" fill="#133466" stroke="#009CBF" stroke-linejoin="round"/>
<path d="M539.92 672.924C540.132 673.062 540.415 673.02 540.577 672.825C540.739 672.63 540.73 672.345 540.556 672.161L540.193 672.505L540.555 672.16C540.554 672.16 540.554 672.158 540.553 672.157C540.551 672.155 540.547 672.152 540.543 672.147C540.535 672.139 540.524 672.127 540.509 672.111C540.478 672.08 540.434 672.033 540.374 671.973C540.255 671.851 540.076 671.671 539.839 671.438C539.365 670.973 538.657 670.293 537.716 669.435C535.833 667.718 533.017 665.284 529.276 662.41C521.795 656.662 510.613 649.15 495.799 642.086C466.166 627.956 422.009 615.619 363.884 622.747C363.734 622.766 363.6 622.85 363.521 622.979L350.534 643.853C350.422 644.033 350.437 644.265 350.57 644.431C350.704 644.596 350.929 644.659 351.129 644.587L351.132 644.586C351.134 644.585 351.138 644.583 351.144 644.581C351.154 644.577 351.171 644.571 351.193 644.563C351.238 644.548 351.305 644.525 351.394 644.494C351.571 644.433 351.838 644.343 352.189 644.228C352.894 643.997 353.942 643.666 355.311 643.267C358.048 642.468 362.068 641.395 367.191 640.301C377.44 638.112 392.102 635.837 409.746 635.502C445.032 634.831 492.236 641.913 539.92 672.924Z" fill="#D2E6F5" stroke="#009CBF" stroke-linejoin="round"/>
<path d="M539.776 672.781C539.92 672.998 540.205 673.068 540.433 672.943C540.661 672.818 540.755 672.538 540.649 672.301L540.193 672.505L540.649 672.3C540.649 672.299 540.648 672.298 540.647 672.297C540.646 672.294 540.644 672.29 540.642 672.285C540.638 672.275 540.631 672.262 540.623 672.243C540.605 672.206 540.58 672.15 540.546 672.078C540.479 671.934 540.377 671.722 540.241 671.446C539.967 670.895 539.552 670.089 538.986 669.064C537.853 667.015 536.112 664.093 533.675 660.588C528.802 653.579 521.144 644.239 509.998 634.901C487.698 616.219 451.46 597.564 395.691 597.564C395.558 597.564 395.431 597.617 395.337 597.711L379.263 613.777C379.114 613.927 379.075 614.153 379.165 614.344C379.255 614.535 379.455 614.648 379.665 614.628L379.617 614.131C379.661 614.588 379.665 614.625 379.666 614.628C379.666 614.628 379.668 614.628 379.669 614.628C379.673 614.628 379.678 614.627 379.684 614.626C379.698 614.625 379.718 614.624 379.746 614.621C379.8 614.616 379.882 614.608 379.99 614.599C380.206 614.58 380.529 614.553 380.953 614.521C381.8 614.458 383.049 614.373 384.657 614.289C387.872 614.122 392.519 613.961 398.24 613.984C409.682 614.031 425.416 614.814 442.58 617.764C476.928 623.667 516.902 638.225 539.776 672.781Z" fill="white" stroke="#009CBF" stroke-linejoin="round"/>
<path d="M743.877 676.577C743.74 676.705 743.542 676.746 743.365 676.682C690.388 657.596 639.632 656.669 602.114 660.518C583.356 662.443 567.911 665.56 557.158 668.196C551.782 669.514 547.58 670.712 544.723 671.579C543.294 672.012 542.201 672.363 541.467 672.605C541.1 672.726 540.822 672.821 540.637 672.885C540.544 672.916 540.475 672.941 540.429 672.957C540.406 672.965 540.388 672.97 540.377 672.974C540.371 672.976 540.367 672.978 540.364 672.979C540.363 672.98 540.362 672.98 540.361 672.98C540.361 672.98 540.36 672.981 540.195 672.516L540.192 672.51L540.36 672.98C540.111 673.069 539.835 672.947 539.732 672.703C539.63 672.459 539.735 672.177 539.973 672.06C587.011 649.019 636.572 645.184 674.354 647.101C693.248 648.06 709.205 650.458 720.439 652.617C726.057 653.696 730.495 654.716 733.529 655.467C735.047 655.842 736.214 656.15 737.002 656.364C737.396 656.471 737.695 656.554 737.896 656.611C737.997 656.64 738.074 656.662 738.125 656.677C738.15 656.684 738.17 656.689 738.183 656.693C738.189 656.695 738.194 656.697 738.197 656.698C738.199 656.698 738.2 656.699 738.201 656.699L738.062 657.179L738.203 656.7C738.367 656.748 738.495 656.877 738.542 657.041L744.016 676.073C744.068 676.253 744.014 676.449 743.877 676.577Z" fill="#133466" stroke="#009CBF" stroke-linejoin="round"/>
<path d="M540.465 672.924C540.253 673.062 539.971 673.019 539.809 672.825C539.647 672.631 539.655 672.346 539.829 672.162L540.193 672.505C539.829 672.162 539.829 672.161 539.83 672.16C539.83 672.16 539.832 672.159 539.833 672.158C539.835 672.156 539.837 672.153 539.841 672.148C539.849 672.14 539.86 672.128 539.875 672.112C539.906 672.081 539.951 672.034 540.01 671.974C540.129 671.852 540.307 671.672 540.542 671.439C541.014 670.974 541.719 670.294 542.657 669.436C544.532 667.718 547.337 665.284 551.065 662.41C558.521 656.662 569.669 649.15 584.45 642.086C614.014 627.956 658.103 615.619 716.228 622.747C716.378 622.766 716.511 622.85 716.591 622.979L729.578 643.853C729.69 644.033 729.675 644.265 729.542 644.431C729.407 644.596 729.183 644.659 728.983 644.587L728.982 644.586L728.967 644.581C728.957 644.577 728.94 644.571 728.918 644.563C728.874 644.548 728.808 644.525 728.719 644.494C728.542 644.433 728.276 644.343 727.924 644.228C727.222 643.997 726.177 643.666 724.813 643.267C722.084 642.468 718.074 641.395 712.963 640.301C702.741 638.112 688.112 635.837 670.502 635.502C635.285 634.831 588.149 641.913 540.465 672.924Z" fill="#D2E6F5" stroke="#009CBF" stroke-linejoin="round"/>
<path d="M540.609 672.781C540.466 672.998 540.181 673.068 539.953 672.943C539.725 672.819 539.63 672.54 539.735 672.303L540.193 672.505C539.736 672.303 539.736 672.302 539.736 672.301C539.737 672.3 539.737 672.299 539.737 672.298C539.738 672.295 539.741 672.292 539.743 672.287C539.748 672.277 539.753 672.263 539.762 672.244C539.779 672.207 539.804 672.152 539.838 672.08C539.905 671.936 540.006 671.724 540.142 671.448C540.413 670.897 540.824 670.09 541.387 669.065C542.512 667.016 544.243 664.094 546.667 660.589C551.515 653.58 559.138 644.24 570.25 634.902C592.482 616.22 628.652 597.564 684.421 597.564C684.553 597.564 684.681 597.617 684.774 597.711L700.849 613.777C700.998 613.927 701.037 614.153 700.947 614.344C700.857 614.535 700.657 614.648 700.447 614.628L700.495 614.131C700.451 614.587 700.447 614.625 700.446 614.628C700.445 614.628 700.444 614.628 700.442 614.628C700.439 614.628 700.434 614.627 700.428 614.626C700.414 614.625 700.393 614.624 700.366 614.621C700.312 614.616 700.231 614.608 700.123 614.599C699.907 614.58 699.585 614.553 699.162 614.521C698.317 614.458 697.071 614.373 695.467 614.289C692.259 614.122 687.623 613.961 681.915 613.984C670.498 614.031 654.8 614.814 637.67 617.764C603.39 623.667 563.483 638.225 540.609 672.781Z" fill="white" stroke="#009CBF" stroke-linejoin="round"/>
<defs>
<filter id="filter0_f_522_167" x="229" y="219" width="622.386" height="642.045" filterUnits="userSpaceOnUse" color-interpolation-filters="sRGB">
<feFlood flood-opacity="0" result="BackgroundImageFix"/>
<feBlend mode="normal" in="SourceGraphic" in2="BackgroundImageFix" result="shape"/>
<feGaussianBlur stdDeviation="10" result="effect1_foregroundBlur_522_167"/>
</filter>
<radialGradient id="paint0_radial_522_167" cx="0" cy="0" r="1" gradientUnits="userSpaceOnUse" gradientTransform="translate(540.193 555.696) rotate(90) scale(753.16 978.404)">
<stop stop-color="white"/>
<stop offset="1" stop-color="#00A6CC"/>
</radialGradient>
<radialGradient id="paint1_radial_522_167" cx="0" cy="0" r="1" gradientUnits="userSpaceOnUse" gradientTransform="translate(540.193 556.466) rotate(90) scale(752.065 707.386)">
<stop stop-color="white"/>
<stop offset="1" stop-color="#00A6CC"/>
</radialGradient>
<radialGradient id="paint2_radial_522_167" cx="0" cy="0" r="1" gradientUnits="userSpaceOnUse" gradientTransform="translate(539.114 557.116) rotate(90) scale(753.16 978.404)">
<stop stop-color="white"/>
<stop offset="1" stop-color="#00A6CC"/>
</radialGradient>
<radialGradient id="paint3_radial_522_167" cx="0" cy="0" r="1" gradientUnits="userSpaceOnUse" gradientTransform="translate(540.193 556.466) rotate(90) scale(753.16 407.113)">
<stop stop-color="white"/>
<stop offset="1" stop-color="#00A6CC"/>
</radialGradient>
<radialGradient id="paint4_radial_522_167" cx="0" cy="0" r="1" gradientUnits="userSpaceOnUse" gradientTransform="translate(540.193 556.466) rotate(90) scale(753.16 860.41)">
<stop stop-color="white"/>
<stop offset="1" stop-color="#00A6CC"/>
</radialGradient>
<radialGradient id="paint5_radial_522_167" cx="0" cy="0" r="1" gradientUnits="userSpaceOnUse" gradientTransform="translate(540.193 556.466) rotate(90) scale(753.16 860.41)">
<stop stop-color="white"/>
<stop offset="1" stop-color="#00A6CC"/>
</radialGradient>
</defs>
</svg>
