<svg width="70" height="70" viewBox="0 0 70 70" fill="none" xmlns="http://www.w3.org/2000/svg">
<path d="M19.2305 48.7981H30.6081L26.1944 52.833L26.217 57.4698C26.217 57.4698 26.1306 58.4226 25.0357 58.4447C24.0944 58.4634 23.7008 58.0492 23.7008 57.4698C23.7008 55.9324 23.7233 52.7336 23.7233 52.7336L19.2305 48.7981Z" fill="#FFF000"/>
<path d="M19.2305 48.7981H30.6081L26.1944 52.833L26.217 57.4698C26.217 57.4698 26.1306 58.4226 25.0357 58.4447C24.0944 58.4634 23.7008 58.0492 23.7008 57.4698C23.7008 55.9324 23.7233 52.7336 23.7233 52.7336L19.2305 48.7981Z" stroke="#221917" stroke-width="1.00001"/>
<path d="M9.75 36.529C9.75 36.529 10.0222 39.2665 12.643 40.5471C14.2256 41.3199 15.2403 43.249 15.5384 44.0593C15.8346 44.8671 16.5243 46.5361 21.1031 46.5097C26.4451 46.4818 30.5011 46.9522 32.2071 44.1342C34.0618 41.0722 33.7297 39.2329 34.4573 38.0233C35.3478 36.5497 35.6948 35.989 35.6948 35.989C35.6948 35.989 32.9799 36.6025 31.2658 38.0742C29.3611 39.711 28.5715 41.1399 28.5715 41.1399C28.5715 41.1399 27.7689 40.8212 27.4089 38.3439C27.0624 35.9645 27.2798 34.958 27.2798 34.958C27.2798 34.958 25.2115 37.0426 24.2457 38.7361C23.2823 40.429 23.1057 41.4586 23.1057 41.4586C23.1057 41.4586 23.3044 40.3297 21.9676 38.269C20.6327 36.2084 18.8759 34.9839 18.8759 34.9839C18.8759 34.9839 18.9752 37.622 18.5139 39.0303C18.2231 39.9226 17.6643 38.0986 15.2888 38.1716C12.9152 38.2445 9.75 36.529 9.75 36.529Z" fill="#E40614"/>
<path d="M9.75 36.529C9.75 36.529 10.0222 39.2664 12.643 40.5471C14.2256 41.3199 15.2403 43.249 15.5384 44.0593C15.8346 44.8671 16.5243 46.536 21.1031 46.5096C26.4451 46.4818 30.5011 46.9522 32.2071 44.1341C34.0618 41.0722 33.7297 39.2328 34.4573 38.0232C35.3478 36.5496 35.6948 35.989 35.6948 35.989C35.6948 35.989 32.9799 36.6025 31.2658 38.0741C29.3611 39.7109 28.5715 41.1399 28.5715 41.1399C28.5715 41.1399 27.7689 40.8212 27.4089 38.3439C27.0624 35.9645 27.2798 34.958 27.2798 34.958C27.2798 34.958 25.2115 37.0426 24.2457 38.736C23.2823 40.429 23.1057 41.4586 23.1057 41.4586C23.1057 41.4586 23.3044 40.3296 21.9676 38.269C20.6327 36.2084 18.8759 34.9839 18.8759 34.9839C18.8759 34.9839 18.9752 37.622 18.5139 39.0303C18.2231 39.9226 17.6643 38.0986 15.2888 38.1716C12.9152 38.2445 9.75 36.529 9.75 36.529Z" stroke="#221917" stroke-width="0.750005"/>
<path d="M5 16.5366C5 16.5366 7.2349 17.9205 6.47361 20.1889C5.44592 23.2417 6.96274 25.0605 9.03493 26.4424" stroke="#221917" stroke-width="1.00001" stroke-linecap="round"/>
<path d="M10.0508 15.3364C10.0508 15.3364 11.7946 16.559 11.0914 18.7281C10.3901 20.8996 9.14693 22.9022 11.5321 25.0713" stroke="#221917" stroke-width="0.500003" stroke-linecap="round"/>
<path d="M18.072 10.9998C18.072 10.9998 19.9076 13.5514 18.194 16.2721C16.4784 18.9908 17.0443 19.2457 18.072 21.2108C18.8424 22.6863 17.4533 24.4863 17.4533 24.4863" stroke="#221917" stroke-width="1.00001" stroke-linecap="round"/>
<path d="M25.19 12.9303C25.19 12.9303 23.137 15.1018 23.9809 17.1606C24.8228 19.2212 26.6113 20.5954 25.6643 22.2826C24.7926 23.8426 24.2074 24.2871 24.2074 24.2871" stroke="#221917" stroke-width="0.500003" stroke-linecap="round"/>
<path d="M33.6853 14.7456C33.6853 14.7456 31.2949 16.3507 31.6155 17.9577C31.9343 19.5629 34.2853 20.7816 31.6155 24.9326" stroke="#221917" stroke-width="1.00001" stroke-linecap="round"/>
<path d="M5.96484 28.6638H34.433L38.8995 23.2302H44.0351L45.4861 21.2354L63.2372 21.3457C63.2372 21.3457 64.2424 22.4541 64.1296 23.896C64.0192 25.3379 63.1264 26.5586 63.1264 26.5586L45.9325 27.0011L44.2583 25.1166L40.797 25.0038L34.5454 33.1005L9.51401 33.2334C9.51401 33.2334 8.84488 33.0122 7.4159 31.2141C6.10884 29.5734 5.96484 28.6638 5.96484 28.6638Z" fill="#FFF000"/>
<path d="M5.96484 28.6638H34.433L38.8995 23.2302H44.0351L45.4861 21.2353L63.2372 21.3457C63.2372 21.3457 64.2424 22.454 64.1296 23.896C64.0192 25.3379 63.1264 26.5585 63.1264 26.5585L45.9325 27.0011L44.2583 25.1166L40.797 25.0038L34.5454 33.1004L9.51401 33.2334C9.51401 33.2334 8.84488 33.0121 7.4159 31.214C6.10884 29.5734 5.96484 28.6638 5.96484 28.6638Z" stroke="#221917" stroke-width="1.00001"/>
</svg>
