<svg width="70" height="70" viewBox="0 0 70 70" fill="none" xmlns="http://www.w3.org/2000/svg">
<path d="M49.0039 34.3884H57.8782V44.6316L49.0039 53.9071V58.5142L61.4408 45.3252V34.3884C61.4408 34.3884 61.5964 32.5586 59.8208 32.5586H49.0039V34.3884Z" fill="#FFF000"/>
<path d="M49.0039 34.3884H57.8782V44.6316L49.0039 53.9071V58.5142L61.4408 45.3252V34.3884C61.4408 34.3884 61.5964 32.5586 59.8208 32.5586H49.0039V34.3884Z" stroke="#221917" stroke-width="1.00001"/>
<path d="M33.7551 26.1284C33.7551 26.1284 25.9324 29.4774 25.2181 30.5348C24.5039 31.5903 24.5039 32.7658 24.5039 32.7658V62.271H49.0049V34.0858C49.0049 34.0858 45.8622 29.1039 39.9332 27.8665C34.0047 26.6291 33.7551 26.1284 33.7551 26.1284Z" fill="#FFF000"/>
<path d="M33.7551 26.1285C33.7551 26.1285 25.9324 29.4774 25.2181 30.5348C24.5039 31.5904 24.5039 32.7659 24.5039 32.7659V62.271H49.0049V34.0859C49.0049 34.0859 45.8622 29.104 39.9332 27.8665C34.0047 26.6291 33.7551 26.1285 33.7551 26.1285Z" stroke="#221917" stroke-width="1.00001"/>
<path d="M34.0043 9.20156C34.0043 9.20156 33.7907 8.46812 34.5482 8.06156C34.8069 7.92284 39.2412 8.06156 39.2412 8.06156C39.2412 8.06156 39.6987 8.27324 39.7044 8.90156C39.7135 9.90428 39.6986 37.21 39.6986 37.21C39.6986 37.21 39.4735 37.9507 38.8716 37.9507H34.6715C34.6715 37.9507 34.0043 37.6339 34.0043 37.1352V9.20156Z" fill="#FFF000"/>
<path d="M34.0043 9.20156C34.0043 9.20156 33.7907 8.46812 34.5482 8.06156C34.8069 7.92284 39.2412 8.06156 39.2412 8.06156C39.2412 8.06156 39.6987 8.27324 39.7044 8.90156C39.7135 9.90428 39.6986 37.21 39.6986 37.21C39.6986 37.21 39.4735 37.9507 38.8716 37.9507H34.6715C34.6715 37.9507 34.0043 37.6339 34.0043 37.1352V9.20156Z" stroke="#221917" stroke-width="1.00001"/>
<path d="M8 30.7631C8 30.7631 10.0007 28.2623 13.5013 26.5017C17.0001 24.7372 20.2008 24.7017 20.2008 24.7017L18.6259 31.0017L24.5002 41.3946V53.8823L14.4014 33.0004L8 30.7631Z" fill="#FFF000"/>
<path d="M8 30.7631C8 30.7631 10.0007 28.2623 13.5013 26.5017C17.0001 24.7372 20.2008 24.7017 20.2008 24.7017L18.6259 31.0017L24.5002 41.3946V53.8823L14.4014 33.0004L8 30.7631Z" stroke="#221917" stroke-width="1.00001"/>
<path d="M39.7539 24.3513C39.7539 24.3513 44.6533 25.9507 46.5042 27.6009C48.3527 29.2507 50.916 32.5468 50.1043 32.5022C49.2043 32.4513 48.803 33.4507 48.803 33.4507C48.803 33.4507 45.4617 30.3513 43.9204 29.4009C42.3791 28.452 39.8029 28.0507 39.8029 28.0507L39.7539 24.3513Z" fill="#FFF000"/>
<path d="M39.7539 24.3513C39.7539 24.3513 44.6533 25.9507 46.5042 27.6009C48.3527 29.2507 50.916 32.5468 50.1043 32.5022C49.2043 32.4513 48.803 33.4507 48.803 33.4507C48.803 33.4507 45.4617 30.3513 43.9204 29.4009C42.3791 28.452 39.8029 28.0507 39.8029 28.0507L39.7539 24.3513Z" stroke="#221917" stroke-width="0.480003"/>
</svg>
