<svg width="70" height="70" viewBox="0 0 70 70" fill="none" xmlns="http://www.w3.org/2000/svg">
<path d="M10.0691 34.2111C10.0691 34.2111 21.177 19.3459 29.8209 18.2155C37.7842 17.173 42.9423 19.9219 49.1824 26.2949C55.5891 32.8349 57.32 34.7962 59.9826 35.9885C62.7949 37.2485 56.5625 36.4723 50.4496 43.6911C44.3353 50.9079 35.6914 53.6549 26.9668 49.7232C18.2427 45.7911 10 34.0368 10 34.0368" fill="#FDFEFF"/>
<path d="M10.0691 34.2111C10.0691 34.2111 21.177 19.3459 29.8209 18.2155C37.7842 17.173 42.9423 19.9219 49.1824 26.2949C55.5891 32.8349 57.32 34.7962 59.9826 35.9885C62.7949 37.2485 56.5625 36.4723 50.4496 43.6911C44.3353 50.9079 35.6914 53.6549 26.9668 49.7232C18.2427 45.7911 10 34.0368 10 34.0368" stroke="#221917" stroke-width="0.950006"/>
<path d="M10.2031 33.9025C10.2031 33.9025 19.9569 27.2891 23.1969 25.7013C27.264 23.7078 40.9701 24.2478 40.9701 24.2478C40.9701 24.2478 53.6283 32.6632 55.2431 33.6193C56.8592 34.5755 58.7437 35.6123 59.2141 35.7193C59.6865 35.8278 60.2922 36.1245 60.2922 36.1245L60.225 36.3117C60.225 36.3117 55.0554 37.7666 50.8663 39.0866C46.6797 40.4066 43.3946 42.9774 41.885 43.6917C40.3777 44.4045 27.8827 45.6568 23.5214 43.1517C19.1581 40.6485 10.2031 33.9025 10.2031 33.9025Z" fill="#FDFEFF"/>
<path d="M10.2031 33.9021C10.2031 33.9021 19.9569 27.2887 23.1969 25.7008C27.264 23.7074 40.9701 24.2474 40.9701 24.2474C40.9701 24.2474 53.6283 32.6628 55.2431 33.6189C56.8592 34.5751 58.7437 35.6119 59.2141 35.7189C59.6865 35.8274 60.2922 36.124 60.2922 36.124L60.225 36.3112C60.225 36.3112 55.0554 37.7661 50.8663 39.0861C46.6797 40.4061 43.3946 42.977 41.885 43.6912C40.3777 44.404 27.8827 45.6564 23.5214 43.1512C19.1581 40.648 10.2031 33.9021 10.2031 33.9021Z" stroke="#221917" stroke-width="0.950006"/>
<path d="M33.265 46.4199C41.2 46.4199 47.633 41.0348 47.633 34.3916C47.633 27.7484 41.2 22.3638 33.265 22.3638C25.3315 22.3638 18.8984 27.7484 18.8984 34.3916C18.8984 41.0348 25.3315 46.4199 33.265 46.4199Z" fill="#221917"/>
<path d="M33.265 46.4194C41.2 46.4194 47.633 41.0343 47.633 34.3911C47.633 27.7479 41.2 22.3633 33.265 22.3633C25.3315 22.3633 18.8984 27.7479 18.8984 34.3911C18.8984 41.0343 25.3315 46.4194 33.265 46.4194Z" stroke="#221917" stroke-width="0.950006"/>
<path d="M33.2634 38.4267C35.4911 38.4267 37.2988 36.6214 37.2988 34.3918C37.2988 32.1627 35.4911 30.3569 33.2634 30.3569C31.0343 30.3569 29.2266 32.1627 29.2266 34.3918C29.2266 36.6214 31.0343 38.4267 33.2634 38.4267Z" fill="#FDFEFF"/>
<path d="M33.2634 38.4263C35.4911 38.4263 37.2988 36.621 37.2988 34.3914C37.2988 32.1623 35.4911 30.3565 33.2634 30.3565C31.0343 30.3565 29.2266 32.1623 29.2266 34.3914C29.2266 36.621 31.0343 38.4263 33.2634 38.4263Z" stroke="#221917" stroke-width="0.950006"/>
</svg>
