<svg width="70" height="70" viewBox="0 0 70 70" fill="none" xmlns="http://www.w3.org/2000/svg">
<path d="M34.8992 19.4178C38.8813 19.4178 42.1084 16.1888 42.1084 12.2082C42.1084 8.22752 38.8813 5.00049 34.8992 5.00049C30.9185 5.00049 27.6914 8.22752 27.6914 12.2082C27.6914 16.1888 30.9185 19.4178 34.8992 19.4178Z" fill="#FDFEFF"/>
<path d="M34.8992 19.4175C38.8813 19.4175 42.1084 16.1885 42.1084 12.2079C42.1084 8.22725 38.8813 5.00021 34.8992 5.00021C30.9185 5.00021 27.6914 8.22725 27.6914 12.2079C27.6914 16.1885 30.9185 19.4175 34.8992 19.4175Z" stroke="#221917" stroke-width="1.00001"/>
<path d="M34.901 14.9234C36.401 14.9234 37.6159 13.7066 37.6159 12.2085C37.6159 10.7085 36.401 9.49365 34.901 9.49365C33.4024 9.49365 32.1875 10.7085 32.1875 12.2085C32.1875 13.7066 33.4024 14.9234 34.901 14.9234Z" fill="#00A0E9"/>
<path d="M34.901 14.9233C36.401 14.9233 37.6159 13.7065 37.6159 12.2085C37.6159 10.7085 36.401 9.49357 34.901 9.49357C33.4024 9.49357 32.1875 10.7085 32.1875 12.2085C32.1875 13.7065 33.4024 14.9233 34.901 14.9233Z" stroke="#221917" stroke-width="1.00001"/>
<path d="M21.4414 16.8335H48.3592V64.9161H21.4414V16.8335Z" fill="#FDFEFF"/>
<path d="M21.4414 16.832H48.3592V64.9165H21.4414V16.832Z" stroke="#221917" stroke-width="1.00001"/>
<path d="M30.4531 25.3579H39.3462V56.3928H30.4531V25.3579Z" fill="#3E3A39"/>
<path d="M30.4531 25.3572H39.3462V56.3921H30.4531V25.3572Z" stroke="#3E3A39" stroke-width="0.480003"/>
<path d="M30.6009 15.3921L29.6016 16.3425L30.4507 17.3663L39.301 17.3927L40.3508 16.1419L30.6009 15.3921Z" fill="#FDFEFF"/>
<path d="M13.8335 25.2918L58.834 51.5415L56.5012 55.9575L11 29.7073L13.8335 25.2918Z" fill="#FDFEFF"/>
<path d="M13.8335 25.2918L58.834 51.5415L56.5012 55.9575L11 29.7073L13.8335 25.2918Z" stroke="#221917" stroke-width="1.00001"/>
</svg>
