<svg width="70" height="70" viewBox="0 0 70 70" fill="none" xmlns="http://www.w3.org/2000/svg">
<path d="M8.72658 24.2294C8.72658 24.2294 7 24.0138 7 25.3055C7 27.6757 7.01488 38.3725 7.01488 38.3725H17.0724C17.0724 38.3725 18.0435 35.8597 20.5319 34.0113C23.0687 32.1249 28.7462 32.1997 31.2701 32.6649C35.3727 33.4189 36.3965 37.9957 36.505 40.7951C36.6817 45.3681 33.7527 46.448 33.7527 46.448L33.7882 49.6429L50.5529 49.57V45.7449L48.5373 44.7604V34.9261L50.2341 33.1732V25.677C50.2341 25.677 50.3729 24.1223 48.7548 24.0849C47.2658 24.0532 8.72658 24.2294 8.72658 24.2294Z" fill="#FFF000"/>
<path d="M8.72658 24.229C8.72658 24.229 7 24.0135 7 25.3051C7 27.6754 7.01488 38.3722 7.01488 38.3722H17.0724C17.0724 38.3722 18.0435 35.8594 20.5319 34.0109C23.0687 32.1245 28.7462 32.1994 31.2701 32.6645C35.3727 33.4186 36.3965 37.9954 36.505 40.7947C36.6817 45.3677 33.7527 46.4477 33.7527 46.4477L33.7882 49.6426L50.5529 49.5696V45.7445L48.5373 44.76V34.9258L50.2341 33.1728V25.6767C50.2341 25.6767 50.3729 24.122 48.7548 24.0845C47.2658 24.0528 8.72658 24.229 8.72658 24.229Z" stroke="#221917" stroke-width="1.00001"/>
<path d="M10.1289 20.3164H13.3689V23.9313H10.1289V20.3164Z" fill="#FFF000"/>
<path d="M10.1289 20.3168H13.3689V23.9316H10.1289V20.3168Z" stroke="#221917" stroke-width="0.750005"/>
<path d="M39.3789 15H45.5667V23.6549H39.3789V15Z" fill="#FFF000"/>
<path d="M39.3789 15.0004H45.5667V23.6553H39.3789V15.0004Z" stroke="#221917" stroke-width="1.00001"/>
<path d="M55.4477 21.5142C55.4477 21.5142 55.2998 20.4039 56.4922 20.3665C57.6831 20.3329 59.8618 19.8807 59.8618 21.3413V36.5122C59.8618 36.5122 60.1431 37.6652 59.2316 37.7722C58.3224 37.8788 56.3251 37.7722 56.3251 37.7722C56.3251 37.7722 55.4141 37.9297 55.4141 36.9394C55.4141 36.0174 55.4477 21.5142 55.4477 21.5142Z" fill="#FFF000"/>
<path d="M55.4477 21.5149C55.4477 21.5149 55.2998 20.4046 56.4922 20.3672C57.6831 20.3336 59.8618 19.8814 59.8618 21.3421V36.513C59.8618 36.513 60.1431 37.6659 59.2316 37.773C58.3224 37.8795 56.3251 37.773 56.3251 37.773C56.3251 37.773 55.4141 37.9304 55.4141 36.9402C55.4141 36.0181 55.4477 21.5149 55.4477 21.5149Z" stroke="#221917" stroke-width="1.00001"/>
<path d="M50.4258 27.0947H55.0588V30.4883H50.4258V27.0947Z" fill="#FFF000"/>
<path d="M50.4258 27.0947H55.0569V30.4883H50.4258V27.0947Z" stroke="#221917" stroke-width="0.750005"/>
<path d="M59.9805 33.0478L63.6516 33.8148V36.0665L59.9805 36.6084V33.0478Z" fill="#FFF000"/>
<path d="M59.9805 33.0478L63.6516 33.8148V36.0665L59.9805 36.6084V33.0478Z" stroke="#221917" stroke-width="0.750005"/>
<path d="M7.125 49.8125H62.2825V55.597H7.125V49.8125Z" fill="#FFF000"/>
<path d="M7.125 49.8141H62.2825V55.5967H7.125V49.8141Z" stroke="#221917" stroke-width="1.00001"/>
<path d="M10.1836 38.3762L10.763 40.3504C10.763 40.3504 10.894 40.7646 11.2089 40.7646C11.5243 40.7646 13.5624 40.7402 13.5624 40.7402C13.5624 40.7402 13.7721 40.8453 13.9108 40.3749C14.0515 39.904 14.3836 38.3498 14.3836 38.3498L10.1836 38.3762Z" fill="#FFF000"/>
<path d="M10.1836 38.3762L10.763 40.3504C10.763 40.3504 10.894 40.7646 11.2089 40.7646C11.5243 40.7646 13.5624 40.7402 13.5624 40.7402C13.5624 40.7402 13.7721 40.8453 13.9108 40.3749C14.0515 39.904 14.3836 38.3498 14.3836 38.3498L10.1836 38.3762Z" stroke="#221917" stroke-width="0.750005"/>
<path d="M11.3789 40.8499L11.8196 42.7041H12.817L13.1636 40.8499H11.3789Z" fill="#FFF000"/>
<path d="M11.3789 40.8499L11.8196 42.7041H12.817L13.1636 40.8499H11.3789Z" stroke="#221917" stroke-width="0.500003"/>
<path d="M12.2656 42.7906V49.5576" stroke="#221917" stroke-width="0.500003"/>
</svg>
