<svg width="70" height="70" viewBox="0 0 70 70" fill="none" xmlns="http://www.w3.org/2000/svg">
<path d="M23.6904 37.5606C23.6904 37.5606 20.8761 39.1407 17.7955 37.1929C15.1386 35.5129 13.6833 33.2439 13.6645 32.042C13.6554 31.538 15.9018 30.531 15.9018 28.2342C15.9018 25.9393 16.3046 25.3916 16.3046 25.3916C16.3046 25.3916 13.3516 26.1323 12.4309 28.2529C12.3316 28.4833 13.4418 26.378 11.3979 24.8161C10.1922 23.8974 9.1251 21.6529 9.26239 21.231C9.39919 20.811 7.67213 25.7593 8.15214 27.3884C8.21022 27.5833 8.15982 26.9046 7.71341 26.3329C7.15084 25.611 6.08571 25.4214 6.31083 24.0658C6.37468 23.6761 4.63081 26.0329 5.07146 27.9284C5.46698 29.631 6.89788 30.531 7.06108 30.8929C7.2334 31.2716 7.36829 31.9465 7.36829 31.9465L6.27723 31.9393C6.27723 31.9393 6.14572 37.8414 11.0226 43.3C14.8852 47.6233 20.051 48.7935 21.6619 48.962C25.4343 49.3561 28.3969 52.5774 28.3969 52.5774L40.9015 51.8871L47.2237 45.8574L39.2493 31.2774L30.7086 29.8L23.6904 37.5606Z" fill="#FDFEFF"/>
<path d="M23.6904 37.5606C23.6904 37.5606 20.8761 39.1407 17.7955 37.1929C15.1386 35.5129 13.6833 33.2439 13.6645 32.042C13.6554 31.538 15.9018 30.531 15.9018 28.2342C15.9018 25.9393 16.3046 25.3916 16.3046 25.3916C16.3046 25.3916 13.3516 26.1323 12.4309 28.2529C12.3316 28.4833 13.4418 26.378 11.3979 24.8161C10.1922 23.8974 9.1251 21.6529 9.26239 21.231C9.39919 20.811 7.67213 25.7593 8.15214 27.3884C8.21022 27.5833 8.15982 26.9046 7.71341 26.3329C7.15084 25.611 6.08571 25.4214 6.31083 24.0659C6.37468 23.6761 4.63081 26.0329 5.07146 27.9284C5.46698 29.631 6.89788 30.531 7.06108 30.8929C7.2334 31.2716 7.36829 31.9465 7.36829 31.9465L6.27723 31.9393C6.27723 31.9393 6.14572 37.8414 11.0226 43.3C14.8852 47.6233 20.051 48.7935 21.6619 48.962C25.4343 49.3561 28.3969 52.5774 28.3969 52.5774L40.9015 51.8871L47.2237 45.8574L39.2493 31.2774L30.7086 29.8L23.6904 37.5606Z" stroke="#221917" stroke-width="0.810005"/>
<path d="M34.7051 20.1692C36.4096 20.1692 37.7897 18.7873 37.7897 17.0828C37.7897 15.3802 36.4096 14.0002 34.7051 14.0002C33.003 14.0002 31.6211 15.3802 31.6211 17.0828C31.6211 18.7873 33.003 20.1692 34.7051 20.1692Z" stroke="#221917" stroke-width="0.480003"/>
<path fill-rule="evenodd" clip-rule="evenodd" d="M34.7049 14C36.4094 14 37.7899 15.3804 37.7899 17.083C37.7897 18.7874 36.4093 20.1689 34.7049 20.1689C33.003 20.1688 31.621 18.7873 31.6209 17.083C31.6209 15.3805 33.0029 14.0001 34.7049 14ZM34.7049 16.1025C34.1636 16.1025 33.7227 16.5413 33.7225 17.083C33.7225 17.6268 34.1634 18.0684 34.7049 18.0684C35.2468 18.0683 35.6873 17.6268 35.6873 17.083C35.6871 16.5413 35.2466 16.1026 34.7049 16.1025Z" fill="#221917"/>
<path d="M34.7048 18.0676C35.2467 18.0676 35.6873 17.627 35.6873 17.0831C35.6873 16.5412 35.2467 16.1025 34.7048 16.1025C34.1633 16.1025 33.7227 16.5412 33.7227 17.0831C33.7227 17.627 34.1633 18.0676 34.7048 18.0676Z" stroke="#221917" stroke-width="0.480003"/>
<path d="M32.5553 17.9031C32.5553 17.9031 31.2482 19.5178 30.3972 19.6431C29.5476 19.7688 28.4397 19.6205 27.412 19.092C26.3848 18.5631 26.2139 18.3927 26.1842 18.7075C26.1559 19.0243 27.161 20.6146 27.712 21.0663C28.2636 21.5203 29.7636 22.6431 31.5036 22.5327C33.3017 22.4185 34.2089 21.9927 34.6798 21.4637C35.1502 20.9352 35.5592 20.5618 35.5592 20.5618L32.527 17.8075" fill="#221917"/>
<path d="M32.5553 17.9031C32.5553 17.9031 31.2482 19.5178 30.3972 19.6431C29.5476 19.7688 28.4397 19.6205 27.412 19.092C26.3848 18.5631 26.2139 18.3927 26.1842 18.7075C26.1559 19.0243 27.161 20.6146 27.712 21.0663C28.2636 21.5203 29.7636 22.6431 31.5036 22.5327C33.3017 22.4185 34.2089 21.9927 34.6798 21.4637C35.1502 20.9352 35.5592 20.5618 35.5592 20.5618L32.527 17.8075" stroke="#221917" stroke-width="0.480003"/>
<path d="M36.8722 17.9121C36.8722 17.9121 38.1812 19.5244 39.0303 19.6502C39.8799 19.7778 40.9878 19.6276 42.0155 19.0991C43.0432 18.5721 43.2155 18.3998 43.2438 18.7147C43.2717 19.0295 42.2684 20.6198 41.7174 21.0734C41.1659 21.527 39.5593 22.4908 37.8173 22.5695C36.1277 22.6463 35.0424 21.9585 34.6786 21.5438C34.2115 21.0134 33.4258 20.7057 33.4258 20.7057L36.9025 17.8127" fill="#221917"/>
<path d="M36.8722 17.9121C36.8722 17.9121 38.1812 19.5244 39.0303 19.6502C39.8799 19.7778 40.9878 19.6276 42.0155 19.0991C43.0432 18.5721 43.2155 18.3998 43.2438 18.7147C43.2717 19.0295 42.2684 20.6198 41.7174 21.0734C41.1659 21.527 39.5593 22.4908 37.8173 22.5695C36.1277 22.6463 35.0424 21.9585 34.6786 21.5438C34.2115 21.0134 33.4258 20.7057 33.4258 20.7057L36.9025 17.8127" stroke="#221917" stroke-width="0.480003"/>
<path d="M35.4072 27.5462C35.4072 27.5462 31.5806 27.7564 28.2839 27.01C24.9858 26.2636 23.8553 25.5739 23.5424 25.8043C23.2289 26.0332 22.7244 26.3087 22.8934 26.7681C23.0624 27.2275 25.6851 29.3404 24.5058 30.5126C23.3264 31.6823 19.4508 35.9519 20.1502 42.0604C20.5515 45.5803 22.4096 48.4655 24.9258 50.5564C25.7283 51.2217 24.4664 52.09 23.9845 52.6881C23.5025 53.2843 23.1147 55.103 23.8832 55.2513C24.6541 55.4011 35.4955 55.3094 35.4955 55.3094L35.5516 50.7177L29.8405 50.697V50.2958C29.8405 50.2958 32.7878 49.4164 31.389 48.3062C29.8871 47.1177 26.2626 43.4275 28.6573 38.1268C30.2341 34.6358 31.7265 34.0713 33.7516 33.1751C34.38 32.8977 33.7516 31.6603 34.4923 31.3151C35.1993 30.9868 35.3846 31.3339 35.3846 31.3339L35.4072 27.5462Z" fill="#221917"/>
<path d="M35.4072 27.5462C35.4072 27.5462 31.5806 27.7564 28.2839 27.01C24.9858 26.2636 23.8553 25.5739 23.5424 25.8043C23.2289 26.0332 22.7244 26.3087 22.8934 26.7681C23.0624 27.2275 25.6851 29.3404 24.5058 30.5126C23.3264 31.6823 19.4508 35.9519 20.1502 42.0604C20.5515 45.5803 22.4096 48.4655 24.9258 50.5564C25.7283 51.2217 24.4664 52.09 23.9845 52.6881C23.5025 53.2843 23.1147 55.103 23.8832 55.2513C24.6541 55.4011 35.4955 55.3094 35.4955 55.3094L35.5516 50.7177L29.8405 50.697V50.2958C29.8405 50.2958 32.7878 49.4164 31.389 48.3062C29.8871 47.1177 26.2626 43.4275 28.6573 38.1268C30.2341 34.6358 31.7265 34.0713 33.7516 33.1751C34.38 32.8977 33.7516 31.6603 34.4923 31.3151C35.1993 30.9868 35.3846 31.3339 35.3846 31.3339L35.4072 27.5462Z" stroke="#221917" stroke-width="0.480003"/>
<path d="M34.0156 27.5462C34.0156 27.5462 37.8427 27.7564 41.1389 27.01C44.437 26.2636 45.5674 25.5739 45.8808 25.8043C46.1938 26.0332 46.7002 26.3087 46.5313 26.7681C46.3628 27.2275 43.7376 29.3404 44.9189 30.5126C46.0983 31.6823 49.9719 35.9519 49.2745 42.0604C48.8713 45.5803 47.0151 48.4655 44.497 50.5564C43.6944 51.2217 44.9583 52.09 45.4402 52.6881C45.9202 53.2843 46.31 55.103 45.5396 55.2513C44.7687 55.4011 33.9273 55.3094 33.9273 55.3094L33.8711 50.7177L39.5827 50.697V50.2958C39.5827 50.2958 36.635 49.4164 38.0356 48.3062C39.5356 47.1177 43.1621 43.4275 40.7654 38.1268C39.1886 34.6358 37.6982 34.0713 35.673 33.1751C35.0447 32.8977 35.673 31.6603 34.9305 31.3151C34.2253 30.9868 34.0401 31.3339 34.0401 31.3339L34.0156 27.5462Z" fill="#221917"/>
<path d="M34.0156 27.5462C34.0156 27.5462 37.8427 27.7564 41.1389 27.01C44.437 26.2636 45.5674 25.5739 45.8808 25.8043C46.1938 26.0332 46.7002 26.3087 46.5313 26.7681C46.3628 27.2275 43.7376 29.3404 44.9189 30.5126C46.0983 31.6823 49.9719 35.9519 49.2745 42.0604C48.8713 45.5803 47.0151 48.4655 44.497 50.5564C43.6944 51.2217 44.9583 52.09 45.4402 52.6881C45.9202 53.2843 46.31 55.103 45.5396 55.2513C44.7687 55.4011 33.9273 55.3094 33.9273 55.3094L33.8711 50.7177L39.5827 50.697V50.2958C39.5827 50.2958 36.635 49.4164 38.0356 48.3062C39.5356 47.1177 43.1621 43.4275 40.7654 38.1268C39.1886 34.6358 37.6982 34.0713 35.673 33.1751C35.0447 32.8977 35.673 31.6603 34.9305 31.3151C34.2253 30.9868 34.0401 31.3339 34.0401 31.3339L34.0156 27.5462Z" stroke="#221917" stroke-width="0.480003"/>
<path d="M28.6914 21.3268V27.6868" stroke="#221917" stroke-width="0.810005"/>
<path d="M30.6758 21.694V28.054" stroke="#221917" stroke-width="0.810005"/>
<path d="M38.7617 21.5943V27.9543" stroke="#221917" stroke-width="0.810005"/>
<path d="M40.7305 21.1539V27.5139" stroke="#221917" stroke-width="0.810005"/>
<path d="M50.9188 34.0712C50.9188 34.0712 51.8937 32.4061 49.7711 32.1867C47.9149 31.9976 46.9736 34.701 48.7568 35.8112C50.5401 36.921 54.5918 35.877 56.3899 35.1416C58.1899 34.4067 60.6989 33.2835 57.8261 36.2518C54.084 40.1163 50.2285 42.321 49.4639 43.101C48.464 44.121 46.4975 46.9208 50.2718 47.9989C53.4182 48.8989 54.6312 45.5687 53.7312 44.5563C52.7318 43.4293 51.3969 44.1718 51.2433 44.517C51.0911 44.8616 52.0569 42.5312 54.9556 42.4131C59.0434 42.2442 60.168 41.1042 60.3744 40.821C60.5808 40.5382 58.9157 40.0016 58.4582 40.0016C57.9989 40.0016 62.8887 39.2744 63.5209 37.8589C63.9294 36.9402 61.5221 37.2474 61.2015 36.8629C60.8789 36.4808 65.1255 34.437 65.1049 32.577C65.0958 31.9467 63.4983 33.4583 62.5906 33.0551C62.4615 32.9989 65.2513 31.0112 63.4983 27.4486C62.4802 25.3841 61.9628 27.6886 60.8112 29.2673C59.4331 31.1537 56.0789 32.8525 54.5337 33.381C52.6401 34.0318 50.9188 34.0712 50.9188 34.0712Z" fill="#FDFEFF"/>
<path d="M50.9188 34.0713C50.9188 34.0713 51.8937 32.4061 49.7711 32.1868C47.9149 31.9977 46.9736 34.701 48.7568 35.8113C50.5401 36.921 54.5918 35.877 56.3899 35.1417C58.1899 34.4068 60.6989 33.2836 57.8261 36.2519C54.084 40.1164 50.2285 42.321 49.4639 43.101C48.464 44.121 46.4975 46.9209 50.2718 47.9989C53.4182 48.8989 54.6312 45.5687 53.7312 44.5564C52.7318 43.4293 51.3969 44.1719 51.2433 44.517C51.0911 44.8617 52.0569 42.5313 54.9556 42.4132C59.0434 42.2442 60.168 41.1042 60.3744 40.821C60.5808 40.5383 58.9157 40.0017 58.4582 40.0017C57.9989 40.0017 62.8887 39.2745 63.5209 37.8589C63.9294 36.9402 61.5221 37.2474 61.2015 36.8629C60.8789 36.4809 65.1255 34.437 65.1049 32.577C65.0958 31.9468 63.4983 33.4583 62.5906 33.0551C62.4615 32.9989 65.2513 31.0112 63.4983 27.4487C62.4802 25.3842 61.9628 27.6887 60.8112 29.2674C59.4331 31.1538 56.0789 32.8525 54.5337 33.381C52.6401 34.0319 50.9188 34.0713 50.9188 34.0713Z" stroke="#221917" stroke-width="0.810005"/>
<path d="M33.8594 34.9667L37.8847 39.9036C37.8847 39.9036 37.5324 39.2344 37.7441 38.908C37.9543 38.5835 38.6201 37.6183 37.9298 36.5397C37.2549 35.4804 36.424 34.7757 35.4981 34.9855C35.2336 35.0455 34.7272 35.3661 34.4407 35.2725C34.2213 35.2029 33.8594 34.9667 33.8594 34.9667Z" stroke="#221917" stroke-width="0.480003"/>
<path d="M6.62109 32.134L13.778 31.9992" stroke="#221917" stroke-width="0.607004"/>
<path d="M7.08594 35.2747L15.2576 35.0721" stroke="#221917" stroke-width="0.607004"/>
<path d="M7.625 37.3694L17.8218 37.0996" stroke="#221917" stroke-width="0.607004"/>
</svg>
