<svg width="70" height="70" viewBox="0 0 70 70" fill="none" xmlns="http://www.w3.org/2000/svg">
<path d="M35.3013 17.6269C37.1315 17.6269 38.6148 16.1437 38.6148 14.3134C38.6148 12.4856 37.1315 11.0005 35.3013 11.0005C33.4734 11.0005 31.9883 12.4856 31.9883 14.3134C31.9883 16.1437 33.4734 17.6269 35.3013 17.6269Z" fill="#E40614"/>
<path d="M35.3013 17.6265C37.1315 17.6265 38.6148 16.1433 38.6148 14.313C38.6148 12.4852 37.1315 11.0001 35.3013 11.0001C33.4734 11.0001 31.9883 12.4852 31.9883 14.313C31.9883 16.1433 33.4734 17.6265 35.3013 17.6265Z" stroke="#E40614" stroke-width="0.900006"/>
<path d="M40.7622 20.2272C40.7622 20.2272 40.4079 19.1395 39.1594 18.9518C37.7866 18.744 32.5421 18.1104 31.2652 20.735C29.9904 23.3582 25.2373 32.1091 25.2373 32.1091C25.2373 32.1091 24.4722 33.6518 24.3992 34.235C24.3652 34.5033 24.5039 35.7725 25.2277 36.2544C25.642 36.5304 27.1122 36.9782 28.2258 34.8782C29.2027 33.0331 31.1923 29.2382 31.1923 29.2382L31.5408 37.8312L26.8761 46.1395L29.902 55.5427C29.902 55.5427 30.2716 56.6659 31.2859 57.1104C32.3078 57.5563 34.4136 57.3331 34.2034 54.5957C34.1602 54.0485 34.0214 53.6659 34.0214 53.6659L32.0885 46.8331L36.2059 41.4201L37.7021 47.5252L41.7841 54.3408C41.7841 54.3408 41.9603 54.6389 42.4816 55.4189C42.6712 55.7078 43.8841 56.5046 45.3616 55.7395C46.5822 55.1078 46.3969 53.3524 45.9563 52.4865C45.4125 51.4176 45.2809 51.2433 45.2809 51.2433L41.8931 45.2659L40.513 28.835L43.4041 34.235C43.4041 34.235 44.0176 35.2646 44.6809 35.4576C45.088 35.5757 45.7648 35.6131 46.2976 35.2982C47.128 34.8053 47.2629 33.6389 46.9442 32.8737C46.5654 31.9608 46.2976 31.4712 46.2976 31.4712L40.7622 20.2272Z" fill="#E40614"/>
<path d="M40.7622 20.2272C40.7622 20.2272 40.4079 19.1395 39.1594 18.9518C37.7866 18.744 32.5421 18.1104 31.2652 20.735C29.9904 23.3582 25.2373 32.1091 25.2373 32.1091C25.2373 32.1091 24.4722 33.6518 24.3992 34.235C24.3652 34.5033 24.5039 35.7725 25.2277 36.2544C25.642 36.5304 27.1122 36.9782 28.2258 34.8782C29.2027 33.0331 31.1923 29.2382 31.1923 29.2382L31.5408 37.8312L26.8761 46.1395L29.902 55.5427C29.902 55.5427 30.2716 56.6659 31.2859 57.1104C32.3078 57.5563 34.4136 57.3331 34.2034 54.5957C34.1602 54.0485 34.0214 53.6659 34.0214 53.6659L32.0885 46.8331L36.2059 41.4201L37.7021 47.5252L41.7841 54.3408C41.7841 54.3408 41.9603 54.6389 42.4815 55.4189C42.6712 55.7078 43.8841 56.5046 45.3616 55.7395C46.5822 55.1078 46.397 53.3524 45.9563 52.4865C45.4125 51.4176 45.2809 51.2433 45.2809 51.2433L41.8931 45.2659L40.513 28.835L43.4041 34.235C43.4041 34.235 44.0176 35.2646 44.6809 35.4576C45.088 35.5757 45.7648 35.6131 46.2976 35.2982C47.128 34.8053 47.2629 33.6389 46.9442 32.8737C46.5654 31.9608 46.2976 31.4712 46.2976 31.4712L40.7622 20.2272Z" stroke="#E40614" stroke-width="0.480003"/>
<path d="M9 44.9546H25.133" stroke="#E40614" stroke-width="1.08001" stroke-linecap="round"/>
<path d="M9.01562 59.0005H60.9105" stroke="#E40614" stroke-width="1.08001" stroke-linecap="round"/>
<path d="M46.6836 44.894H60.2366" stroke="#E40614" stroke-width="1.08001" stroke-linecap="round"/>
</svg>
