<svg width="70" height="70" viewBox="0 0 70 70" fill="none" xmlns="http://www.w3.org/2000/svg">
<path d="M29.9293 15.0374C29.9293 15.0374 29.3197 15.0264 29.1416 15.7032C28.9654 16.3819 28.2603 25.5413 28.2603 25.5413L6 35.88L63.5129 35.7974L42.7675 25.7078L41.1888 16.1213C41.1888 16.1213 41.1772 15 40.2494 15C39.323 15 29.9293 15.0374 29.9293 15.0374Z" fill="#FFF000"/>
<path d="M29.9293 15.0373C29.9293 15.0373 29.3196 15.0263 29.1416 15.7031C28.9654 16.3818 28.2603 25.5412 28.2603 25.5412L6 35.8799L63.5129 35.7973L42.7675 25.7077L41.1888 16.1212C41.1888 16.1212 41.1772 14.9999 40.2494 14.9999C39.323 14.9999 29.9293 15.0373 29.9293 15.0373Z" stroke="#221917" stroke-width="1.00001"/>
<path d="M27.6367 25.9844H43.3685" stroke="#221917" stroke-width="1.00001"/>
<path d="M23.7539 27.6846H47.111" stroke="#221917" stroke-width="1.00001"/>
<path d="M18.918 29.8105H51.2493" stroke="#221917" stroke-width="1.00001"/>
<path d="M14.2852 32.0791H56.0702" stroke="#221917" stroke-width="1.00001"/>
<path d="M10.2734 33.7783H59.6392" stroke="#221917" stroke-width="1.00001"/>
<path d="M6.30859 35.9229H63.1629V38.3809H6.30859V35.9229Z" fill="#FFF000"/>
<path d="M6.30859 35.9238H63.1629V38.3818H6.30859V35.9238Z" stroke="#221917" stroke-width="1.00001"/>
<path d="M13.9609 38.7979H55.564V48.4708H13.9609V38.7979Z" fill="#FFF000"/>
<path d="M13.9609 38.7977H55.564V48.4707H13.9609V38.7977Z" stroke="#221917" stroke-width="1.00001"/>
<path d="M10.25 48.5234H59.2725V51.3737H10.25V48.5234Z" fill="#FFF000"/>
<path d="M10.25 48.5238H59.2725V51.374H10.25V48.5238Z" stroke="#221917" stroke-width="1.00001"/>
<path d="M6.375 51.3545H63.1468V54.2047H6.375V51.3545Z" fill="#FFF000"/>
<path d="M6.375 51.3539H63.1468V54.2041H6.375V51.3539Z" stroke="#221917" stroke-width="1.00001"/>
<path d="M16.3438 38.5989V48.2363" stroke="#221917" stroke-width="1.00001"/>
<path d="M25.8711 38.5989V48.2363" stroke="#221917" stroke-width="1.00001"/>
<path d="M29.5547 38.6458V48.2832" stroke="#221917" stroke-width="1.00001"/>
<path d="M38.6719 38.7395V48.3789" stroke="#221917" stroke-width="1.00001"/>
<path d="M42.2695 38.5989V48.2363" stroke="#221917" stroke-width="1.00001"/>
<path d="M53.1758 38.5989V48.2363" stroke="#221917" stroke-width="1.00001"/>
</svg>
