<svg width="140" height="226" viewBox="0 0 140 226" fill="none" xmlns="http://www.w3.org/2000/svg">
<path d="M13.9459 0H125.809L140 226H0L13.9459 0Z" fill="#DFC634"/>
<path d="M22.1317 198.683V200.753H24.314C26.4281 200.753 26.4963 200.73 27.1783 200.071C27.7693 199.456 27.8603 199.252 27.7466 198.547C27.4965 197.068 26.9737 196.772 24.4049 196.704L22.1317 196.613V198.683Z" fill="#B78E47"/>
<path d="M22.1317 206.531V208.942H24.4958C26.6554 208.942 26.9282 208.896 27.4738 208.419C27.9285 208.055 28.1103 207.623 28.2013 206.872C28.3149 205.939 28.2467 205.735 27.6329 205.052C26.951 204.302 26.951 204.302 24.5413 204.211L22.1317 204.12V206.531Z" fill="#B78E47"/>
<path d="M40.1127 199.115C39.9536 199.638 39.5444 201.071 39.1807 202.3C38.817 203.505 38.5669 204.529 38.5896 204.574C38.6351 204.597 39.4762 204.62 40.4764 204.574L42.295 204.506L41.4539 201.663C40.9993 200.093 40.5674 198.66 40.4992 198.478C40.431 198.274 40.2718 198.524 40.1127 199.115Z" fill="#B78E47"/>
<path d="M83.6687 198.592C83.6005 198.842 83.2141 200.139 82.8276 201.481C82.4412 202.823 82.0774 204.074 82.0092 204.278C81.8956 204.574 82.1684 204.62 83.8051 204.62H85.7374L84.9417 201.936C84.4871 200.48 84.0552 199.024 83.9642 198.706C83.8278 198.182 83.8051 198.182 83.6687 198.592Z" fill="#B78E47"/>
<path d="M96.6262 196.818C96.5353 196.886 96.4671 197.932 96.4671 199.115V201.253L98.8313 201.162C100.968 201.094 101.286 201.026 101.787 200.548C102.264 200.093 102.378 199.775 102.378 198.933C102.378 197.569 102.014 197.114 100.764 196.863C99.5587 196.636 96.8308 196.59 96.6262 196.818Z" fill="#B78E47"/>
<path d="M115.039 198.706C114.539 200.253 113.335 204.529 113.403 204.574C113.425 204.62 114.267 204.62 115.244 204.574L117.04 204.506L116.085 201.435C115.562 199.752 115.085 198.524 115.039 198.706Z" fill="#B78E47"/>
<path d="M18.1101 5.44479C18.0419 6.40013 17.8146 9.90302 17.6327 13.2239C17.2463 20.3207 16.9962 24.233 16.3824 33.9228C16.1324 37.8579 15.7232 44.7272 15.4731 49.1627C15.2231 53.5982 14.973 58.0564 14.9048 59.0572C14.3592 67.5642 14.0637 72.4319 13.7682 77.5952C13.5636 80.9162 13.1544 87.7172 12.8589 92.7214C12.5634 97.7255 12.2451 102.798 12.1769 103.981C11.9723 107.575 11.6541 113.079 10.9266 124.793C10.5629 130.912 10.0855 138.6 9.90365 141.853C9.72179 145.106 9.35807 151.133 9.10801 155.273C8.85795 159.39 8.35784 168.102 7.97138 174.607C7.60766 181.113 7.19847 187.914 7.06208 189.733C6.94841 191.553 6.67562 195.943 6.49376 199.514C6.28917 203.085 5.92545 209.204 5.69812 213.116C5.44806 217.029 5.24347 220.577 5.24347 221.009V221.805H70.5088H135.797L135.638 219.235C135.547 217.847 135.342 214.231 135.16 211.228C134.978 208.226 134.501 200.651 134.137 194.396C133.751 188.141 133.205 178.929 132.887 173.925C132.569 168.921 132.16 162.051 131.978 158.685C131.637 152.589 131.159 144.241 130.273 129.797C129.773 121.609 128.363 98.2259 128 92.039C127.863 89.9009 127.522 84.0779 127.204 79.0737C126.908 74.0696 126.499 67.314 126.295 64.0614C126.113 60.8087 125.704 54.0076 125.385 48.9352C124.794 39.3591 124.34 31.671 123.339 14.7024C122.998 9.19789 122.703 4.48946 122.657 4.23925C122.566 3.78433 122.362 3.78433 70.4178 3.73884L18.2692 3.6706L18.1101 5.44479ZM74.1005 34.4233C75.1462 37.5395 75.9873 40.087 76.01 40.1098C76.0328 40.1325 79.0562 40.2008 82.6934 40.269L89.3541 40.4055L84.2165 44.1586C81.3977 46.2285 78.988 48.0254 78.8516 48.1846C78.7152 48.3666 79.0789 49.7768 80.011 52.6201C81.6023 57.5105 82.6025 60.7859 82.4888 60.8542C82.4434 60.8997 79.9655 59.1482 76.9876 56.9873C74.0096 54.8037 71.4408 53.0978 71.3044 53.1887C71.168 53.257 70.236 53.9166 69.2357 54.6672C63.2343 59.0345 60.5973 60.9224 60.5064 60.8542C60.4837 60.8314 60.9156 59.4212 61.4839 57.7607C62.075 56.1002 62.9843 53.2797 63.5299 51.4828L64.5301 48.2074L59.3698 44.3633C56.5509 42.2251 54.2095 40.4282 54.1868 40.3372C54.1413 40.2462 57.0511 40.1553 60.6201 40.1553C65.7349 40.1098 67.1671 40.0415 67.3262 39.8141C67.4171 39.6548 68.3492 37.0618 69.3721 34.0366C70.3951 31.0341 71.3271 28.3273 71.4408 28.0089L71.6681 27.4402L71.9409 28.1226C72.1 28.4865 73.0775 31.3298 74.1005 34.4233ZM59.4153 69.7934C59.6653 74.7747 60.8929 79.0965 63.939 85.7838C67.5081 93.6085 67.7581 94.5411 67.9172 100.228C68.0082 103.799 67.9627 104.618 67.5535 106.642C67.0534 109.008 66.0077 112.26 64.3937 116.514C62.9161 120.29 62.2796 123.065 62.1432 126.044C61.984 129.433 62.3705 131.526 64.1209 136.53C64.8483 138.623 65.5985 141.079 65.8031 141.944C66.8033 146.357 65.5531 151.315 62.0522 156.865C60.7337 158.958 60.4837 159.754 60.3246 162.165C60.1427 165.077 60.5291 167.26 61.5748 169.33C62.3932 170.968 63.3935 172.082 66.9397 175.29C68.2582 176.495 68.4401 176.768 68.4401 177.473C68.4401 178.474 67.6217 179.748 66.8261 180.043C65.8486 180.385 65.0302 179.998 63.3707 178.406C61.1429 176.268 59.097 173.447 57.5739 170.467C56.8692 169.057 56.21 167.897 56.119 167.897C56.0281 167.897 55.0961 168.579 54.0731 169.398C51.8908 171.15 47.1851 174.311 45.0255 175.494C42.4567 176.882 39.547 177.723 36.91 177.86C31.2723 178.11 26.9304 176.086 21.1108 170.445C16.2688 165.736 13.2453 161.301 12.7225 158.139C12.2451 155.182 12.6998 153.931 15.8141 149.655C17.4281 147.403 22.9749 141.807 24.9526 140.374C29.34 137.213 32.909 135.848 37.0691 135.666C40.1835 135.529 42.0021 135.871 44.4117 137.099C47.3897 138.6 51.3452 141.58 55.1415 145.219C56.3918 146.425 57.4375 147.38 57.4602 147.335C57.6876 147.107 58.4832 142.967 58.6878 140.875C59.1652 136.235 58.3696 131.663 56.3009 127.273C55.7553 126.113 54.3231 123.565 53.1183 121.563C49.0265 114.762 47.3897 110.623 47.1396 106.483C46.8669 101.797 48.299 95.3599 51.2315 88.0812C52.0726 86.0113 52.2999 86.0795 52.2999 88.3996C52.3227 92.7896 54.4368 99.4087 57.0965 103.321C58.0286 104.686 58.074 104.754 58.2332 104.208C58.3241 103.89 58.3923 102.912 58.415 102.047C58.4605 98.4534 57.5966 94.4273 55.3688 87.8765C53.4366 82.19 53.3456 80.2793 54.8005 76.185C55.9599 72.8641 58.6423 67.3595 59.097 67.3595C59.1879 67.3595 59.3471 68.4513 59.4153 69.7934ZM83.1708 68.9972C84.3756 71.1126 85.4668 73.5237 86.4216 76.1168C87.1036 78.0047 87.1718 78.3686 87.1718 81.0072L87.1945 83.8504L85.7623 88.0584C84.1029 92.9488 83.3527 95.6784 83.0117 98.1577C82.7162 100.228 82.6707 104.367 82.9435 104.527C83.2163 104.686 85.3304 101.41 86.1715 99.5679C87.6037 96.338 88.6266 92.1755 88.8312 88.5588C88.8994 87.2851 89.0358 86.2387 89.1268 86.2387C89.3768 86.2387 91.3546 91.4703 92.1957 94.4501C93.6051 99.295 93.9688 101.501 93.9688 105.004C93.9915 110.509 92.9231 113.398 87.3763 122.678C86.217 124.657 84.8985 127.091 84.4666 128.069C82.1024 133.619 81.7159 138.941 83.2163 145.356L83.7164 147.426L86.3534 144.946C94.0143 137.781 98.0379 135.598 103.562 135.598C110.018 135.598 116.338 139.123 122.635 146.288C124.771 148.699 127.727 152.885 128.181 154.136C128.591 155.273 128.704 157.047 128.454 158.366C127.886 161.346 124.931 165.759 120.611 170.058C116.633 174.016 112.382 176.723 108.904 177.541C106.79 178.042 103.448 177.996 101.266 177.45C97.7879 176.563 92.1957 173.424 87.4673 169.671C86.3534 168.807 85.3304 168.056 85.1713 167.988C85.0122 167.92 84.5802 168.534 84.1256 169.535C82.4434 173.06 78.7607 177.928 76.5329 179.543C74.6461 180.908 72.7593 179.861 72.7593 177.45C72.7593 176.381 73.0548 176.04 75.7827 173.811C79.3063 170.968 80.7157 168.034 80.7157 163.553C80.7157 160.368 80.4429 159.14 79.3063 157.388C77.9878 155.341 76.5102 152.316 75.8055 150.246C75.3508 148.859 75.1917 147.835 75.1007 145.833C74.9871 142.808 75.2144 141.785 77.374 135.484C78.8516 131.253 79.2381 128.91 79.0335 125.953C78.8289 123.019 78.0105 119.903 76.1692 115.035C74.1232 109.576 73.4867 107.097 73.1685 103.298C72.9639 100.751 72.9866 99.7726 73.2821 97.498C73.7368 93.9042 74.396 91.9708 77.0557 86.0568C78.2833 83.3273 79.5791 80.302 79.8973 79.3012C80.7839 76.6854 81.625 72.3864 81.7841 69.6796C81.8523 68.4058 81.9887 67.3595 82.0797 67.3595C82.1479 67.3595 82.648 68.1101 83.1708 68.9972ZM28.3625 193.555C29.8174 194.328 30.5903 195.784 30.5903 197.808C30.5903 199.127 30.4767 199.582 29.9765 200.447C29.6355 201.038 29.1809 201.584 28.9536 201.652C28.6353 201.789 28.7262 201.902 29.3855 202.357C30.8176 203.335 31.2723 204.336 31.2723 206.565C31.2723 208.703 30.8631 209.773 29.6355 210.933C28.5898 211.933 27.9988 212.024 23.0658 212.024H18.4284V202.448V192.872L22.9294 192.963C27.044 193.031 27.476 193.077 28.3625 193.555ZM41.9566 193.191C42.0021 193.35 43.4115 197.649 45.0937 202.744L48.1626 212.024H46.2758H44.4117L43.798 209.977L43.1614 207.93H40.138H37.1146L36.6145 209.568C36.3644 210.478 36.0916 211.41 36.0234 211.615C35.9097 211.956 35.6142 212.024 34.0684 212.024C32.6363 212.024 32.2725 211.956 32.3635 211.729C32.4771 211.433 36.5463 198.718 37.6829 195.079C38.0011 194.078 38.2967 193.191 38.3649 193.077C38.5467 192.781 41.843 192.895 41.9566 193.191ZM55.6416 198.877L58.6423 204.859V198.877L58.6651 192.918H60.2564H61.8476L61.8022 202.517L61.734 212.138L60.2109 212.206L58.6878 212.275L55.6189 206.179L52.55 200.083L52.5955 206.11L52.6409 212.138H51.1633H49.6857L49.6175 202.517L49.572 192.918H51.1179H52.6637L55.6416 198.877ZM76.1692 194.624V196.33H74.0096H71.85L71.8045 204.222L71.7363 212.138H70.145H68.5538L68.4856 204.222L68.4401 196.33H66.1668H63.8936V194.624V192.918H70.0314H76.1692V194.624ZM88.4448 202.471C90.1725 207.657 91.5819 211.933 91.5591 211.956C91.4909 212.002 89.9451 212.07 88.8767 212.047L87.8537 212.024L87.24 209.977L86.6262 207.93H83.58H80.5111L80.1474 209.227C79.9428 209.954 79.67 210.933 79.5336 211.387L79.2835 212.252H77.6241C76.7148 212.252 75.9191 212.161 75.8509 212.07C75.8055 211.979 76.5329 209.386 77.5104 206.338C78.4879 203.267 79.8291 198.991 80.5111 196.83L81.7387 192.895L83.5118 192.963L85.2849 193.031L88.4448 202.471ZM102.448 193.259C104.494 193.85 105.494 195.465 105.494 198.104C105.494 200.742 104.699 202.266 102.88 203.153L101.857 203.654L102.744 204.655C103.971 206.042 106.995 211.979 106.563 212.161C106.381 212.229 105.494 212.252 104.562 212.206L102.88 212.138L101.039 208.658C100.038 206.747 98.9927 204.95 98.7199 204.7C98.4017 204.359 97.947 204.222 97.265 204.2L96.2875 204.177L96.2193 208.203L96.1739 212.252H94.5826H92.9913L92.9458 204.791C92.9004 197.626 92.9004 196.352 92.9686 193.987L92.9913 192.918H97.1514C100.175 192.918 101.63 193.009 102.448 193.259ZM119.702 202.13C121.362 207.134 122.794 211.41 122.885 211.615C123.021 211.979 122.862 212.024 121.157 212.024H119.247L118.565 209.977L117.906 207.93H114.928H111.95L111.337 209.954L110.723 211.979L108.995 212.07C108.04 212.115 107.222 212.07 107.176 212.002C107.131 211.911 107.949 209.158 109.018 205.86C110.063 202.562 111.427 198.286 112.018 196.375L113.087 192.895L114.883 192.963L116.679 193.031L119.702 202.13Z" fill="#B78E47"/>
</svg>
