<svg width="140" height="226" viewBox="0 0 140 226" fill="none" xmlns="http://www.w3.org/2000/svg">
<path d="M13.9459 0H125.809L140 226H0L13.9459 0Z" fill="#DFE219"/>
<path d="M17.5888 5.19457C17.4979 6.05892 17.1796 11.1313 16.884 16.5221C16.5656 21.8902 16.0427 30.4427 15.7471 35.5151C15.0422 46.9336 14.4055 57.7607 12.7911 84.5328C12.109 96.0423 11.1767 111.282 10.7447 118.424C10.3127 125.544 9.42589 140.147 8.81196 150.838C8.1753 161.528 7.4022 174.539 7.10661 179.725C5.19661 211.706 4.71912 220.008 4.71912 220.895V221.805H70H135.281L135.144 219.713C135.054 218.552 134.849 214.936 134.667 211.683C134.485 208.431 134.28 204.996 134.212 204.063C134.144 203.131 133.826 198.104 133.53 192.918C133.212 187.732 132.871 181.84 132.734 179.839C132.211 171.491 131.802 164.713 131.484 159.026C130.779 146.811 130.006 133.846 129.892 132.299C129.847 131.412 129.733 129.729 129.665 128.546C129.415 124.202 128.846 114.558 128.3 105.573C126.891 82.5539 125.344 57.1011 124.321 39.8368C124.071 35.6515 123.594 28.0771 123.298 23.0047C122.98 17.9324 122.616 11.8364 122.502 9.47084C122.366 7.0825 122.207 4.8079 122.138 4.42121L122.025 3.6706H69.8863H17.7253L17.5888 5.19457ZM73.4107 33.9228L75.5481 40.2917L82.2331 40.3372L88.8953 40.4055L87.0081 41.7702C82.9152 44.6817 78.163 48.2528 78.163 48.4348C78.163 48.5258 78.4131 49.3674 78.7087 50.3C79.2771 52.0969 81.7328 59.8988 81.9375 60.6039C82.0739 61.0361 82.0057 60.9906 75.6618 56.4187C73.8427 55.1222 72.0464 53.8256 71.6599 53.5527L70.955 53.0523L69.0223 54.4625C63.5651 58.4203 59.9725 60.9451 59.9725 60.8314C59.9725 60.7404 60.7456 58.3066 61.7006 55.4406C62.6329 52.5518 63.5424 49.7541 63.7243 49.2309L64.0426 48.2756L58.8129 44.3405C55.9479 42.1797 53.6059 40.36 53.6059 40.2917C53.6059 40.2007 54.9702 40.1552 56.63 40.1552C58.2672 40.1552 61.2231 40.1552 63.1786 40.1098L66.7485 40.0643L67.658 37.494C68.1355 36.1065 69.0905 33.2859 69.7726 31.2615C70.4548 29.2371 71.0687 27.5767 71.1369 27.5539C71.2051 27.5539 72.2283 30.4199 73.4107 33.9228ZM59.0858 72.2272C59.5178 75.6618 60.5637 79.3012 62.1781 82.9406C62.9967 84.8057 64.2246 87.6262 64.9067 89.1957C66.7485 93.381 67.2715 95.6101 67.4079 99.9319C67.5898 105.436 67.0213 108.189 64.1109 115.809C62.2918 120.563 61.7688 122.632 61.6324 125.862C61.4505 129.502 61.7688 131.185 63.6334 136.735C64.4747 139.305 65.2932 142.171 65.4524 143.104C66.0663 147.175 64.884 151.247 61.2913 157.32C59.9498 159.549 59.6542 161.005 59.8134 164.258C59.8816 165.964 60.0635 167.033 60.4273 168.011C61.405 170.604 62.3373 171.718 66.271 175.108C67.2032 175.904 67.7262 176.541 67.8172 176.995C68.1355 178.474 66.9759 180.18 65.657 180.18C63.7016 180.18 59.154 174.948 56.721 169.876C56.198 168.784 55.6978 167.897 55.6068 167.897C55.5159 167.897 54.4472 168.67 53.2193 169.626C48.558 173.288 44.2151 175.881 40.8726 177.041C38.8262 177.746 38.5306 177.792 35.5292 177.792C32.6187 177.792 32.1867 177.746 30.4813 177.155C25.7973 175.54 19.9763 170.786 15.7016 165.077C11.8361 159.913 11.063 156.274 13.0867 152.885C16.4292 147.357 22.7731 141.011 27.73 138.236C33.028 135.279 38.9171 134.802 43.5102 136.94C46.307 138.236 51.0592 141.83 54.811 145.447L56.812 147.38L57.0393 146.766C57.9716 144.355 58.5173 139.01 58.1535 135.825C57.6533 131.39 56.63 128.455 53.9015 123.861C49.4676 116.286 48.3079 113.943 47.3529 110.691C45.784 105.368 46.6708 98.7036 50.127 89.6279L51.4458 86.1932L51.6049 87.74C52.3553 94.7003 54.0834 100.091 56.721 103.639L57.5623 104.777L57.7215 104.094C58.1535 102.184 57.8124 98.2032 56.9029 94.6548C56.6073 93.472 55.7433 90.6515 54.9929 88.3996C53.2421 83.1453 52.9692 81.4848 53.4922 78.9145C53.9242 76.7536 55.7205 72.2727 57.3577 69.2929L58.4718 67.2458L58.6537 68.7243C58.7447 69.5431 58.9493 71.1126 59.0858 72.2272ZM82.9834 69.6796C83.6883 70.9761 84.7343 73.2053 85.3027 74.6383C87.3491 79.9381 87.3264 81.7805 85.1435 88.2859C83.5291 93.0626 82.8925 95.4281 82.5059 97.9984C82.2103 99.8636 82.1649 104.663 82.4377 104.663C82.5287 104.663 83.0289 104.026 83.5519 103.23C86.2577 99.2495 87.9176 94.1089 88.3723 88.3541L88.5315 86.125L89.1682 87.4898C89.9413 89.173 91.1919 92.7669 91.9422 95.3826C93.2838 100.205 93.7613 104.208 93.3747 107.438C92.8745 111.623 91.4647 114.967 87.0535 122.359C84.4159 126.795 83.37 129.07 82.5514 132.186C81.5282 136.212 81.6419 141.762 82.847 146.106L83.2336 147.426L85.5301 145.219C86.7807 144.014 88.7589 142.285 89.8731 141.398C95.8759 136.576 98.7182 135.416 103.721 135.666C105.108 135.734 106.858 135.962 107.609 136.166C109.814 136.758 113.452 138.646 115.84 140.465C120.001 143.582 125.39 149.7 127.277 153.431C127.891 154.613 127.959 155 127.959 156.729C127.937 158.958 127.55 160.345 126.345 162.324C122.934 167.965 116.727 173.902 111.702 176.313C106.631 178.747 101.856 178.542 96.0123 175.608C93.3975 174.289 89.6457 171.855 86.6897 169.512C85.5756 168.625 84.5751 167.897 84.5069 167.897C84.4387 167.897 84.0749 168.534 83.711 169.307C81.8693 173.22 78.0265 178.224 75.6618 179.816C74.7523 180.407 73.6608 180.294 72.9105 179.475C72.3648 178.883 72.2511 178.565 72.2511 177.632C72.2511 176.586 72.3193 176.45 73.3198 175.562C75.9801 173.174 78.3449 170.649 78.8906 169.58C79.8001 167.92 80.2094 166.032 80.2094 163.712C80.2094 160.505 79.8683 159.072 78.6859 157.275C77.3899 155.318 76.0938 152.589 75.298 150.269C74.8432 148.904 74.6613 147.835 74.5704 145.947C74.4567 143.013 74.8205 141.216 76.4804 136.712C79.2089 129.252 79.2544 125.43 76.7077 118.083C76.0256 116.15 75.0024 113.216 74.4339 111.601C73.8655 109.963 73.2516 107.825 73.0469 106.847C72.5239 104.276 72.3875 100.387 72.6831 97.8392C73.1606 93.8587 73.82 91.9707 77.4354 84.0779C78.8451 80.9389 79.7546 78.4369 80.3003 76.003C80.8233 73.7739 81.3463 70.0208 81.3463 68.6106C81.3463 67.9282 81.4145 67.3595 81.5282 67.3595C81.6192 67.3595 82.2786 68.4058 82.9834 69.6796ZM71.2733 193.327C72.8423 194.146 74.0701 196.261 74.0701 198.195C74.0701 198.832 74.0474 198.832 72.7286 198.832C71.9782 198.832 71.2279 198.9 71.046 198.968C70.8186 199.059 70.6822 198.854 70.5685 198.286C70.3183 196.966 69.568 196.284 68.2492 196.17C66.9531 196.079 66.1573 196.398 65.6798 197.262C65.3842 197.808 65.3842 197.922 65.7025 198.422C66.0663 198.968 66.612 199.241 70.1819 200.538C72.9105 201.561 74.2066 203.085 74.4567 205.587C74.7295 208.18 73.4789 210.819 71.5007 211.842C70.2956 212.457 67.4761 212.661 65.9981 212.252C63.838 211.638 62.2009 209.454 61.8825 206.702L61.7234 205.428H62.6329C63.1331 205.428 63.8607 205.36 64.2246 205.292C64.8612 205.178 64.9294 205.223 65.0431 205.883C65.4751 207.93 66.4301 208.84 68.2264 208.84C70.7504 208.84 72.0919 206.156 70.1364 204.973C69.7499 204.723 68.4538 204.2 67.2715 203.813C64.5884 202.903 63.1786 201.698 62.6102 199.764C62.1554 198.218 62.1554 197.854 62.6102 196.352C63.0422 194.874 64.27 193.486 65.5434 193.009C66.9076 192.531 70.0455 192.69 71.2733 193.327ZM21.568 200.811L21.477 208.612H25.388H29.2989L29.2307 210.364L29.1625 212.138L28.3667 212.115C27.9347 212.115 25.5017 212.093 22.9778 212.07L18.3619 212.024V202.471V192.895L20.0218 192.963L21.659 193.031L21.568 200.811ZM39.6902 193.646C40.0995 194.919 45.4202 211.342 45.5566 211.683C45.6703 211.979 45.3747 212.024 43.7831 212.024H41.8958L41.4638 210.478C40.6679 207.703 41.009 207.93 37.5983 207.93H34.5969L33.9375 210.023L33.2554 212.138L31.55 212.115C30.2085 212.115 29.8446 212.047 29.8674 211.774C29.8901 211.615 31.2089 207.407 32.7779 202.471C34.3695 197.535 35.7111 193.35 35.7565 193.191C35.8247 193.009 36.4159 192.918 37.6665 192.918H39.4628L39.6902 193.646ZM50.4226 197.057V201.197L53.5149 197.057L56.5846 192.918H58.8811C61.0412 192.918 61.1549 192.94 60.8366 193.304C60.6547 193.532 59.2904 195.238 57.8352 197.08L55.1748 200.447L58.1535 206.201C59.7679 209.363 61.0412 212.024 60.9503 212.093C60.6774 212.388 57.0848 212.275 56.8574 211.956C56.721 211.82 55.7887 209.841 54.7883 207.589C53.7651 205.337 52.8783 203.517 52.8101 203.54C52.7418 203.563 52.1734 204.2 51.5595 204.95L50.4226 206.292V209.158V212.024H48.7172H47.0119V202.63C47.0119 197.444 47.0801 193.145 47.171 193.077C47.2392 192.986 48.0123 192.918 48.8764 192.918H50.4226V197.057ZM87.9403 202.471C89.6684 207.657 91.0327 211.956 90.9645 212.024C90.8963 212.093 90.0777 212.138 89.1227 212.138H87.3946L86.7352 210.023L86.0758 207.93H83.0516H80.0275L79.55 209.795C79.2771 210.842 79.0043 211.82 78.9588 211.956C78.8451 212.297 75.207 212.388 75.207 212.07C75.207 211.956 75.4117 211.274 75.6618 210.523C76.4576 208.271 80.6414 194.988 80.9143 193.919L81.1871 192.895L82.9834 192.963L84.8025 193.031L87.9403 202.471ZM98.559 198.877L101.56 204.859V198.877L101.583 192.918H103.175H104.766V202.608V212.297L103.129 212.184L101.469 212.093L98.4453 206.088L95.4211 200.083L95.4666 206.11L95.4893 212.138L94.0341 212.115L92.6016 212.07L92.5334 202.494L92.4879 192.918H94.0114H95.5576L98.559 198.877ZM118.932 202.289C120.66 207.452 122.07 211.774 122.116 211.911C122.184 212.229 121.07 212.32 119.614 212.138L118.432 212.002L117.773 210.023L117.113 208.044L114.135 207.976L111.156 207.907L110.519 209.977L109.883 212.047L108.223 212.138C107.336 212.161 106.54 212.115 106.472 212.024C106.404 211.911 106.654 210.887 107.018 209.704C107.381 208.544 108.314 205.633 109.041 203.267C109.792 200.879 110.838 197.581 111.361 195.92L112.293 192.918H114.066H115.84L118.932 202.289Z" fill="#237640"/>
<path d="M37.18 199.116C37.0208 199.639 36.6117 201.072 36.2479 202.3C35.8842 203.506 35.6342 204.529 35.6569 204.575C35.7024 204.598 36.5435 204.62 37.5437 204.575L39.3623 204.507L38.5212 201.663C38.0665 200.094 37.6346 198.661 37.5664 198.479C37.4982 198.274 37.3391 198.524 37.18 199.116Z" fill="#237640"/>
<path d="M82.798 199.116C82.6388 199.639 82.2296 201.072 81.8659 202.3C81.5022 203.506 81.2521 204.529 81.2749 204.575C81.3203 204.598 82.1614 204.62 83.1617 204.575L84.9803 204.507L84.1392 201.663C83.6845 200.094 83.2526 198.661 83.1844 198.479C83.1162 198.274 82.9571 198.524 82.798 199.116Z" fill="#237640"/>
<path d="M113.734 199.116C113.575 199.639 113.166 201.072 112.802 202.3C112.438 203.506 112.188 204.529 112.211 204.575C112.257 204.598 113.098 204.62 114.098 204.575L115.917 204.507L115.075 201.663C114.621 200.094 114.189 198.661 114.121 198.479C114.052 198.274 113.893 198.524 113.734 199.116Z" fill="#237640"/>
</svg>
