<svg width="205" height="224" viewBox="0 0 205 224" fill="none" xmlns="http://www.w3.org/2000/svg">
<path d="M204.645 46.001L102.336 111.699V111.717L102.323 111.708L102.309 111.717V111.699L0 46.001V0L102.323 65.1264L204.645 0V46.001Z" fill="#FB0E0E"/>
<path d="M183.295 19.7147C185.84 17.4974 188.472 16.8616 191.841 17.0361L193.443 18.1075L192.909 20.7861L190.906 20.987C186.86 21.8579 182.887 25.4165 180.624 28.8219C179.597 28.7864 178.569 28.7504 177.542 28.711C175.359 28.9143 173.714 30.0976 172.078 31.5005C171.092 32.9216 171.092 32.9217 170.475 34.1792H169.407L168.906 35.485C168.339 36.8577 168.338 36.8578 167.804 37.3935L166.202 37.36C163.413 37.683 162.051 39.9681 160.387 42.0287C158.855 43.7354 157.812 44.2842 155.552 44.5253C153.421 45.0052 152.75 46.005 151.246 47.5722C148.264 50.2182 145.285 52.642 141.721 54.4466C138.926 55.957 136.464 57.8699 134.053 59.9273C133.755 60.1807 133.456 60.4341 133.149 60.6953C130.578 62.9078 128.193 65.2678 125.841 67.7099C124.539 69.001 124.539 69.0011 123.07 70.1081C121.813 71.1915 121.507 71.6664 121.334 73.2868C123.684 71.7482 126.002 70.203 128.211 68.4653C130.323 66.8469 132.584 65.6235 134.934 64.3867C136.392 63.6229 136.392 63.6229 138.026 62.405C139.495 61.501 139.495 61.5009 141.297 61.3C145.405 60.5897 147.54 57.8177 149.877 54.5366C152.363 51.085 154.852 49.2804 158.58 47.3545C161.721 45.7205 164.06 44.0801 166.438 41.4323C167.27 40.6078 167.27 40.6078 168.339 40.6078V39.5364C169.517 38.8988 170.697 38.2628 171.877 37.6279C172.239 37.4328 172.601 37.2377 172.973 37.0367C174.741 36.089 176.511 35.1609 178.322 34.3005C183.123 32.0086 187.244 29.227 191.298 25.7771C193.465 24.0177 195.067 23.7226 197.76 23.8016C198.785 24.0004 198.785 24.0005 199.853 25.0719C199.772 26.1334 199.772 26.1335 199.319 27.2148C198.486 27.8818 198.486 27.8818 197.408 28.4453C196.813 28.7646 196.813 28.7645 196.206 29.0903C195.779 29.3111 195.352 29.532 194.912 29.7595C194.03 30.2317 193.148 30.7054 192.266 31.1804C191.83 31.4144 191.394 31.6487 190.945 31.8898C189.242 32.8264 187.608 33.8437 185.965 34.8823C182.497 37.0525 179.008 38.998 175.149 40.3734C171.971 41.5261 169.944 42.9553 168.339 45.965C167.576 47.3617 166.833 48.6216 165.668 49.7151C164.62 49.9599 164.62 49.9599 163.498 50.0164L161.395 50.2508C160.11 51.8255 160.11 51.8256 159.258 53.4651H158.19L157.823 54.4696C156.916 55.9415 156.04 56.1074 154.451 56.6794L153.917 57.7509C152.967 57.9769 152.967 57.9769 151.813 58.1527C150.648 58.3843 150.648 58.3843 149.643 58.8223C148.998 60.3175 148.998 60.3176 148.575 62.0367C147.699 63.4057 146.756 64.3991 145.37 65.251C144.179 65.4017 144.179 65.4017 142.867 65.4184C138.66 65.5836 136.027 68.8357 133.121 71.5855C130.717 73.7957 127.902 75.4297 124.539 75.4297V78.1083C130.979 77.7853 134.517 75.219 139.226 71.0288C140.719 69.961 141.731 69.6903 143.534 69.4363C147.319 69.0654 147.319 69.0654 150.178 66.8582L150.612 65.318C151.42 63.1851 152.406 61.9284 154.451 60.9652C156.587 60.5935 158.694 60.4682 160.861 60.4295L161.075 59.2346C161.511 57.2108 162.248 55.3932 162.997 53.4651H169.407L169.741 52.1258C170.732 49.5957 172.289 47.3599 174.214 45.4293C175.059 45.3869 175.905 45.3552 176.751 45.3289C179.115 45.127 179.115 45.127 180.858 43.4873L181.438 42.6209C183.572 40.0724 187.213 38.1907 190.238 36.8578C191.707 36.7908 191.707 36.7908 192.909 36.8578C193.517 38.6621 193.535 39.3467 192.692 41.0912C190.53 44.2344 188.559 46.9651 185.431 49.1793H183.829V50.2508L180.09 51.3222V50.2508C177.629 50.8992 177.629 50.8993 175.282 51.858C175.053 53.1027 175.053 53.1028 174.982 54.5366C174.8 57.1636 174.8 57.1637 174.214 57.7509C173.427 57.8622 172.636 57.9476 171.844 58.0188C170.024 58.1749 170.024 58.1749 168.339 58.8223C166.962 61.1409 166.532 63.1317 166.202 65.7867L164.253 66.0023C163.412 66.0977 162.57 66.1933 161.728 66.2889L160.443 66.4302C158.178 66.646 158.178 66.646 156.053 67.3939C155.493 68.452 154.957 69.5233 154.451 70.6082H153.382V71.6796C151.057 72.9943 149.249 73.9191 146.572 74.1239C144.629 74.2812 143.499 74.4226 142.165 75.9654L141.398 77.807C140.462 79.9472 139.865 80.6539 137.892 81.8584C137.085 82.1293 136.272 82.3851 135.455 82.6285C133.211 83.3015 132.278 84.1701 130.948 86.1441H129.88L128.812 88.8227H126.141L124.576 85.9453C124.051 84.9837 124.05 84.9836 122.936 84.537C119.833 84.1796 119.833 84.1797 117.119 85.5896C115.067 87.4202 113.702 89.6865 112.253 92.0036C107.678 99.2869 107.678 99.2869 104.354 100.711C103.479 100.826 102.725 100.898 102.028 100.893L101.666 89.823C103.391 89.7206 104.181 89.4377 106.912 88.4544C110.112 84.7437 110.747 82.1679 110.751 77.3717L110.771 76.1663C110.777 73.727 110.442 71.8476 109.583 69.5368C109.516 67.7288 109.516 67.7287 109.583 66.3224H110.651L110.751 65.318C111.185 64.1796 111.185 64.1795 112.387 63.4764C113.856 63.1081 113.856 63.1081 116.527 63.6438L117.595 70.0725C119.821 69.001 119.821 69.001 120.833 67.059L121.378 65.9018C121.837 64.7914 122.185 63.6871 122.536 62.5389C123.561 59.6333 126.102 57.5025 128.812 56.1437C129.678 56.0348 130.546 55.9483 131.416 55.8759C133.098 55.7349 134.663 55.5278 136.29 55.0723V54.0008L137.358 53.0633C138.737 51.5074 138.514 50.6644 138.426 48.6436C139.495 47.5722 139.495 47.5722 141.235 47.4676L143.301 47.5052L145.375 47.5345L146.973 47.5722L147.188 46.6598C147.52 45.3791 147.919 44.138 148.342 42.8846L148.778 41.5872L149.109 40.6078C152.158 40.0727 152.158 40.0727 153.366 40.0679C154.554 40.0358 155.466 39.9445 156.587 39.5364C157.508 38.5303 158.21 37.4628 158.96 36.3241C160.745 34.0221 163.439 33.2396 166.169 32.5385L167.804 32.0363L168.339 30.4291C171.046 27.4875 173.862 25.3916 177.452 23.6656L178.442 23.1801C179.346 22.737 180.252 22.2972 181.158 21.8576C181.871 21.5018 182.583 21.1454 183.295 20.7861V19.7147Z" fill="white"/>
<path d="M20.0375 19.7147C17.4917 17.4974 14.86 16.8616 11.4912 17.0361L9.88877 18.1075L10.4229 20.7861L12.426 20.987C16.4719 21.8579 20.4446 25.4165 22.7082 28.8219C23.7355 28.7864 24.7628 28.7504 25.79 28.711C27.9733 28.9143 29.6175 30.0976 31.2545 31.5005C32.2399 32.9216 32.2399 32.9217 32.8569 34.1792H33.9252L34.426 35.485C34.9935 36.8577 34.9936 36.8578 35.5277 37.3935L37.1301 37.36C39.9191 37.683 41.2809 39.9681 42.9452 42.0287C44.477 43.7354 45.5201 44.2842 47.7796 44.5253C49.9113 45.0052 50.5815 46.005 52.0861 47.5722C55.0677 50.2182 58.0469 52.642 61.611 54.4466C64.4063 55.957 66.8679 57.8699 69.2789 59.9273C69.5773 60.1807 69.8759 60.4341 70.1834 60.6953C72.7536 62.9078 75.1389 65.2678 77.4913 67.7099C78.7933 69.001 78.7933 69.0011 80.2622 70.1081C81.5192 71.1915 81.825 71.6664 81.9982 73.2868C79.6481 71.7482 77.3303 70.203 75.1211 68.4653C73.009 66.8469 70.7481 65.6235 68.3984 64.3867C66.9404 63.6229 66.9403 63.6229 65.3062 62.405C63.8373 61.501 63.8373 61.5009 62.0345 61.3C57.9267 60.5897 55.7917 57.8177 53.4549 54.5366C50.9694 51.085 48.4804 49.2804 44.7521 47.3545C41.6107 45.7205 39.2723 44.0801 36.8943 41.4323C36.0618 40.6078 36.0618 40.6078 34.9935 40.6078V39.5364C33.8147 38.8988 32.6351 38.2628 31.4548 37.6279C31.0932 37.4328 30.7315 37.2377 30.3589 37.0367C28.5913 36.089 26.8212 35.1609 25.0096 34.3005C20.2086 32.0086 16.088 29.227 12.0337 25.7771C9.86703 24.0177 8.26463 23.7226 5.5718 23.8016C4.54734 24.0004 4.5473 24.0005 3.47905 25.0719C3.5599 26.1334 3.55992 26.1335 4.01319 27.2148C4.84622 27.8818 4.84625 27.8818 5.92442 28.4453C6.5193 28.7646 6.51941 28.7645 7.12625 29.0903C7.55313 29.3111 7.98005 29.532 8.41987 29.7595C9.30248 30.2317 10.1844 30.7054 11.0656 31.1804C11.5017 31.4144 11.9379 31.6487 12.3874 31.8898C14.0897 32.8264 15.7241 33.8437 17.3668 34.8823C20.835 37.0525 24.3243 38.998 28.1832 40.3734C31.3614 41.5261 33.3884 42.9553 34.9935 45.965C35.7563 47.3617 36.4993 48.6216 37.6642 49.7151C38.7117 49.9599 38.7117 49.9599 39.8342 50.0164L41.9374 50.2508C43.2221 51.8255 43.2221 51.8256 44.074 53.4651H45.1422L45.5095 54.4696C46.4159 55.9415 47.2923 56.1074 48.8813 56.6794L49.4154 57.7509C50.3648 57.9769 50.3648 57.9769 51.5186 58.1527C52.6844 58.3843 52.6845 58.3843 53.6885 58.8223C54.3341 60.3175 54.3342 60.3176 54.7568 62.0367C55.6332 63.4057 56.5756 64.3991 57.9617 65.251C59.1531 65.4017 59.1531 65.4017 60.4655 65.4184C64.6718 65.5836 67.3055 68.8357 70.2115 71.5855C72.615 73.7957 75.4302 75.4297 78.7933 75.4297V78.1083C72.3528 77.7853 68.8148 75.219 64.1064 71.0288C62.6131 69.961 61.6006 69.6903 59.7978 69.4363C56.0132 69.0654 56.0132 69.0654 53.1544 66.8582L52.7204 65.318C51.9123 63.1851 50.9258 61.9284 48.8813 60.9652C46.7446 60.5935 44.6379 60.4682 42.4715 60.4295L42.2566 59.2346C41.8212 57.2108 41.0843 55.3932 40.335 53.4651H33.9252L33.5914 52.1258C32.6003 49.5957 31.0428 47.3599 29.1179 45.4293C28.2726 45.3869 27.4267 45.3552 26.5808 45.3289C24.2167 45.127 24.2167 45.127 22.4745 43.4873L21.8945 42.6209C19.76 40.0724 16.1195 38.1907 13.0936 36.8578C11.6247 36.7908 11.6247 36.7908 10.4229 36.8578C9.81552 38.6621 9.79716 39.3467 10.6399 41.0912C12.8018 44.2344 14.7733 46.9651 17.9009 49.1793H19.5034V50.2508L23.2424 51.3222V50.2508C25.7034 50.8992 25.7034 50.8993 28.0497 51.858C28.2793 53.1027 28.2793 53.1028 28.3501 54.5366C28.5324 57.1636 28.5325 57.1637 29.1179 57.7509C29.9052 57.8622 30.6963 57.9476 31.4882 58.0188C33.3083 58.1749 33.3083 58.1749 34.9935 58.8223C36.3695 61.1409 36.8 63.1317 37.1301 65.7867L39.0789 66.0023C39.9204 66.0977 40.762 66.1933 41.6035 66.2889L42.8888 66.4302C45.1543 66.646 45.1543 66.646 47.2788 67.3939C47.8386 68.452 48.3749 69.5233 48.8813 70.6082H49.9495V71.6796C52.2751 72.9943 54.0833 73.9191 56.7599 74.1239C58.7028 74.2812 59.8333 74.4226 61.1666 75.9654L61.9344 77.807C62.8703 79.9472 63.4669 80.6539 65.4397 81.8584C66.2474 82.1293 67.0603 82.3851 67.8767 82.6285C70.1212 83.3015 71.0537 84.1701 72.3836 86.1441H73.4519L74.5201 88.8227H77.1909L78.7557 85.9453C79.2815 84.9837 79.2816 84.9836 80.3957 84.537C83.4993 84.1796 83.4993 84.1797 86.2129 85.5896C88.2647 87.4202 89.6302 89.6865 91.0786 92.0036C95.6537 99.2869 95.6538 99.2869 98.9781 100.711C99.8532 100.826 100.607 100.898 101.305 100.893L101.666 89.823C99.9408 89.7206 99.1506 89.4377 96.42 88.4544C93.2202 84.7437 92.585 82.1679 92.5809 77.3717L92.5611 76.1663C92.5546 73.727 92.8904 71.8476 93.7493 69.5368C93.8161 67.7288 93.8161 67.7287 93.7493 66.3224H92.681L92.5809 65.318C92.1469 64.1796 92.1469 64.1795 90.9451 63.4764C89.4762 63.1081 89.4761 63.1081 86.8055 63.6438L85.7372 70.0725C83.5107 69.001 83.5106 69.001 82.4989 67.059L81.9543 65.9018C81.4955 64.7914 81.1467 63.6871 80.7963 62.5389C79.7715 59.6333 77.2297 57.5025 74.5201 56.1437C73.6544 56.0348 72.7857 55.9483 71.9162 55.8759C70.234 55.7349 68.6694 55.5278 67.0421 55.0723V54.0008L65.9738 53.0633C64.5949 51.5074 64.818 50.6644 64.9056 48.6436C63.8373 47.5722 63.8373 47.5722 62.0971 47.4676L60.0315 47.5052L57.9575 47.5345L56.3593 47.5722L56.1444 46.6598C55.8121 45.3791 55.4132 44.138 54.9905 42.8846L54.5544 41.5872L54.2227 40.6078C51.174 40.0727 51.174 40.0727 49.9662 40.0679C48.7775 40.0358 47.866 39.9445 46.7447 39.5364C45.8244 38.5303 45.1217 37.4628 44.3723 36.3241C42.5871 34.0221 39.8925 33.2396 37.1635 32.5385L35.5277 32.0363L34.9935 30.4291C32.2862 27.4875 29.4699 25.3916 25.8797 23.6656L24.8897 23.1801C23.9856 22.737 23.0799 22.2972 22.1741 21.8576C21.4612 21.5018 20.7486 21.1454 20.0375 20.7861V19.7147Z" fill="white"/>
<path d="M102.053 89.8759C101.898 89.7213 101.602 89.8115 101.473 89.8759C100.957 93.3549 100.12 100.39 100.893 100.7C101.666 101.009 102.246 100.828 102.439 100.7L103.212 98.1869L102.246 90.2624C102.246 90.198 102.207 90.0305 102.053 89.8759Z" fill="white"/>
<path d="M204.645 102.053L102.336 167.751V167.769L102.323 167.76L102.309 167.769V167.751L0 102.053V56.0518L102.323 121.178L204.645 56.0518V102.053Z" fill="#FB0E0E"/>
<path d="M183.295 75.7664C185.84 73.5491 188.472 72.9134 191.841 73.0878L193.443 74.1593L192.909 76.8379L190.906 77.0388C186.86 77.9097 182.887 81.4682 180.624 84.8737C179.597 84.8382 178.569 84.8022 177.542 84.7628C175.359 84.966 173.714 86.1494 172.078 87.5523C171.092 88.9733 171.092 88.9734 170.475 90.2309H169.407L168.906 91.5367C168.339 92.9095 168.338 92.9096 167.804 93.4452L166.202 93.4118C163.413 93.7347 162.051 96.0199 160.387 98.0805C158.855 99.7872 157.812 100.336 155.552 100.577C153.421 101.057 152.75 102.057 151.246 103.624C148.264 106.27 145.285 108.694 141.721 110.498C138.926 112.009 136.464 113.922 134.053 115.979C133.755 116.232 133.456 116.486 133.149 116.747C130.578 118.96 128.193 121.32 125.841 123.762C124.539 125.053 124.539 125.053 123.07 126.16C121.813 127.243 121.507 127.718 121.334 129.339C123.684 127.8 126.002 126.255 128.211 124.517C130.323 122.899 132.584 121.675 134.934 120.438C136.392 119.675 136.392 119.675 138.026 118.457C139.495 117.553 139.495 117.553 141.297 117.352C145.405 116.641 147.54 113.869 149.877 110.588C152.363 107.137 154.852 105.332 158.58 103.406C161.721 101.772 164.06 100.132 166.438 97.4841C167.27 96.6596 167.27 96.6596 168.339 96.6596V95.5881C169.517 94.9506 170.697 94.3145 171.877 93.6796C172.239 93.4845 172.601 93.2895 172.973 93.0884C174.741 92.1408 176.511 91.2127 178.322 90.3523C183.123 88.0604 187.244 85.2788 191.298 81.8289C193.465 80.0695 195.067 79.7744 197.76 79.8534C198.785 80.0522 198.785 80.0522 199.853 81.1236C199.772 82.1851 199.772 82.1852 199.319 83.2665C198.486 83.9336 198.486 83.9336 197.408 84.497C196.813 84.8164 196.813 84.8163 196.206 85.1421C195.779 85.3628 195.352 85.5838 194.912 85.8112C194.03 86.2835 193.148 86.7572 192.266 87.2321C191.83 87.4661 191.394 87.7004 190.945 87.9415C189.242 88.8782 187.608 89.8955 185.965 90.934C182.497 93.1042 179.008 95.0497 175.149 96.4252C171.971 97.5779 169.944 99.0071 168.339 102.017C167.576 103.413 166.833 104.673 165.668 105.767C164.62 106.012 164.62 106.012 163.498 106.068L161.395 106.303C160.11 107.877 160.11 107.877 159.258 109.517H158.19L157.823 110.521C156.916 111.993 156.04 112.159 154.451 112.731L153.917 113.803C152.967 114.029 152.967 114.029 151.813 114.204C150.648 114.436 150.648 114.436 149.643 114.874C148.998 116.369 148.998 116.369 148.575 118.088C147.699 119.457 146.756 120.451 145.37 121.303C144.179 121.453 144.179 121.453 142.867 121.47C138.66 121.635 136.027 124.887 133.121 127.637C130.717 129.847 127.902 131.481 124.539 131.481V134.16C130.979 133.837 134.517 131.271 139.226 127.081C140.719 126.013 141.731 125.742 143.534 125.488C147.319 125.117 147.319 125.117 150.178 122.91L150.612 121.37C151.42 119.237 152.406 117.98 154.451 117.017C156.587 116.645 158.694 116.52 160.861 116.481L161.075 115.286C161.511 113.263 162.248 111.445 162.997 109.517H169.407L169.741 108.178C170.732 105.647 172.289 103.412 174.214 101.481C175.059 101.439 175.905 101.407 176.751 101.381C179.115 101.179 179.115 101.179 180.858 99.5391L181.438 98.6727C183.572 96.1242 187.213 94.2425 190.238 92.9095C191.707 92.8426 191.707 92.8426 192.909 92.9095C193.517 94.7139 193.535 95.3985 192.692 97.143C190.53 100.286 188.559 103.017 185.431 105.231H183.829V106.303L180.09 107.374V106.303C177.629 106.951 177.629 106.951 175.282 107.91C175.053 109.154 175.053 109.155 174.982 110.588C174.8 113.215 174.8 113.215 174.214 113.803C173.427 113.914 172.636 113.999 171.844 114.071C170.024 114.227 170.024 114.227 168.339 114.874C166.962 117.193 166.532 119.183 166.202 121.838L164.253 122.054C163.412 122.149 162.57 122.245 161.728 122.341L160.443 122.482C158.178 122.698 158.178 122.698 156.053 123.446C155.493 124.504 154.957 125.575 154.451 126.66H153.382V127.731C151.057 129.046 149.249 129.971 146.572 130.176C144.629 130.333 143.499 130.474 142.165 132.017L141.398 133.859C140.462 135.999 139.865 136.706 137.892 137.91C137.085 138.181 136.272 138.437 135.455 138.68C133.211 139.353 132.278 140.222 130.948 142.196H129.88L128.812 144.874H126.141L124.576 141.997C124.051 141.035 124.05 141.035 122.936 140.589C119.833 140.231 119.833 140.231 117.119 141.641C115.067 143.472 113.702 145.738 112.253 148.055C107.678 155.339 107.678 155.339 104.354 156.763C103.479 156.878 102.725 156.95 102.028 156.944L101.666 145.875C103.391 145.772 104.181 145.49 106.912 144.506C110.112 140.795 110.747 138.22 110.751 133.423L110.771 132.218C110.777 129.779 110.442 127.899 109.583 125.589C109.516 123.781 109.516 123.78 109.583 122.374H110.651L110.751 121.37C111.185 120.231 111.185 120.231 112.387 119.528C113.856 119.16 113.856 119.16 116.527 119.696L117.595 126.124C119.821 125.053 119.821 125.053 120.833 123.111L121.378 121.954C121.837 120.843 122.185 119.739 122.536 118.591C123.561 115.685 126.102 113.554 128.812 112.195C129.678 112.087 130.546 112 131.416 111.928C133.098 111.787 134.663 111.58 136.29 111.124V110.053L137.358 109.115C138.737 107.559 138.514 106.716 138.426 104.695C139.495 103.624 139.495 103.624 141.235 103.519L143.301 103.557L145.375 103.586L146.973 103.624L147.188 102.712C147.52 101.431 147.919 100.19 148.342 98.9364L148.778 97.6389L149.109 96.6596C152.158 96.1245 152.158 96.1245 153.366 96.1197C154.554 96.0876 155.466 95.9963 156.587 95.5881C157.508 94.582 158.21 93.5145 158.96 92.3759C160.745 90.0739 163.439 89.2914 166.169 88.5903L167.804 88.088L168.339 86.4809C171.046 83.5392 173.862 81.4433 177.452 79.7174L178.442 79.2319C179.346 78.7888 180.252 78.3489 181.158 77.9093C181.871 77.5536 182.583 77.1972 183.295 76.8379V75.7664Z" fill="white"/>
<path d="M20.0375 75.7664C17.4917 73.5491 14.86 72.9134 11.4912 73.0878L9.88877 74.1593L10.4229 76.8379L12.426 77.0388C16.4719 77.9097 20.4446 81.4682 22.7082 84.8737C23.7355 84.8382 24.7628 84.8022 25.79 84.7628C27.9733 84.966 29.6175 86.1494 31.2545 87.5523C32.2399 88.9733 32.2399 88.9734 32.8569 90.2309H33.9252L34.426 91.5367C34.9935 92.9095 34.9936 92.9096 35.5277 93.4452L37.1301 93.4118C39.9191 93.7347 41.2809 96.0199 42.9452 98.0805C44.477 99.7872 45.5201 100.336 47.7796 100.577C49.9113 101.057 50.5815 102.057 52.0861 103.624C55.0677 106.27 58.0469 108.694 61.611 110.498C64.4063 112.009 66.8679 113.922 69.2789 115.979C69.5773 116.232 69.8759 116.486 70.1834 116.747C72.7536 118.96 75.1389 121.32 77.4913 123.762C78.7933 125.053 78.7933 125.053 80.2622 126.16C81.5192 127.243 81.825 127.718 81.9982 129.339C79.6481 127.8 77.3303 126.255 75.1211 124.517C73.009 122.899 70.7481 121.675 68.3984 120.438C66.9404 119.675 66.9403 119.675 65.3062 118.457C63.8373 117.553 63.8373 117.553 62.0345 117.352C57.9267 116.641 55.7917 113.869 53.4549 110.588C50.9694 107.137 48.4804 105.332 44.7521 103.406C41.6107 101.772 39.2723 100.132 36.8943 97.4841C36.0618 96.6596 36.0618 96.6596 34.9935 96.6596V95.5881C33.8147 94.9506 32.6351 94.3145 31.4548 93.6796C31.0932 93.4845 30.7315 93.2895 30.3589 93.0884C28.5913 92.1408 26.8212 91.2127 25.0096 90.3523C20.2086 88.0604 16.088 85.2788 12.0337 81.8289C9.86703 80.0695 8.26463 79.7744 5.5718 79.8534C4.54734 80.0522 4.5473 80.0522 3.47905 81.1236C3.5599 82.1851 3.55992 82.1852 4.01319 83.2665C4.84622 83.9336 4.84625 83.9336 5.92442 84.497C6.5193 84.8164 6.51941 84.8163 7.12625 85.1421C7.55313 85.3628 7.98005 85.5838 8.41987 85.8112C9.30248 86.2835 10.1844 86.7572 11.0656 87.2321C11.5017 87.4661 11.9379 87.7004 12.3874 87.9415C14.0897 88.8782 15.7241 89.8955 17.3668 90.934C20.835 93.1042 24.3243 95.0497 28.1832 96.4252C31.3614 97.5779 33.3884 99.0071 34.9935 102.017C35.7563 103.413 36.4993 104.673 37.6642 105.767C38.7117 106.012 38.7117 106.012 39.8342 106.068L41.9374 106.303C43.2221 107.877 43.2221 107.877 44.074 109.517H45.1422L45.5095 110.521C46.4159 111.993 47.2923 112.159 48.8813 112.731L49.4154 113.803C50.3648 114.029 50.3648 114.029 51.5186 114.204C52.6844 114.436 52.6845 114.436 53.6885 114.874C54.3341 116.369 54.3342 116.369 54.7568 118.088C55.6332 119.457 56.5756 120.451 57.9617 121.303C59.1531 121.453 59.1531 121.453 60.4655 121.47C64.6718 121.635 67.3055 124.887 70.2115 127.637C72.615 129.847 75.4302 131.481 78.7933 131.481V134.16C72.3528 133.837 68.8148 131.271 64.1064 127.081C62.6131 126.013 61.6006 125.742 59.7978 125.488C56.0132 125.117 56.0132 125.117 53.1544 122.91L52.7204 121.37C51.9123 119.237 50.9258 117.98 48.8813 117.017C46.7446 116.645 44.6379 116.52 42.4715 116.481L42.2566 115.286C41.8212 113.263 41.0843 111.445 40.335 109.517H33.9252L33.5914 108.178C32.6003 105.647 31.0428 103.412 29.1179 101.481C28.2726 101.439 27.4267 101.407 26.5808 101.381C24.2167 101.179 24.2167 101.179 22.4745 99.5391L21.8945 98.6727C19.76 96.1242 16.1195 94.2425 13.0936 92.9095C11.6247 92.8426 11.6247 92.8426 10.4229 92.9095C9.81552 94.7139 9.79716 95.3985 10.6399 97.143C12.8018 100.286 14.7733 103.017 17.9009 105.231H19.5034V106.303L23.2424 107.374V106.303C25.7034 106.951 25.7034 106.951 28.0497 107.91C28.2793 109.154 28.2793 109.155 28.3501 110.588C28.5324 113.215 28.5325 113.215 29.1179 113.803C29.9052 113.914 30.6963 113.999 31.4882 114.071C33.3083 114.227 33.3083 114.227 34.9935 114.874C36.3695 117.193 36.8 119.183 37.1301 121.838L39.0789 122.054C39.9204 122.149 40.762 122.245 41.6035 122.341L42.8888 122.482C45.1543 122.698 45.1543 122.698 47.2788 123.446C47.8386 124.504 48.3749 125.575 48.8813 126.66H49.9495V127.731C52.2751 129.046 54.0833 129.971 56.7599 130.176C58.7028 130.333 59.8333 130.474 61.1666 132.017L61.9344 133.859C62.8703 135.999 63.4669 136.706 65.4397 137.91C66.2474 138.181 67.0603 138.437 67.8767 138.68C70.1212 139.353 71.0537 140.222 72.3836 142.196H73.4519L74.5201 144.874H77.1909L78.7557 141.997C79.2815 141.035 79.2816 141.035 80.3957 140.589C83.4993 140.231 83.4993 140.231 86.2129 141.641C88.2647 143.472 89.6302 145.738 91.0786 148.055C95.6537 155.339 95.6538 155.339 98.9781 156.763C99.8532 156.878 100.607 156.95 101.305 156.944L101.666 145.875C99.9408 145.772 99.1506 145.49 96.42 144.506C93.2202 140.795 92.585 138.22 92.5809 133.423L92.5611 132.218C92.5546 129.779 92.8904 127.899 93.7493 125.589C93.8161 123.781 93.8161 123.78 93.7493 122.374H92.681L92.5809 121.37C92.1469 120.231 92.1469 120.231 90.9451 119.528C89.4762 119.16 89.4761 119.16 86.8055 119.696L85.7372 126.124C83.5107 125.053 83.5106 125.053 82.4989 123.111L81.9543 121.954C81.4955 120.843 81.1467 119.739 80.7963 118.591C79.7715 115.685 77.2297 113.554 74.5201 112.195C73.6544 112.087 72.7857 112 71.9162 111.928C70.234 111.787 68.6694 111.58 67.0421 111.124V110.053L65.9738 109.115C64.5949 107.559 64.818 106.716 64.9056 104.695C63.8373 103.624 63.8373 103.624 62.0971 103.519L60.0315 103.557L57.9575 103.586L56.3593 103.624L56.1444 102.712C55.8121 101.431 55.4132 100.19 54.9905 98.9364L54.5544 97.6389L54.2227 96.6596C51.174 96.1245 51.174 96.1245 49.9662 96.1197C48.7775 96.0876 47.866 95.9963 46.7447 95.5881C45.8244 94.582 45.1217 93.5145 44.3723 92.3759C42.5871 90.0739 39.8925 89.2914 37.1635 88.5903L35.5277 88.088L34.9935 86.4809C32.2862 83.5392 29.4699 81.4433 25.8797 79.7174L24.8897 79.2319C23.9856 78.7888 23.0799 78.3489 22.1741 77.9093C21.4612 77.5536 20.7486 77.1972 20.0375 76.8379V75.7664Z" fill="white"/>
<path d="M102.053 145.928C101.898 145.773 101.602 145.863 101.473 145.928C100.957 149.407 100.12 156.442 100.893 156.751C101.666 157.061 102.246 156.88 102.439 156.751L103.212 154.239L102.246 146.314C102.246 146.25 102.207 146.082 102.053 145.928Z" fill="white"/>
<path d="M204.645 157.717L102.336 223.416V223.433L102.323 223.424L102.309 223.433V223.416L0 157.717V111.716L102.323 176.843L204.645 111.716V157.717Z" fill="#FB0E0E"/>
<path d="M183.295 131.431C185.84 129.214 188.472 128.578 191.841 128.752L193.443 129.824L192.909 132.502L190.906 132.703C186.86 133.574 182.887 137.133 180.624 140.538C179.597 140.503 178.569 140.467 177.542 140.427C175.359 140.631 173.714 141.814 172.078 143.217C171.092 144.638 171.092 144.638 170.475 145.895H169.407L168.906 147.201C168.339 148.574 168.338 148.574 167.804 149.11L166.202 149.076C163.413 149.399 162.051 151.684 160.387 153.745C158.855 155.452 157.812 156 155.552 156.242C153.421 156.722 152.75 157.721 151.246 159.288C148.264 161.934 145.285 164.358 141.721 166.163C138.926 167.673 136.464 169.586 134.053 171.644C133.755 171.897 133.456 172.15 133.149 172.412C130.578 174.624 128.193 176.984 125.841 179.426C124.539 180.717 124.539 180.717 123.07 181.824C121.813 182.908 121.507 183.383 121.334 185.003C123.684 183.465 126.002 181.919 128.211 180.182C130.323 178.563 132.584 177.34 134.934 176.103C136.392 175.339 136.392 175.339 138.026 174.121C139.495 173.217 139.495 173.217 141.297 173.016C145.405 172.306 147.54 169.534 149.877 166.253C152.363 162.801 154.852 160.997 158.58 159.071C161.721 157.437 164.06 155.796 166.438 153.149C167.27 152.324 167.27 152.324 168.339 152.324V151.253C169.517 150.615 170.697 149.979 171.877 149.344C172.239 149.149 172.601 148.954 172.973 148.753C174.741 147.805 176.511 146.877 178.322 146.017C183.123 143.725 187.244 140.943 191.298 137.493C193.465 135.734 195.067 135.439 197.76 135.518C198.785 135.717 198.785 135.717 199.853 136.788C199.772 137.85 199.772 137.85 199.319 138.931C198.486 139.598 198.486 139.598 197.408 140.162C196.813 140.481 196.813 140.481 196.206 140.807C195.779 141.027 195.352 141.248 194.912 141.476C194.03 141.948 193.148 142.422 192.266 142.897C191.83 143.131 191.394 143.365 190.945 143.606C189.242 144.543 187.608 145.56 185.965 146.599C182.497 148.769 179.008 150.714 175.149 152.09C171.971 153.242 169.944 154.672 168.339 157.681C167.576 159.078 166.833 160.338 165.668 161.431C164.62 161.676 164.62 161.676 163.498 161.733L161.395 161.967C160.11 163.542 160.11 163.542 159.258 165.181H158.19L157.823 166.186C156.916 167.658 156.04 167.824 154.451 168.396L153.917 169.467C152.967 169.693 152.967 169.693 151.813 169.869C150.648 170.101 150.648 170.101 149.643 170.539C148.998 172.034 148.998 172.034 148.575 173.753C147.699 175.122 146.756 176.115 145.37 176.967C144.179 177.118 144.179 177.118 142.867 177.135C138.66 177.3 136.027 180.552 133.121 183.302C130.717 185.512 127.902 187.146 124.539 187.146V189.825C130.979 189.502 134.517 186.935 139.226 182.745C140.719 181.677 141.731 181.407 143.534 181.153C147.319 180.782 147.319 180.782 150.178 178.574L150.612 177.034C151.42 174.901 152.406 173.645 154.451 172.682C156.587 172.31 158.694 172.184 160.861 172.146L161.075 170.951C161.511 168.927 162.248 167.109 162.997 165.181H169.407L169.741 163.842C170.732 161.312 172.289 159.076 174.214 157.146C175.059 157.103 175.905 157.072 176.751 157.045C179.115 156.843 179.115 156.843 180.858 155.204L181.438 154.337C183.572 151.789 187.213 149.907 190.238 148.574C191.707 148.507 191.707 148.507 192.909 148.574C193.517 150.378 193.535 151.063 192.692 152.808C190.53 155.951 188.559 158.681 185.431 160.896H183.829V161.967L180.09 163.039V161.967C177.629 162.616 177.629 162.616 175.282 163.574C175.053 164.819 175.053 164.819 174.982 166.253C174.8 168.88 174.8 168.88 174.214 169.467C173.427 169.578 172.636 169.664 171.844 169.735C170.024 169.891 170.024 169.891 168.339 170.539C166.962 172.857 166.532 174.848 166.202 177.503L164.253 177.719C163.412 177.814 162.57 177.91 161.728 178.005L160.443 178.147C158.178 178.362 158.178 178.362 156.053 179.11C155.493 180.168 154.957 181.24 154.451 182.325H153.382V183.396C151.057 184.711 149.249 185.635 146.572 185.84C144.629 185.998 143.499 186.139 142.165 187.682L141.398 189.523C140.462 191.664 139.865 192.37 137.892 193.575C137.085 193.846 136.272 194.101 135.455 194.345C133.211 195.018 132.278 195.886 130.948 197.86H129.88L128.812 200.539H126.141L124.576 197.662C124.051 196.7 124.05 196.7 122.936 196.253C119.833 195.896 119.833 195.896 117.119 197.306C115.067 199.137 113.702 201.403 112.253 203.72C107.678 211.003 107.678 211.003 104.354 212.427C103.479 212.542 102.725 212.614 102.028 212.609L101.666 201.539C103.391 201.437 104.181 201.154 106.912 200.171C110.112 196.46 110.747 193.884 110.751 189.088L110.771 187.883C110.777 185.443 110.442 183.564 109.583 181.253C109.516 179.445 109.516 179.445 109.583 178.039H110.651L110.751 177.034C111.185 175.896 111.185 175.896 112.387 175.193C113.856 174.824 113.856 174.824 116.527 175.36L117.595 181.789C119.821 180.717 119.821 180.717 120.833 178.775L121.378 177.618C121.837 176.508 122.185 175.403 122.536 174.255C123.561 171.35 126.102 169.219 128.812 167.86C129.678 167.751 130.546 167.665 131.416 167.592C133.098 167.451 134.663 167.244 136.29 166.789V165.717L137.358 164.78C138.737 163.224 138.514 162.381 138.426 160.36C139.495 159.289 139.495 159.288 141.235 159.184L143.301 159.222L145.375 159.251L146.973 159.288L147.188 158.376C147.52 157.095 147.919 155.854 148.342 154.601L148.778 153.303L149.109 152.324C152.158 151.789 152.158 151.789 153.366 151.784C154.554 151.752 155.466 151.661 156.587 151.253C157.508 150.247 158.21 149.179 158.96 148.04C160.745 145.738 163.439 144.956 166.169 144.255L167.804 143.753L168.339 142.145C171.046 139.204 173.862 137.108 177.452 135.382L178.442 134.896C179.346 134.453 180.252 134.013 181.158 133.574C181.871 133.218 182.583 132.862 183.295 132.502V131.431Z" fill="white"/>
<path d="M20.0375 131.431C17.4917 129.214 14.86 128.578 11.4912 128.752L9.88877 129.824L10.4229 132.502L12.426 132.703C16.4719 133.574 20.4446 137.133 22.7082 140.538C23.7355 140.503 24.7628 140.467 25.79 140.427C27.9733 140.631 29.6175 141.814 31.2545 143.217C32.2399 144.638 32.2399 144.638 32.8569 145.895H33.9252L34.426 147.201C34.9935 148.574 34.9936 148.574 35.5277 149.11L37.1301 149.076C39.9191 149.399 41.2809 151.684 42.9452 153.745C44.477 155.452 45.5201 156 47.7796 156.242C49.9113 156.722 50.5815 157.721 52.0861 159.288C55.0677 161.934 58.0469 164.358 61.611 166.163C64.4063 167.673 66.8679 169.586 69.2789 171.644C69.5773 171.897 69.8759 172.15 70.1834 172.412C72.7536 174.624 75.1389 176.984 77.4913 179.426C78.7933 180.717 78.7933 180.717 80.2622 181.824C81.5192 182.908 81.825 183.383 81.9982 185.003C79.6481 183.465 77.3303 181.919 75.1211 180.182C73.009 178.563 70.7481 177.34 68.3984 176.103C66.9404 175.339 66.9403 175.339 65.3062 174.121C63.8373 173.217 63.8373 173.217 62.0345 173.016C57.9267 172.306 55.7917 169.534 53.4549 166.253C50.9694 162.801 48.4804 160.997 44.7521 159.071C41.6107 157.437 39.2723 155.796 36.8943 153.149C36.0618 152.324 36.0618 152.324 34.9935 152.324V151.253C33.8147 150.615 32.6351 149.979 31.4548 149.344C31.0932 149.149 30.7315 148.954 30.3589 148.753C28.5913 147.805 26.8212 146.877 25.0096 146.017C20.2086 143.725 16.088 140.943 12.0337 137.493C9.86703 135.734 8.26463 135.439 5.5718 135.518C4.54734 135.717 4.5473 135.717 3.47905 136.788C3.5599 137.85 3.55992 137.85 4.01319 138.931C4.84622 139.598 4.84625 139.598 5.92442 140.162C6.5193 140.481 6.51941 140.481 7.12625 140.807C7.55313 141.027 7.98005 141.248 8.41987 141.476C9.30248 141.948 10.1844 142.422 11.0656 142.897C11.5017 143.131 11.9379 143.365 12.3874 143.606C14.0897 144.543 15.7241 145.56 17.3668 146.599C20.835 148.769 24.3243 150.714 28.1832 152.09C31.3614 153.242 33.3884 154.672 34.9935 157.681C35.7563 159.078 36.4993 160.338 37.6642 161.431C38.7117 161.676 38.7117 161.676 39.8342 161.733L41.9374 161.967C43.2221 163.542 43.2221 163.542 44.074 165.181H45.1422L45.5095 166.186C46.4159 167.658 47.2923 167.824 48.8813 168.396L49.4154 169.467C50.3648 169.693 50.3648 169.693 51.5186 169.869C52.6844 170.101 52.6845 170.101 53.6885 170.539C54.3341 172.034 54.3342 172.034 54.7568 173.753C55.6332 175.122 56.5756 176.115 57.9617 176.967C59.1531 177.118 59.1531 177.118 60.4655 177.135C64.6718 177.3 67.3055 180.552 70.2115 183.302C72.615 185.512 75.4302 187.146 78.7933 187.146V189.825C72.3528 189.502 68.8148 186.935 64.1064 182.745C62.6131 181.677 61.6006 181.407 59.7978 181.153C56.0132 180.782 56.0132 180.782 53.1544 178.574L52.7204 177.034C51.9123 174.901 50.9258 173.645 48.8813 172.682C46.7446 172.31 44.6379 172.184 42.4715 172.146L42.2566 170.951C41.8212 168.927 41.0843 167.109 40.335 165.181H33.9252L33.5914 163.842C32.6003 161.312 31.0428 159.076 29.1179 157.146C28.2726 157.103 27.4267 157.072 26.5808 157.045C24.2167 156.843 24.2167 156.843 22.4745 155.204L21.8945 154.337C19.76 151.789 16.1195 149.907 13.0936 148.574C11.6247 148.507 11.6247 148.507 10.4229 148.574C9.81552 150.378 9.79716 151.063 10.6399 152.808C12.8018 155.951 14.7733 158.681 17.9009 160.896H19.5034V161.967L23.2424 163.039V161.967C25.7034 162.616 25.7034 162.616 28.0497 163.574C28.2793 164.819 28.2793 164.819 28.3501 166.253C28.5324 168.88 28.5325 168.88 29.1179 169.467C29.9052 169.578 30.6963 169.664 31.4882 169.735C33.3083 169.891 33.3083 169.891 34.9935 170.539C36.3695 172.857 36.8 174.848 37.1301 177.503L39.0789 177.719C39.9204 177.814 40.762 177.91 41.6035 178.005L42.8888 178.147C45.1543 178.362 45.1543 178.362 47.2788 179.11C47.8386 180.168 48.3749 181.24 48.8813 182.325H49.9495V183.396C52.2751 184.711 54.0833 185.635 56.7599 185.84C58.7028 185.998 59.8333 186.139 61.1666 187.682L61.9344 189.523C62.8703 191.664 63.4669 192.37 65.4397 193.575C66.2474 193.846 67.0603 194.101 67.8767 194.345C70.1212 195.018 71.0537 195.886 72.3836 197.86H73.4519L74.5201 200.539H77.1909L78.7557 197.662C79.2815 196.7 79.2816 196.7 80.3957 196.253C83.4993 195.896 83.4993 195.896 86.2129 197.306C88.2647 199.137 89.6302 201.403 91.0786 203.72C95.6537 211.003 95.6538 211.003 98.9781 212.427C99.8532 212.542 100.607 212.614 101.305 212.609L101.666 201.539C99.9408 201.437 99.1506 201.154 96.42 200.171C93.2202 196.46 92.585 193.884 92.5809 189.088L92.5611 187.883C92.5546 185.443 92.8904 183.564 93.7493 181.253C93.8161 179.445 93.8161 179.445 93.7493 178.039H92.681L92.5809 177.034C92.1469 175.896 92.1469 175.896 90.9451 175.193C89.4762 174.824 89.4761 174.824 86.8055 175.36L85.7372 181.789C83.5107 180.717 83.5106 180.717 82.4989 178.775L81.9543 177.618C81.4955 176.508 81.1467 175.403 80.7963 174.255C79.7715 171.35 77.2297 169.219 74.5201 167.86C73.6544 167.751 72.7857 167.665 71.9162 167.592C70.234 167.451 68.6694 167.244 67.0421 166.789V165.717L65.9738 164.78C64.5949 163.224 64.818 162.381 64.9056 160.36C63.8373 159.289 63.8373 159.288 62.0971 159.184L60.0315 159.222L57.9575 159.251L56.3593 159.288L56.1444 158.376C55.8121 157.095 55.4132 155.854 54.9905 154.601L54.5544 153.303L54.2227 152.324C51.174 151.789 51.174 151.789 49.9662 151.784C48.7775 151.752 47.866 151.661 46.7447 151.253C45.8244 150.247 45.1217 149.179 44.3723 148.04C42.5871 145.738 39.8925 144.956 37.1635 144.255L35.5277 143.753L34.9935 142.145C32.2862 139.204 29.4699 137.108 25.8797 135.382L24.8897 134.896C23.9856 134.453 23.0799 134.013 22.1741 133.574C21.4612 133.218 20.7486 132.862 20.0375 132.502V131.431Z" fill="white"/>
<path d="M102.053 201.593C101.898 201.438 101.602 201.528 101.473 201.593C100.957 205.072 100.12 212.107 100.893 212.416C101.666 212.726 102.246 212.545 102.439 212.416L103.212 209.904L102.246 201.979C102.246 201.915 102.207 201.747 102.053 201.593Z" fill="white"/>
</svg>
